<?xml version="1.0" encoding="UTF-8"?>
<!DOCTYPE svg PUBLIC "-//W3C//DTD SVG 1.1//EN" "http://www.w3.org/Graphics/SVG/1.1/DTD/svg11.dtd">
<svg xmlns="http://www.w3.org/2000/svg" version="1.1" width="200px" height="200px" style="shape-rendering:geometricPrecision; text-rendering:geometricPrecision; image-rendering:optimizeQuality; fill-rule:evenodd; clip-rule:evenodd" xmlns:xlink="http://www.w3.org/1999/xlink">
<g><path style="opacity:0.697" fill="#fe0000" d="M 84.5,2.5 C 125.378,-1.39562 157.545,13.271 181,46.5C 195.459,70.4728 199.459,96.1395 193,123.5C 181.024,163.476 154.524,187.31 113.5,195C 72.6042,199.386 40.4375,184.886 17,151.5C 2.5413,127.527 -1.4587,101.861 5,74.5C 17.1494,34.5115 43.6494,10.5115 84.5,2.5 Z M 23.5,152.5 C 71.1667,152.5 118.833,152.5 166.5,152.5C 166.5,116.833 166.5,81.1667 166.5,45.5C 118.833,45.5 71.1667,45.5 23.5,45.5C 41.8151,19.7532 66.9817,6.41988 99,5.5C 148.644,9.14611 179.311,35.1461 191,83.5C 195.869,125.256 180.703,157.423 145.5,180C 100.728,201.511 61.2284,194.345 27,158.5C 25.5787,156.595 24.412,154.595 23.5,152.5 Z M 23.5,45.5 C 23.5,81.1667 23.5,116.833 23.5,152.5C 8.44659,131.947 2.94659,108.947 7,83.5C 9.52466,69.3877 15.0247,56.721 23.5,45.5 Z"/></g>
<g><path style="opacity:1" fill="#fffbfa" d="M 23.5,45.5 C 71.1667,45.5 118.833,45.5 166.5,45.5C 166.5,81.1667 166.5,116.833 166.5,152.5C 118.833,152.5 71.1667,152.5 23.5,152.5C 23.5,116.833 23.5,81.1667 23.5,45.5 Z"/></g>
<g><path style="opacity:1" fill="#ff0402" d="M 35.5,53.5 C 74.9979,52.3354 114.665,52.1688 154.5,53C 136.862,71.6383 118.862,89.9717 100.5,108C 96.8333,110 93.1667,110 89.5,108C 71.5989,89.661 53.5989,71.4943 35.5,53.5 Z"/></g>
<g><path style="opacity:1" fill="#ff0602" d="M 30.5,57.5 C 43.9376,71.4383 57.6042,85.2716 71.5,99C 57.6373,112.529 44.1373,126.362 31,140.5C 30.5,112.835 30.3334,85.1687 30.5,57.5 Z"/></g>
<g><path style="opacity:1" fill="#ff0602" d="M 158.5,57.5 C 159.664,84.997 159.83,112.664 159,140.5C 145.863,126.362 132.363,112.529 118.5,99C 132.401,85.6015 145.734,71.7682 158.5,57.5 Z"/></g>
<g><path style="opacity:1" fill="#ff0402" d="M 75.5,103.5 C 79.2976,106.796 82.9643,110.296 86.5,114C 92.1338,118.565 97.8005,118.565 103.5,114C 107,110.5 110.5,107 114,103.5C 127.137,117.638 140.637,131.471 154.5,145C 114.833,145.667 75.1667,145.667 35.5,145C 49.4006,131.602 62.7339,117.768 75.5,103.5 Z"/></g>
</svg>
