<svg aria-hidden="true" style="position: absolute; width: 0; height: 0; overflow: hidden;" version="1.1" xmlns="http://www.w3.org/2000/svg" xmlns:xlink="http://www.w3.org/1999/xlink">
<defs>
<symbol id="icon-logo" viewBox="0 0 55 32">
<path fill="#fe0000" style="fill: var(--color1, #fe0000)" opacity="0.997" d="M14.114 0.868c0.513 0.683 0.835 1.45 0.966 2.301 0.118 0.876-0.040 1.699-0.474 2.468-0.473 0.784-1.066 1.466-1.781 2.046-0.828 0.657-1.736 1.185-2.726 1.583-0.484 0.197-0.976 0.369-1.478 0.516-0.399 0.111-0.798 0.218-1.199 0.321-0.957 0.261-1.874 0.619-2.754 1.074-0.666 0.35-1.277 0.778-1.834 1.283-0.488 0.451-0.892 0.966-1.21 1.544-0.242 0.446-0.403 0.92-0.481 1.422-0.009 0.074-0.016 0.149-0.021 0.223-0.149-0.396-0.261-0.802-0.335-1.22-0.135-0.724-0.158-1.451-0.070-2.182 0.202-1.47 0.889-2.652 2.060-3.545 0.304-0.227 0.625-0.429 0.962-0.607 1.188-0.61 2.396-1.175 3.625-1.694 0.842-0.354 1.683-0.71 2.524-1.067 0.648-0.276 1.282-0.581 1.903-0.913 0.465-0.252 0.899-0.547 1.304-0.885 0.323-0.274 0.591-0.591 0.805-0.952 0.302-0.543 0.373-1.115 0.213-1.715z"></path>
<path fill="#fe0000" style="fill: var(--color1, #fe0000)" opacity="0.996" d="M15.271 9.067c0.015 0.037 0.026 0.077 0.031 0.119 0.080 0.647-0.029 1.261-0.328 1.841-0.215 0.407-0.488 0.77-0.819 1.091-0.504 0.463-1.048 0.872-1.631 1.227-0.605 0.365-1.232 0.69-1.882 0.976-0.702 0.302-1.407 0.599-2.112 0.892-0.478 0.204-0.943 0.434-1.394 0.69-0.47 0.27-0.894 0.601-1.272 0.993-0.531 0.585-0.884 1.266-1.060 2.043-0.285 1.148-0.213 2.273 0.216 3.374 0.213 0.536 0.476 1.045 0.788 1.527 0.167 0.257 0.339 0.51 0.516 0.76 0.334 0.453 0.671 0.904 1.011 1.352 0.496 0.662 0.94 1.359 1.332 2.091 0.338 0.634 0.605 1.296 0.802 1.987 0.123 0.437 0.192 0.882 0.206 1.335 0 0.071-0.004 0.142-0.014 0.213-0.051-0.264-0.134-0.517-0.248-0.76-0.204-0.428-0.441-0.835-0.711-1.22-0.494-0.685-1.040-1.328-1.638-1.931-0.439-0.423-0.871-0.853-1.297-1.29-0.718-0.757-1.38-1.556-1.987-2.398-0.435-0.612-0.824-1.256-1.164-1.931-0.297-0.594-0.523-1.214-0.676-1.861-0.169-0.757-0.162-1.512 0.021-2.266 0.229-0.955 0.682-1.782 1.359-2.482 0.557-0.558 1.184-1.022 1.879-1.391 0.848-0.445 1.734-0.798 2.656-1.060 0.158-0.046 0.316-0.090 0.474-0.132 0.74-0.173 1.472-0.373 2.196-0.6 0.853-0.269 1.676-0.61 2.468-1.025 0.483-0.258 0.934-0.562 1.352-0.913 0.242-0.207 0.457-0.439 0.645-0.694 0.093-0.131 0.172-0.27 0.237-0.418 0.019-0.045 0.034-0.092 0.045-0.139z"></path>
<path fill="#1e2c3a" style="fill: var(--color2, #1e2c3a)" opacity="0.992" d="M40.035 15.146c0.286-0.033 0.542 0.038 0.767 0.213 0.262 0.246 0.328 0.538 0.199 0.875-0.12 0.223-0.305 0.361-0.554 0.415-0.141 0.023-0.283 0.030-0.425 0.021-0.258-0.023-0.466-0.136-0.624-0.338-0.099-0.158-0.137-0.33-0.112-0.516 0.042-0.246 0.171-0.431 0.387-0.554 0.114-0.062 0.235-0.1 0.363-0.115z"></path>
<path fill="#1e2c3a" style="fill: var(--color2, #1e2c3a)" opacity="0.997" d="M44.274 15.146c0.014 0 0.028 0 0.042 0-0.002 1.643 0 3.286 0.007 4.929 0.467-0.41 0.934-0.82 1.401-1.23 0.078-0.062 0.137-0.137 0.178-0.227 0.062-0.165 0.015-0.287-0.143-0.366-0.164-0.062-0.334-0.098-0.509-0.108 0-0.158 0-0.316 0-0.474 0.876 0 1.752 0 2.628 0 0 0.158 0 0.316 0 0.474-0.394 0.043-0.743 0.19-1.046 0.443-0.337 0.284-0.677 0.565-1.018 0.844 0.589 0.902 1.18 1.803 1.774 2.702 0.107 0.146 0.242 0.254 0.408 0.324 0.050 0.019 0.101 0.032 0.153 0.038 0 0.158 0 0.316 0 0.474-0.92 0-1.841 0-2.761 0-0.001-0.158 0.001-0.316 0.007-0.474 0.134-0.004 0.259-0.038 0.376-0.101 0.072-0.069 0.087-0.149 0.045-0.241-0.017-0.036-0.035-0.071-0.056-0.105-0.374-0.559-0.747-1.119-1.119-1.68-0.107 0.091-0.214 0.181-0.321 0.272-0.010 0.444-0.009 0.888 0.004 1.332 0.004 0.125 0.037 0.241 0.098 0.349 0.064 0.073 0.145 0.121 0.241 0.143 0.062 0.018 0.124 0.028 0.188 0.031 0 0.158 0 0.316 0 0.474-0.881 0-1.762 0-2.642 0 0-0.158 0-0.316 0-0.474 0.13-0.014 0.251-0.054 0.363-0.122 0.077-0.065 0.122-0.147 0.136-0.247 0.010-0.046 0.017-0.093 0.021-0.139 0.011-1.859 0.014-3.718 0.007-5.577-0.001-0.119-0.024-0.233-0.070-0.342-0.054-0.092-0.135-0.149-0.241-0.171-0.089-0.023-0.18-0.033-0.272-0.031 0-0.158 0-0.316 0-0.474 0.714-0.028 1.42-0.109 2.119-0.244z"></path>
<path fill="#1e2c3a" style="fill: var(--color2, #1e2c3a)" opacity="0.993" d="M22.975 16.917c-0.298 0.046-0.547 0.181-0.749 0.404-0.129 0.146-0.244 0.302-0.345 0.467-0.584-0.259-1.193-0.342-1.827-0.247-0.448 0.057-0.848 0.224-1.199 0.502-0.337 0.275-0.531 0.63-0.582 1.063-0.070 0.73 0.205 1.284 0.826 1.663-0.211 0.118-0.401 0.266-0.568 0.443-0.113 0.129-0.19 0.278-0.23 0.446-0.061 0.328 0.031 0.603 0.275 0.826 0.187 0.145 0.396 0.244 0.627 0.3-0.097 0.023-0.195 0.046-0.293 0.070-0.19 0.048-0.371 0.117-0.544 0.209-0.179 0.098-0.313 0.238-0.401 0.422-0.135 0.375-0.075 0.714 0.181 1.018 0.201 0.203 0.435 0.36 0.701 0.471 0.436 0.172 0.89 0.265 1.359 0.279 0.536 0.029 1.065-0.013 1.59-0.125 0.376-0.085 0.723-0.236 1.039-0.453 0.47-0.344 0.68-0.807 0.631-1.391-0.025-0.351-0.168-0.642-0.429-0.875-0.228-0.184-0.483-0.316-0.767-0.397-0.274-0.055-0.55-0.088-0.83-0.098-0.495-0.019-0.99-0.038-1.485-0.056-0.187-0.008-0.371-0.038-0.551-0.091-0.079-0.032-0.141-0.084-0.185-0.157-0.047-0.125-0.028-0.238 0.056-0.342 0.103-0.11 0.225-0.194 0.366-0.251 0.139 0.043 0.281 0.072 0.425 0.087 0.443 0.042 0.882 0.019 1.318-0.070 0.319-0.066 0.612-0.192 0.878-0.376 0.285-0.204 0.477-0.475 0.575-0.812 0.163-0.731-0.033-1.344-0.589-1.841 0.098-0.197 0.254-0.266 0.467-0.206 0.098 0.033 0.195 0.065 0.293 0.098 0.103 0.031 0.209 0.049 0.317 0.052 0.251-0.001 0.407-0.122 0.467-0.363 0.035-0.258-0.059-0.453-0.282-0.582-0.17-0.079-0.349-0.108-0.537-0.087zM20.465 17.99c0.356-0.028 0.622 0.111 0.798 0.418 0.119 0.222 0.184 0.459 0.195 0.711 0.027 0.309-0.008 0.612-0.105 0.906-0.072 0.204-0.194 0.37-0.366 0.498-0.161 0.099-0.335 0.136-0.523 0.112-0.214-0.033-0.385-0.137-0.512-0.31-0.165-0.246-0.253-0.518-0.265-0.816-0.027-0.312 0.008-0.616 0.105-0.913 0.066-0.184 0.174-0.339 0.324-0.464 0.105-0.076 0.221-0.123 0.349-0.143zM20.319 23.017c0.177-0.001 0.353 0 0.53 0.003 0.315 0.010 0.619 0.071 0.913 0.181 0.168 0.066 0.313 0.165 0.436 0.296 0.148 0.201 0.169 0.414 0.063 0.641-0.084 0.131-0.195 0.234-0.331 0.31-0.261 0.134-0.537 0.216-0.83 0.244-0.36 0.034-0.721 0.032-1.081-0.007-0.279-0.031-0.541-0.112-0.788-0.244-0.119-0.070-0.218-0.162-0.296-0.275-0.141-0.28-0.101-0.53 0.122-0.749 0.17-0.14 0.363-0.237 0.579-0.293 0.225-0.058 0.453-0.094 0.683-0.108z"></path>
<path fill="#1e2c3a" style="fill: var(--color2, #1e2c3a)" opacity="0.995" d="M9.785 17.509c-0.986 0.092-1.691 0.585-2.116 1.478-0.181 0.427-0.268 0.874-0.261 1.339-0.007 0.574 0.133 1.109 0.422 1.604 0.433 0.696 1.060 1.095 1.879 1.196 0.642 0.070 1.227-0.077 1.757-0.439 0.587-0.444 0.946-1.031 1.077-1.76 0.098-0.584 0.056-1.158-0.126-1.722-0.242-0.674-0.685-1.168-1.328-1.481-0.417-0.173-0.852-0.244-1.304-0.213zM9.896 17.99c0.294-0.033 0.516 0.077 0.666 0.328 0.093 0.189 0.151 0.389 0.174 0.6 0.040 0.296 0.063 0.594 0.070 0.892 0.014 0.451 0.009 0.902-0.014 1.352-0.012 0.306-0.054 0.608-0.126 0.906-0.045 0.183-0.136 0.338-0.275 0.464-0.191 0.128-0.398 0.158-0.62 0.091-0.19-0.076-0.321-0.209-0.394-0.401-0.067-0.183-0.111-0.371-0.132-0.565-0.037-0.31-0.058-0.622-0.063-0.934-0.009-0.43-0.002-0.86 0.021-1.29 0.014-0.285 0.053-0.566 0.119-0.844 0.038-0.15 0.105-0.285 0.202-0.404 0.103-0.107 0.227-0.172 0.373-0.195z"></path>
<path fill="#1e2c3a" style="fill: var(--color2, #1e2c3a)" opacity="0.995" d="M15.090 17.509c0.023 0 0.046 0 0.070 0-0.001 0.402 0 0.804 0.004 1.206 0.137-0.304 0.327-0.57 0.568-0.798 0.387-0.314 0.822-0.402 1.304-0.265 0.486 0.194 0.701 0.553 0.645 1.077-0.078 0.371-0.305 0.583-0.68 0.638-0.257 0.039-0.479-0.029-0.666-0.206-0.119-0.135-0.159-0.291-0.119-0.467 0.019-0.079 0.037-0.158 0.056-0.237 0.019-0.063 0.009-0.121-0.028-0.174-0.022-0.017-0.046-0.030-0.073-0.038-0.114-0.015-0.214 0.015-0.3 0.091-0.096 0.090-0.174 0.194-0.234 0.31-0.179 0.348-0.286 0.718-0.321 1.108-0.009 0.090-0.016 0.181-0.021 0.272-0.005 0.641-0.005 1.283 0 1.924 0.004 0.129 0.037 0.249 0.098 0.363 0.081 0.107 0.189 0.167 0.324 0.178 0.121 0.008 0.242 0.012 0.363 0.010 0 0.156 0 0.311 0 0.467-0.967 0-1.933 0-2.9 0 0-0.158 0-0.316 0-0.474 0.147-0.014 0.279-0.064 0.397-0.15 0.068-0.084 0.106-0.18 0.115-0.289 0.006-0.053 0.011-0.107 0.014-0.16 0.005-1.078 0.005-2.157 0-3.235 0.001-0.125-0.025-0.243-0.077-0.356-0.057-0.069-0.13-0.109-0.22-0.122-0.087-0.018-0.176-0.026-0.265-0.024 0-0.163 0-0.325 0-0.488 0.651-0.033 1.299-0.087 1.945-0.16z"></path>
<path fill="#1e2c3a" style="fill: var(--color2, #1e2c3a)" opacity="0.994" d="M26.259 17.509c-0.363 0.025-0.707 0.121-1.032 0.289-0.602 0.352-1.005 0.862-1.21 1.53-0.138 0.502-0.171 1.011-0.098 1.527 0.097 0.653 0.384 1.205 0.861 1.656 0.581 0.492 1.252 0.696 2.015 0.613 1.006-0.096 1.691-0.613 2.057-1.551-0.154-0.065-0.311-0.123-0.471-0.174-0.006 0.002-0.012 0.005-0.017 0.007-0.151 0.307-0.353 0.575-0.607 0.805-0.226 0.196-0.489 0.315-0.788 0.356-0.271 0.033-0.52-0.025-0.746-0.174-0.2-0.17-0.333-0.383-0.401-0.638-0.064-0.235-0.104-0.475-0.119-0.718-0.012-0.267-0.013-0.534-0.003-0.802 1.067 0 2.133 0 3.2 0 0.012-0.365-0.034-0.723-0.136-1.074-0.209-0.665-0.626-1.15-1.251-1.454-0.402-0.164-0.821-0.23-1.255-0.199zM26.356 17.983c0.337-0.031 0.57 0.108 0.701 0.418 0.065 0.181 0.107 0.366 0.125 0.558 0.026 0.269 0.039 0.538 0.038 0.809-0.509 0-1.018 0-1.527 0 0.001-0.361 0.032-0.718 0.094-1.074 0.027-0.158 0.081-0.307 0.16-0.446 0.098-0.147 0.234-0.235 0.408-0.265z"></path>
<path fill="#1e2c3a" style="fill: var(--color2, #1e2c3a)" opacity="0.996" d="M31.474 17.509c0.023 0 0.047 0 0.070 0-0.001 0.397 0 0.795 0.003 1.192 0.245-0.364 0.555-0.658 0.931-0.882 0.467-0.252 0.953-0.296 1.457-0.132 0.222 0.092 0.398 0.24 0.526 0.443 0.093 0.157 0.162 0.324 0.206 0.502 0.211-0.289 0.465-0.534 0.76-0.735 0.5-0.317 1.032-0.387 1.596-0.209 0.291 0.126 0.494 0.336 0.61 0.631 0.104 0.277 0.166 0.562 0.188 0.858 0.009 0.104 0.016 0.209 0.021 0.314 0.002 0.788 0.005 1.576 0.007 2.363-0.002 0.145 0.023 0.284 0.077 0.418 0.048 0.080 0.117 0.135 0.206 0.164 0.079 0.031 0.16 0.051 0.244 0.059 0 0.158 0 0.316 0 0.474-0.881 0-1.762 0-2.642 0 0-0.158 0-0.316 0-0.474 0.136-0.008 0.262-0.049 0.376-0.122 0.061-0.053 0.099-0.119 0.115-0.199 0.019-0.085 0.031-0.171 0.035-0.258 0.005-0.864 0.005-1.729 0-2.593-0-0.202-0.031-0.4-0.091-0.593-0.087-0.196-0.238-0.289-0.453-0.279-0.177-0.002-0.334 0.052-0.471 0.164-0.147 0.137-0.255 0.301-0.324 0.491-0.099 0.287-0.15 0.582-0.153 0.885-0.005 0.634-0.005 1.269 0 1.903 0.003 0.109 0.019 0.216 0.049 0.321 0.024 0.073 0.067 0.132 0.129 0.178 0.108 0.062 0.224 0.096 0.349 0.101 0 0.158 0 0.316 0 0.474-0.883 0-1.766 0-2.649 0 0-0.158 0-0.316 0-0.474 0.134-0.006 0.257-0.044 0.37-0.115 0.090-0.081 0.14-0.182 0.15-0.303 0.006-0.039 0.011-0.079 0.014-0.119 0.005-0.904 0.005-1.808 0-2.712-0.005-0.171-0.032-0.339-0.084-0.502-0.084-0.204-0.237-0.302-0.46-0.293-0.261 0.004-0.468 0.111-0.62 0.321-0.128 0.184-0.216 0.386-0.265 0.607-0.038 0.17-0.061 0.342-0.070 0.516-0.005 0.688-0.005 1.376 0 2.064 0.003 0.127 0.036 0.245 0.098 0.356 0.068 0.074 0.15 0.124 0.247 0.15 0.062 0.018 0.124 0.028 0.188 0.031 0 0.158 0 0.316 0 0.474-0.883 0-1.766 0-2.649 0 0-0.158 0-0.316 0-0.474 0.13-0.014 0.251-0.054 0.363-0.122 0.044-0.035 0.078-0.078 0.101-0.129 0.041-0.115 0.062-0.233 0.063-0.356 0.005-1.074 0.005-2.147 0-3.221-0.002-0.114-0.025-0.223-0.070-0.328-0.058-0.088-0.141-0.141-0.247-0.157-0.080-0.018-0.162-0.026-0.244-0.024 0-0.163 0-0.325 0-0.488 0.651-0.033 1.299-0.087 1.945-0.16z"></path>
<path fill="#1e2c3a" style="fill: var(--color2, #1e2c3a)" opacity="0.995" d="M41.025 17.509c0.026 0 0.051 0 0.077 0-0.003 1.508 0 3.017 0.010 4.525 0.009 0.1 0.039 0.193 0.091 0.279 0.096 0.093 0.211 0.15 0.345 0.171 0.025 0.007 0.051 0.010 0.077 0.010 0 0.158 0 0.316 0 0.474-0.89 0-1.78 0-2.67 0 0-0.158 0-0.316 0-0.474 0.147-0.014 0.279-0.064 0.397-0.15 0.068-0.084 0.106-0.18 0.115-0.289 0.006-0.053 0.011-0.107 0.014-0.16 0.005-1.076 0.005-2.152 0-3.228-0-0.122-0.026-0.238-0.077-0.349-0.059-0.076-0.137-0.122-0.234-0.136-0.083-0.018-0.166-0.026-0.251-0.024 0-0.163 0-0.325 0-0.488 0.705-0.030 1.406-0.084 2.105-0.16z"></path>
<path fill="#1e2c3a" style="fill: var(--color2, #1e2c3a)" opacity="0.994" d="M50.583 17.509c-0.242 0.015-0.481 0.054-0.718 0.115-0.316 0.083-0.597 0.229-0.844 0.439-0.178 0.16-0.289 0.359-0.331 0.596-0.057 0.356 0.067 0.627 0.373 0.812 0.184 0.085 0.377 0.116 0.579 0.091 0.258-0.027 0.457-0.149 0.596-0.366 0.096-0.204 0.103-0.411 0.021-0.62-0.067-0.116-0.137-0.23-0.209-0.342-0.024-0.030-0.029-0.063-0.014-0.098 0.033-0.037 0.071-0.066 0.115-0.087 0.197-0.081 0.401-0.109 0.614-0.084 0.148 0.010 0.287 0.049 0.418 0.119 0.142 0.090 0.236 0.216 0.282 0.38 0.044 0.15 0.069 0.304 0.077 0.46 0.009 0.321 0.013 0.641 0.010 0.962-0.126 0.006-0.251 0.017-0.376 0.031-0.503 0.048-0.993 0.153-1.471 0.314-0.281 0.096-0.536 0.236-0.767 0.418-0.194 0.159-0.337 0.356-0.429 0.589-0.131 0.375-0.124 0.747 0.021 1.115 0.239 0.468 0.621 0.727 1.147 0.777 0.443 0.027 0.857-0.070 1.241-0.293 0.267-0.153 0.512-0.335 0.736-0.547 0.045 0.122 0.1 0.238 0.167 0.349 0.136 0.219 0.33 0.357 0.582 0.415 0.449 0.077 0.853-0.023 1.213-0.3 0.087-0.064 0.153-0.144 0.199-0.241 0.016-0.050 0.021-0.101 0.014-0.153-0.029-0.085-0.089-0.126-0.178-0.122-0.096 0.031-0.191 0.064-0.286 0.098-0.17 0.018-0.255-0.060-0.254-0.234-0-0.967-0.005-1.934-0.014-2.9-0.065-0.883-0.529-1.421-1.391-1.614-0.371-0.073-0.745-0.099-1.122-0.080zM51.51 20.326c0.014 0 0.028 0 0.042 0 0.016 0.276 0.018 0.553 0.004 0.83-0.014 0.222-0.063 0.436-0.146 0.641-0.14 0.302-0.377 0.451-0.711 0.446-0.392-0.001-0.625-0.194-0.697-0.579-0.044-0.396 0.092-0.714 0.408-0.952 0.245-0.161 0.512-0.27 0.802-0.328 0.101-0.020 0.201-0.040 0.3-0.059z"></path>
</symbol>
<symbol id="icon-flag-gb" viewBox="0 0 32 32">
<path fill="#f8f8fc" style="fill: var(--color11, #f8f8fc)" d="M-0.471 4.235c0.941 0 1.882 0 2.824 0 3 2.061 5.981 4.257 8.941 6.588 0.467-2.174 0.624-4.37 0.471-6.588 0.314 0 0.627 0 0.941 0 0 2.824 0 5.647 0 8.471-4.392 0-8.784 0-13.176 0 0-0.314 0-0.627 0-0.941 2.218 0.154 4.414-0.003 6.588-0.471-2.223-1.422-4.419-2.833-6.588-4.235 0-0.941 0-1.882 0-2.824z"></path>
<path fill="#2015a8" style="fill: var(--color12, #2015a8)" d="M2.353 4.235c3.137 0 6.274 0 9.412 0 0.154 2.218-0.003 4.414-0.471 6.588-2.96-2.331-5.941-4.527-8.941-6.588z"></path>
<path fill="#e5243c" style="fill: var(--color13, #e5243c)" d="M12.706 4.235c1.882 0 3.765 0 5.647 0 0 2.824 0 5.647 0 8.471 4.392 0 8.784 0 13.176 0 0 1.882 0 3.765 0 5.647-4.392 0-8.784 0-13.176 0 0 2.824 0 5.647 0 8.471-1.882 0-3.765 0-5.647 0 0-2.824 0-5.647 0-8.471-4.392 0-8.784 0-13.176 0 0-1.882 0-3.765 0-5.647 4.392 0 8.784 0 13.176 0 0-2.824 0-5.647 0-8.471z"></path>
<path fill="#f5f5fb" style="fill: var(--color14, #f5f5fb)" d="M18.353 4.235c0.314 0 0.627 0 0.941 0-0.281 1.98 0.032 3.863 0.941 5.647 2.574-1.902 5.084-3.784 7.529-5.647 1.255 0 2.51 0 3.765 0 0 0.941 0 1.882 0 2.824-8.102 3.274-8.102 4.842 0 4.706 0 0.314 0 0.627 0 0.941-4.392 0-8.784 0-13.176 0 0-2.824 0-5.647 0-8.471z"></path>
<path fill="#1f14a8" style="fill: var(--color15, #1f14a8)" d="M19.294 4.235c2.824 0 5.647 0 8.471 0-2.446 1.863-4.956 3.745-7.529 5.647-0.909-1.785-1.223-3.667-0.941-5.647z"></path>
<path fill="#140da6" style="fill: var(--color16, #140da6)" d="M31.529 7.059c0 1.569 0 3.137 0 4.706-8.102 0.136-8.102-1.432 0-4.706z"></path>
<path fill="#1d14a8" style="fill: var(--color17, #1d14a8)" d="M-0.471 7.059c2.169 1.402 4.366 2.814 6.588 4.235-2.174 0.467-4.37 0.624-6.588 0.471 0-1.569 0-3.137 0-4.706z"></path>
<path fill="#f5f4fb" style="fill: var(--color18, #f5f4fb)" d="M-0.471 19.294c0-0.314 0-0.627 0-0.941 4.392 0 8.784 0 13.176 0 0 2.824 0 5.647 0 8.471-0.314 0-0.627 0-0.941 0 0.281-1.98-0.032-3.863-0.941-5.647-2.816 1.573-5.326 3.455-7.529 5.647-1.255 0-2.51 0-3.765 0 0-0.941 0-1.882 0-2.824 8.142-3.312 8.142-4.88 0-4.706z"></path>
<path fill="#f8f8fc" style="fill: var(--color11, #f8f8fc)" d="M31.529 18.353c0 0.314 0 0.627 0 0.941-2.218-0.154-4.414 0.003-6.588 0.471 2.223 1.422 4.419 2.834 6.588 4.235 0 0.941 0 1.882 0 2.824-0.941 0-1.882 0-2.824 0-3-2.061-5.981-4.257-8.941-6.588-0.467 2.174-0.624 4.37-0.471 6.588-0.314 0-0.627 0-0.941 0 0-2.824 0-5.647 0-8.471 4.392 0 8.784 0 13.176 0z"></path>
<path fill="#1c14a8" style="fill: var(--color19, #1c14a8)" d="M31.529 19.294c0 1.569 0 3.137 0 4.706-2.169-1.402-4.366-2.814-6.588-4.235 2.174-0.467 4.37-0.624 6.588-0.471z"></path>
<path fill="#1810a7" style="fill: var(--color20, #1810a7)" d="M11.765 26.824c-2.824 0-5.647 0-8.471 0 2.204-2.192 4.713-4.074 7.529-5.647 0.909 1.784 1.223 3.667 0.941 5.647z"></path>
<path fill="#2015a8" style="fill: var(--color12, #2015a8)" d="M28.706 26.824c-3.137 0-6.275 0-9.412 0-0.154-2.218 0.003-4.414 0.471-6.588 2.96 2.331 5.941 4.527 8.941 6.588z"></path>
</symbol>
<symbol id="icon-flag-ru" viewBox="0 0 32 32">
<path fill="#fefffe" style="fill: var(--color21, #fefffe)" d="M-0.471 4.235c10.667 0 21.333 0 32 0 0 2.51 0 5.020 0 7.529-10.667 0-21.333 0-32 0 0-2.51 0-5.020 0-7.529z"></path>
<path fill="#0c46b7" style="fill: var(--color22, #0c46b7)" d="M-0.471 11.765c10.667 0 21.333 0 32 0 0 2.51 0 5.020 0 7.529-10.667 0-21.333 0-32 0 0-2.51 0-5.020 0-7.529z"></path>
<path fill="#e83830" style="fill: var(--color23, #e83830)" d="M-0.471 19.294c10.667 0 21.333 0 32 0 0 2.51 0 5.020 0 7.529-10.667 0-21.333 0-32 0 0-2.51 0-5.020 0-7.529z"></path>
</symbol>
<symbol id="icon-flag-ua" viewBox="0 0 32 32">
<path fill="#0158bb" style="fill: var(--color24, #0158bb)" d="M-0.471 4.235c10.667 0 21.333 0 32 0 0 3.765 0 7.529 0 11.294-10.667 0-21.333 0-32 0 0-3.765 0-7.529 0-11.294z"></path>
<path fill="#fed400" style="fill: var(--color25, #fed400)" d="M-0.471 15.529c10.667 0 21.333 0 32 0 0 3.765 0 7.529 0 11.294-10.667 0-21.333 0-32 0 0-3.765 0-7.529 0-11.294z"></path>
</symbol>
<symbol id="icon-phone" viewBox="0 0 32 32">
<path fill="#fefffe" style="fill: var(--color21, #fefffe)" opacity="0.95" d="M1.667-0.333c-0.444 0.889-1.111 1.556-2 2 0 9.333 0 18.667 0 28 0.889 0.444 1.556 1.111 2 2 9.333 0 18.667 0 28 0 0.444-0.889 1.111-1.556 2-2 0-9.333 0-18.667 0-28-0.889-0.444-1.556-1.111-2-2-9.333 0-18.667 0-28 0zM11.667 3c0.984 2.57 0.762 5.125-0.667 7.667 1.352 3.925 2.796 7.814 4.333 11.667 2.517 0.888 4.406 2.554 5.667 5-2 0.444-4 0.444-6 0-5.264-6.014-7.597-13.014-7-21 1.552-0.776 2.775-1.887 3.667-3.333zM21 23.667c-1.056-0.335-1.39-1.002-1-2 0.692 0.496 1.026 1.163 1 2z"></path>
</symbol>
<symbol id="icon-email" viewBox="0 0 32 32">
<path fill="#e20613" style="fill: var(--color3, #e20613)" d="M0.444 4c10.074 0 20.148 0 30.222 0 0 7.704 0 15.407 0 23.111-10.074 0-20.148 0-30.222 0 0-7.704 0-15.407 0-23.111z"></path>
<path fill="#9d898a" style="fill: var(--color4, #9d898a)" d="M1.333 6.667c3.269 1.047 5.936 2.972 8 5.778-2.263 3.79-4.634 7.493-7.111 11.111-0.88-5.462-1.176-11.091-0.889-16.889z"></path>
<path fill="#9d8a8a" style="fill: var(--color5, #9d8a8a)" d="M29.778 6.667c0 5.63 0 11.259 0 16.889-3.197-3.267-5.864-6.971-8-11.111 2.064-2.805 4.731-4.731 8-5.778z"></path>
<path fill="#969292" style="fill: var(--color6, #969292)" d="M28 24.444c-8.296 1.185-16.593 1.185-24.889 0 0-0.296 0-0.593 0-0.889 2.46-2.97 4.83-6.081 7.111-9.333 0.889-0.593 1.778-0.593 2.667 0 0.759 0.908 1.648 1.649 2.667 2.222 1.222-1.077 2.555-1.966 4-2.667 3.44 3.012 6.255 6.567 8.444 10.667z"></path>
<path fill="#d22d30" style="fill: var(--color7, #d22d30)" d="M29.778 6.667c-3.269 1.047-5.936 2.972-8 5.778 2.136 4.141 4.803 7.844 8 11.111 0 0.593-0.296 0.889-0.889 0.889-0.296 0-0.593 0-0.889 0-2.189-4.099-5.004-7.655-8.444-10.667-1.445 0.701-2.778 1.59-4 2.667-1.019-0.573-1.908-1.314-2.667-2.222-0.889-0.593-1.778-0.593-2.667 0-2.281 3.252-4.651 6.363-7.111 9.333-0.296 0-0.593 0-0.889 0 2.477-3.618 4.848-7.322 7.111-11.111-2.064-2.805-4.731-4.731-8-5.778 0.371-0.641 0.964-1.086 1.778-1.333 8.296-0.593 16.593-0.593 24.889 0 0.814 0.247 1.407 0.692 1.778 1.333z"></path>
<path fill="#979292" style="fill: var(--color8, #979292)" d="M4 6.667c7.547-1.028 15.25-1.177 23.111-0.444-3.977 2.643-7.828 5.458-11.556 8.444-3.639-3.059-7.491-5.725-11.556-8z"></path>
<path fill="#bf484f" style="fill: var(--color9, #bf484f)" d="M3.111 24.444c8.296 1.185 16.593 1.185 24.889 0 0.296 0 0.593 0 0.889 0-4.106 1.18-8.551 1.773-13.333 1.778-4.444-0.296-8.889-0.593-13.333-0.889 0.11-0.539 0.406-0.836 0.889-0.889z"></path>
</symbol>
<symbol id="icon-facebook" viewBox="0 0 32 32">
<path fill="#004799" style="fill: var(--color10, #004799)" opacity="0.86" d="M12.8-0.64c3.84 0 7.68 0 11.52 0 0 1.28 0 2.56 0 3.84-1.879 1.752-4.013 3.246-6.4 4.48 1.213 0.618 2.493 0.831 3.84 0.64 0 2.56 0 5.12 0 7.68-1.28 0-2.56 0-3.84 0 0 4.693 0 9.387 0 14.080-2.987 0-5.973 0-8.96 0 0.743-5.311-0.111-10.004-2.56-14.080 0-2.56 0-5.12 0-7.68 1.122 0.168 1.975-0.259 2.56-1.28 0.805-2.868 2.085-5.428 3.84-7.68z"></path>
</symbol>
<symbol id="icon-instagram" viewBox="0 0 32 32">
<path fill="#fff500" style="fill: var(--color26, #fff500)" opacity="0.954" d="M5.778 0.889c6.815 0 13.63 0 20.444 0 0.296 0.593 0.593 1.185 0.889 1.778-7.407 0-14.815 0-22.222 0 0.296-0.593 0.593-1.185 0.889-1.778z"></path>
<path fill="#ffde00" style="fill: var(--color27, #ffde00)" opacity="0.968" d="M4.889 2.667c7.407 0 14.815 0 22.222 0 1.185 0 1.778 0.593 1.778 1.778-2.37 0-4.741 0-7.111 0-3.852 0-7.704 0-11.556 0-2.37 0-4.741 0-7.111 0 0-1.185 0.593-1.778 1.778-1.778z"></path>
<path fill="#ffc500" style="fill: var(--color28, #ffc500)" opacity="0.682" d="M3.111 4.444c2.37 0 4.741 0 7.111 0-1.041 0.751-2.226 1.343-3.556 1.778-1.778 0-3.556 0-5.333 0 0.296-0.889 0.889-1.481 1.778-1.778z"></path>
<path fill="#ffc500" style="fill: var(--color28, #ffc500)" opacity="0.683" d="M21.778 4.444c2.37 0 4.741 0 7.111 0 0.889 0.296 1.482 0.889 1.778 1.778-1.778 0-3.556 0-5.333 0-1.329-0.434-2.514-1.027-3.556-1.778z"></path>
<path fill="#ff9c00" style="fill: var(--color29, #ff9c00)" opacity="0.854" d="M1.333 6.222c1.778 0 3.556 0 5.333 0-0.296 0.593-0.593 1.185-0.889 1.778-1.481 0-2.963 0-4.444 0 0-0.593 0-1.185 0-1.778z"></path>
<path fill="#e20612" style="fill: var(--color30, #e20612)" d="M22.667 9.778c-0.593 0-0.889-0.296-0.889-0.889 0.285-1.376 1.174-1.969 2.667-1.778 0.191 1.492-0.402 2.381-1.778 2.667z"></path>
<path fill="#ff9b00" style="fill: var(--color31, #ff9b00)" opacity="0.837" d="M25.333 6.222c1.778 0 3.556 0 5.333 0 0 0.593 0 1.185 0 1.778-1.482 0-2.963 0-4.444 0-0.296-0.593-0.593-1.185-0.889-1.778z"></path>
<path fill="#ff7600" style="fill: var(--color32, #ff7600)" opacity="0.799" d="M1.333 8c1.482 0 2.963 0 4.444 0 0.152 0.881-0.144 1.474-0.889 1.778-1.185 0-2.37 0-3.556 0 0-0.593 0-1.185 0-1.778z"></path>
<path fill="#ff7a00" style="fill: var(--color33, #ff7a00)" opacity="0.818" d="M21.778 8.889c0 0.593 0.296 0.889 0.889 0.889 0 0.296 0 0.593 0 0.889-4.148 0-8.296 0-12.444 0 0.496-1.147 1.385-1.887 2.667-2.222 3.012-0.586 5.975-0.438 8.889 0.444z"></path>
<path fill="#ff7600" style="fill: var(--color32, #ff7600)" opacity="0.801" d="M26.222 8c1.482 0 2.963 0 4.444 0 0 0.593 0 1.185 0 1.778-1.185 0-2.37 0-3.556 0-0.745-0.304-1.041-0.896-0.889-1.778z"></path>
<path fill="#ffac00" style="fill: var(--color34, #ffac00)" opacity="0.784" d="M10.222 10.667c4.148 0 8.296 0 12.444 0 1.25 0.421 1.843 1.309 1.778 2.667-1.482 0-2.963 0-4.444 0-1.971-0.772-4.045-1.068-6.222-0.889-1.778 0-3.556 0-5.333 0 0.296-0.889 0.889-1.482 1.778-1.778z"></path>
<path fill="#ffd300" style="fill: var(--color35, #ffd300)" opacity="0.902" d="M8.444 12.444c1.778 0 3.556 0 5.333 0-0.296 0.593-0.593 1.185-0.889 1.778-1.482 0-2.963 0-4.444 0 0-0.593 0-1.185 0-1.778z"></path>
<path fill="#fc2001" style="fill: var(--color36, #fc2001)" d="M1.333 9.778c1.185 0 2.37 0 3.556 0 0 2.667 0 5.333 0 8-1.185 0-2.37 0-3.556 0 0-2.667 0-5.333 0-8z"></path>
<path fill="#fff700" style="fill: var(--color37, #fff700)" opacity="0.809" d="M8.444 14.222c1.482 0 2.963 0 4.444 0 0 1.482 0 2.963 0 4.444-1.482 0-2.963 0-4.444 0 0-1.482 0-2.963 0-4.444z"></path>
<path fill="#fff500" style="fill: var(--color26, #fff500)" opacity="0.812" d="M20 13.333c1.482 0 2.963 0 4.444 0 0 1.778 0 3.556 0 5.333-1.482 0-2.963 0-4.444 0 0-1.778 0-3.556 0-5.333z"></path>
<path fill="#fc2001" style="fill: var(--color36, #fc2001)" d="M27.111 9.778c1.185 0 2.37 0 3.556 0 0 2.667 0 5.333 0 8-1.185 0-2.37 0-3.556 0 0-2.667 0-5.333 0-8z"></path>
<path fill="#db001a" style="fill: var(--color38, #db001a)" d="M1.333 17.778c1.185 0 2.37 0 3.556 0 0 0.593 0 1.185 0 1.778-1.185 0-2.37 0-3.556 0 0-0.593 0-1.185 0-1.778z"></path>
<path fill="#db001a" style="fill: var(--color38, #db001a)" d="M27.111 17.778c1.185 0 2.37 0 3.556 0 0 0.593 0 1.185 0 1.778-1.185 0-2.37 0-3.556 0 0-0.593 0-1.185 0-1.778z"></path>
<path fill="#ffc900" style="fill: var(--color39, #ffc900)" opacity="0.642" d="M8.444 18.667c1.482 0 2.963 0 4.444 0 2.37 1.185 4.741 1.185 7.111 0 1.482 0 2.963 0 4.444 0 0.065 1.357-0.528 2.246-1.778 2.667-4.148 0-8.296 0-12.444 0-1.25-0.421-1.843-1.309-1.778-2.667z"></path>
<path fill="#bb0030" style="fill: var(--color40, #bb0030)" d="M1.333 19.556c1.185 0 2.37 0 3.556 0 0 0.593 0 1.185 0 1.778-1.185 0-2.37 0-3.556 0 0-0.593 0-1.185 0-1.778z"></path>
<path fill="#bb0030" style="fill: var(--color40, #bb0030)" d="M27.111 19.556c1.185 0 2.37 0 3.556 0 0 0.593 0 1.185 0 1.778-1.185 0-2.37 0-3.556 0 0-0.593 0-1.185 0-1.778z"></path>
<path fill="#98004a" style="fill: var(--color41, #98004a)" opacity="0.814" d="M1.333 21.333c1.185 0 2.37 0 3.556 0 0.745 0.304 1.041 0.896 0.889 1.778-1.481 0-2.963 0-4.444 0 0-0.593 0-1.185 0-1.778z"></path>
<path fill="#ff8c01" style="fill: var(--color42, #ff8c01)" opacity="0.823" d="M10.222 21.333c4.148 0 8.296 0 12.444 0-1.383 2.212-3.457 3.101-6.222 2.667-2.765 0.434-4.839-0.455-6.222-2.667z"></path>
<path fill="#98004a" style="fill: var(--color41, #98004a)" opacity="0.82" d="M27.111 21.333c1.185 0 2.37 0 3.556 0 0 0.593 0 1.185 0 1.778-1.482 0-2.963 0-4.444 0-0.153-0.881 0.144-1.474 0.889-1.778z"></path>
<path fill="#730065" style="fill: var(--color43, #730065)" opacity="0.752" d="M1.333 23.111c1.482 0 2.963 0 4.444 0 0.296 0.593 0.593 1.185 0.889 1.778-1.778 0-3.556 0-5.333 0 0-0.593 0-1.185 0-1.778z"></path>
<path fill="#730065" style="fill: var(--color43, #730065)" opacity="0.752" d="M26.222 23.111c1.482 0 2.963 0 4.444 0 0 0.593 0 1.185 0 1.778-1.778 0-3.556 0-5.333 0 0.296-0.593 0.593-1.185 0.889-1.778z"></path>
<path fill="#4f007f" style="fill: var(--color44, #4f007f)" d="M1.333 24.889c1.778 0 3.556 0 5.333 0 1.329 0.434 2.514 1.027 3.556 1.778-2.37 0-4.741 0-7.111 0-0.889-0.296-1.482-0.889-1.778-1.778z"></path>
<path fill="#4f007f" style="fill: var(--color44, #4f007f)" opacity="0.683" d="M25.333 24.889c1.778 0 3.556 0 5.333 0-0.296 0.889-0.889 1.482-1.778 1.778-2.37 0-4.741 0-7.111 0 1.041-0.751 2.227-1.343 3.556-1.778z"></path>
<path fill="#300096" style="fill: var(--color45, #300096)" opacity="0.903" d="M3.111 26.667c2.37 0 4.741 0 7.111 0 3.852 0 7.704 0 11.556 0 2.37 0 4.741 0 7.111 0 0 1.185-0.593 1.778-1.778 1.778-7.407 0-14.815 0-22.222 0-1.185 0-1.778-0.593-1.778-1.778z"></path>
<path fill="#1600a8" style="fill: var(--color46, #1600a8)" d="M4.889 28.444c7.407 0 14.815 0 22.222 0-0.296 0.593-0.593 1.185-0.889 1.778-6.815 0-13.63 0-20.444 0-0.296-0.593-0.593-1.185-0.889-1.778z"></path>
</symbol>
<symbol id="icon-youtube" viewBox="0 0 32 32">
<path fill="#e20612" style="fill: var(--color30, #e20612)" opacity="0.962" d="M1.548 3.097c-0.344 1.032-1.032 1.72-2.065 2.065 0 6.882 0 13.763 0 20.645 1.032 0.344 1.72 1.032 2.065 2.065 9.29 0 18.581 0 27.871 0 0.344-1.032 1.032-1.72 2.065-2.065 0-6.882 0-13.763 0-20.645-1.032-0.344-1.72-1.032-2.065-2.065-9.29 0-18.581 0-27.871 0zM10.839 9.29c3.050 1.675 5.803 3.739 8.258 6.194-2.407 2.229-4.987 4.294-7.742 6.194-0.515-4.115-0.687-8.244-0.516-12.387z"></path>
</symbol>
<symbol id="icon-close" viewBox="0 0 32 32">
<path d="M32 3.223l-3.223-3.223-12.777 12.777-12.777-12.777-3.223 3.223 12.777 12.777-12.777 12.777 3.223 3.223 12.777-12.777 12.777 12.777 3.223-3.223-12.777-12.777 12.777-12.777z"></path>
</symbol>
<symbol id="icon-person" viewBox="0 0 32 32">
<path d="M16 16c2.947 0 5.333-2.387 5.333-5.333s-2.387-5.333-5.333-5.333c-2.947 0-5.333 2.387-5.333 5.333s2.387 5.333 5.333 5.333zM16 18.667c-3.56 0-10.667 1.787-10.667 5.333v1.333c0 0.733 0.6 1.333 1.333 1.333h18.667c0.733 0 1.333-0.6 1.333-1.333v-1.333c0-3.547-7.107-5.333-10.667-5.333z"></path>
</symbol>
<symbol id="icon-burger" viewBox="0 0 47 32">
<path stroke-linejoin="round" stroke-linecap="round" stroke-miterlimit="4" stroke-width="4.3636" d="M1.96 29.154h42.965M1.96 15.615h42.965M1.96 2.077h42.965"></path>
</symbol>
<symbol id="icon-lupa" viewBox="0 0 32 32">
<path d="M31.121 26.879l-7.341-7.342c-1.094 1.701-2.541 3.148-4.243 4.242l7.342 7.342c1.172 1.172 3.072 1.172 4.242 0 1.172-1.17 1.172-3.070 0-4.242z"></path>
<path d="M24 12c0-6.627-5.373-12-12-12s-12 5.373-12 12 5.373 12 12 12c6.627 0 12-5.373 12-12zM12 21c-4.963 0-9-4.037-9-9s4.037-9 9-9c4.963 0 9 4.037 9 9s-4.037 9-9 9z"></path>
<path d="M5 12h2c0-2.757 2.243-5 5-5v-2c-3.859 0-7 3.141-7 7z"></path>
</symbol>
</defs>
</svg>