<svg aria-hidden="true" style="position: absolute; width: 0; height: 0; overflow: hidden;" version="1.1" xmlns="http://www.w3.org/2000/svg" xmlns:xlink="http://www.w3.org/1999/xlink">
<defs>
<symbol id="icon-flag-gb" viewBox="0 0 32 32">
<path fill="#fff" style="fill: var(--color1, #fff)" d="M2.286 4.571h27.429c1.262 0 2.286 1.023 2.286 2.286v18.286c0 1.262-1.023 2.286-2.286 2.286h-27.429c-1.262 0-2.286-1.023-2.286-2.286v-18.286c0-1.262 1.023-2.286 2.286-2.286z"></path>
<path fill="#0a17a7" style="fill: var(--color2, #0a17a7)" d="M0 4.571h32v22.857h-32v-22.857z"></path>
<path fill="#fff" style="fill: var(--color1, #fff)" d="M-1.466 2.381l13.656 9.211v-8.545h7.619v8.545l13.656-9.211 1.704 2.527-10.797 7.283h7.627v7.619h-7.627l10.797 7.283-1.704 2.527-13.656-9.211v8.545h-7.619v-8.545l-13.656 9.211-1.704-2.527 10.797-7.283h-7.627v-7.619h7.627l-10.797-7.283 1.704-2.527z"></path>
<path fill="#e6273e" style="fill: var(--color3, #e6273e)" d="M0 18.286h13.714v9.143h4.571v-9.143h13.714v-4.571h-13.714v-9.143h-4.571v9.143h-13.714v4.571z"></path>
</symbol>
<symbol id="icon-flag-ru" viewBox="0 0 32 32">
<path fill="#fff" style="fill: var(--color1, #fff)" d="M2.286 4.857h27.429c1.105 0 2 0.895 2 2v18.286c0 1.105-0.895 2-2 2h-27.429c-1.105 0-2-0.895-2-2v-18.286c0-1.105 0.895-2 2-2z"></path>
<path fill="#0c47b7" style="fill: var(--color4, #0c47b7)" d="M0 19.809h32v-7.619h-32v7.619z"></path>
<path fill="#e53b35" style="fill: var(--color5, #e53b35)" d="M0 27.429h32v-7.619h-32v7.619z"></path>
</symbol>
<symbol id="icon-flag-ua" viewBox="0 0 32 32">
<path fill="#fff" style="fill: var(--color1, #fff)" d="M2.286 4.571h27.429c1.262 0 2.286 1.023 2.286 2.286v18.286c0 1.262-1.023 2.286-2.286 2.286h-27.429c-1.262 0-2.286-1.023-2.286-2.286v-18.286c0-1.262 1.023-2.286 2.286-2.286z"></path>
<path fill="#156dd1" style="fill: var(--color6, #156dd1)" d="M0 16.762h32v-12.191h-32v12.191z"></path>
<path fill="#ffd948" style="fill: var(--color7, #ffd948)" d="M0 27.429h32v-10.667h-32v10.667z"></path>
</symbol>
<symbol id="icon-phone" viewBox="0 0 32 32">
<path d="M20.742 19.397l-0.607 0.639c0 0-1.443 1.52-5.383-2.628s-2.497-5.668-2.497-5.668l0.382-0.403c0.942-0.992 1.031-2.584 0.209-3.747l-1.681-2.378c-1.017-1.439-2.983-1.629-4.149-0.401l-2.093 2.203c-0.578 0.609-0.966 1.398-0.919 2.273 0.12 2.239 1.077 7.057 6.417 12.679 5.662 5.961 10.975 6.198 13.148 5.984 0.687-0.068 1.285-0.438 1.766-0.945l1.894-1.994c1.279-1.346 0.918-3.654-0.718-4.595l-2.547-1.466c-1.074-0.618-2.383-0.437-3.222 0.447z"></path>
<path d="M17.679 2.506c0.088-0.545 0.604-0.915 1.149-0.827 0.034 0.006 0.142 0.027 0.199 0.039 0.114 0.025 0.273 0.064 0.47 0.122 0.396 0.115 0.949 0.305 1.612 0.609 1.328 0.609 3.096 1.674 4.931 3.509s2.9 3.602 3.509 4.931c0.304 0.663 0.494 1.216 0.609 1.612 0.058 0.198 0.097 0.357 0.122 0.47 0.013 0.057 0.022 0.103 0.028 0.136l0.008 0.042c0.088 0.545-0.278 1.082-0.823 1.17-0.544 0.088-1.056-0.28-1.146-0.823-0.003-0.015-0.011-0.054-0.019-0.091-0.017-0.074-0.045-0.191-0.090-0.346-0.090-0.31-0.247-0.77-0.507-1.338-0.52-1.134-1.454-2.699-3.105-4.35s-3.216-2.585-4.35-3.105c-0.568-0.26-1.028-0.417-1.338-0.507-0.155-0.045-0.349-0.090-0.423-0.106-0.543-0.090-0.924-0.605-0.836-1.149z"></path>
<path d="M17.981 7.106c0.152-0.531 0.705-0.839 1.236-0.687l-0.275 0.962c0.275-0.962 0.275-0.962 0.275-0.962l0.002 0.001 0.006 0.002 0.010 0.003 0.026 0.008c0.020 0.006 0.045 0.015 0.075 0.025 0.060 0.021 0.139 0.051 0.236 0.093 0.194 0.083 0.46 0.212 0.786 0.405 0.653 0.386 1.543 1.028 2.59 2.074s1.688 1.938 2.074 2.59c0.193 0.326 0.321 0.591 0.405 0.786 0.042 0.097 0.072 0.176 0.093 0.236 0.011 0.030 0.019 0.055 0.025 0.075l0.008 0.026 0.003 0.010 0.001 0.004 0.001 0.002c0 0 0.001 0.002-0.961 0.277l0.962-0.275c0.152 0.531-0.156 1.084-0.687 1.236-0.527 0.15-1.075-0.151-1.232-0.673l-0.005-0.014c-0.007-0.020-0.022-0.059-0.046-0.117-0.049-0.115-0.139-0.303-0.288-0.555-0.297-0.502-0.834-1.261-1.768-2.195s-1.692-1.47-2.195-1.768c-0.251-0.149-0.44-0.238-0.555-0.288-0.058-0.025-0.097-0.039-0.117-0.046l-0.014-0.005c-0.523-0.157-0.824-0.706-0.673-1.232z"></path>
</symbol>
<symbol id="icon-email" viewBox="0 0 32 32">
<path d="M32 7.138v19.826l-7.736-9.669-1.47 1.176 7.811 9.765h-29.211l7.811-9.765-1.47-1.176-7.736 9.669v-19.826l15.999 13.874 16.001-13.874zM31.999 3.767v0.877l-15.999 13.874-15.999-13.874v-0.877h31.998z"></path>
</symbol>
<symbol id="icon-facebook" viewBox="0 0 32 32">
<path d="M21.95 5.005l-3.306-0.004c-3.206 0-5.277 2.124-5.277 5.415v2.495h-3.317v4.515h3.317l-0.004 9.575h4.641l0.004-9.575h3.806l-0.003-4.514h-3.803v-2.117c0-1.018 0.241-1.533 1.566-1.533l2.366-0.001 0.010-4.256z"></path>
</symbol>
<symbol id="icon-instagram" viewBox="0 0 32 32">
<path d="M16 24c-4.418 0-8-3.582-8-8s3.582-8 8-8c4.418 0 8 3.582 8 8s-3.582 8-8 8zM16 21.333c2.945 0 5.333-2.388 5.333-5.333s-2.388-5.333-5.333-5.333c-2.946 0-5.333 2.388-5.333 5.333s2.388 5.333 5.333 5.333z"></path>
<path d="M24 6.667c-0.736 0-1.333 0.597-1.333 1.333s0.597 1.333 1.333 1.333c0.736 0 1.333-0.597 1.333-1.333s-0.597-1.333-1.333-1.333z"></path>
<path d="M2.205 5.701c0.767-1.505 1.991-2.729 3.496-3.496 1.711-0.872 3.951-0.872 8.432-0.872h3.733c4.48 0 6.721 0 8.432 0.872 1.505 0.767 2.729 1.991 3.496 3.496 0.872 1.711 0.872 3.951 0.872 8.432v3.733c0 4.48 0 6.721-0.872 8.432-0.767 1.505-1.991 2.729-3.496 3.496-1.711 0.872-3.951 0.872-8.432 0.872h-3.733c-4.48 0-6.721 0-8.432-0.872-1.505-0.767-2.729-1.991-3.496-3.496-0.872-1.711-0.872-3.951-0.872-8.432v-3.733c0-4.48 0-6.721 0.872-8.432zM17.867 4h-3.733c-2.284 0-3.837 0.002-5.037 0.1-1.169 0.096-1.767 0.269-2.184 0.481-1.004 0.511-1.819 1.327-2.331 2.331-0.213 0.417-0.386 1.015-0.481 2.184-0.098 1.2-0.1 2.753-0.1 5.037v3.733c0 2.284 0.002 3.837 0.1 5.037 0.096 1.169 0.269 1.767 0.481 2.184 0.511 1.003 1.327 1.819 2.331 2.331 0.417 0.213 1.015 0.386 2.184 0.481 1.2 0.098 2.753 0.1 5.037 0.1h3.733c2.284 0 3.837-0.002 5.037-0.1 1.169-0.095 1.767-0.269 2.184-0.481 1.003-0.511 1.819-1.327 2.331-2.331 0.213-0.417 0.386-1.015 0.481-2.184 0.098-1.2 0.1-2.753 0.1-5.037v-3.733c0-2.284-0.002-3.837-0.1-5.037-0.095-1.169-0.269-1.767-0.481-2.184-0.511-1.004-1.327-1.819-2.331-2.331-0.417-0.213-1.015-0.386-2.184-0.481-1.2-0.098-2.753-0.1-5.037-0.1z"></path>
</symbol>
<symbol id="icon-close" viewBox="0 0 32 32">
<path d="M32 3.223l-3.223-3.223-12.777 12.777-12.777-12.777-3.223 3.223 12.777 12.777-12.777 12.777 3.223 3.223 12.777-12.777 12.777 12.777 3.223-3.223-12.777-12.777 12.777-12.777z"></path>
</symbol>
<symbol id="icon-person" viewBox="0 0 32 32">
<path d="M16 16c2.947 0 5.333-2.387 5.333-5.333s-2.387-5.333-5.333-5.333c-2.947 0-5.333 2.387-5.333 5.333s2.387 5.333 5.333 5.333zM16 18.667c-3.56 0-10.667 1.787-10.667 5.333v1.333c0 0.733 0.6 1.333 1.333 1.333h18.667c0.733 0 1.333-0.6 1.333-1.333v-1.333c0-3.547-7.107-5.333-10.667-5.333z"></path>
</symbol>
</defs>
</svg>