<svg aria-hidden="true" style="position:absolute;width:0;height:0;overflow:hidden" xmlns="http://www.w3.org/2000/svg"><defs><symbol id="icon-logo" viewBox="0 0 55 32"><path fill="#fe0000" style="fill:var(--color1, #fe0000)" opacity=".997" d="M14.114.868c.513.683.835 1.45.966 2.301a3.85 3.85 0 0 1-.474 2.468 7.81 7.81 0 0 1-1.781 2.046 10.906 10.906 0 0 1-2.726 1.583c-.484.197-.976.369-1.478.516-.399.111-.798.218-1.199.321-.957.261-1.874.619-2.754 1.074a8.848 8.848 0 0 0-1.834 1.283 6.086 6.086 0 0 0-1.21 1.544c-.242.446-.403.92-.481 1.422a4.2 4.2 0 0 0-.021.223 6.842 6.842 0 0 1-.335-1.22 7.162 7.162 0 0 1-.07-2.182c.202-1.47.889-2.652 2.06-3.545.304-.227.625-.429.962-.607a53.493 53.493 0 0 1 3.625-1.694c.842-.354 1.683-.71 2.524-1.067a23.898 23.898 0 0 0 1.903-.913 7.915 7.915 0 0 0 1.304-.885c.323-.274.591-.591.805-.952a2.226 2.226 0 0 0 .213-1.715z"/><path fill="#fe0000" style="fill:var(--color1, #fe0000)" opacity=".996" d="M15.271 9.067a.463.463 0 0 1 .031.119 3.1 3.1 0 0 1-.328 1.841c-.215.407-.488.77-.819 1.091-.504.463-1.048.872-1.631 1.227-.605.365-1.232.69-1.882.976-.702.302-1.407.599-2.112.892-.478.204-.943.434-1.394.69a5.71 5.71 0 0 0-1.272.993 4.452 4.452 0 0 0-1.06 2.043 5.459 5.459 0 0 0 .216 3.374c.213.536.476 1.045.788 1.527.167.257.339.51.516.76.334.453.671.904 1.011 1.352.496.662.94 1.359 1.332 2.091.338.634.605 1.296.802 1.987.123.437.192.882.206 1.335 0 .071-.004.142-.014.213a3.22 3.22 0 0 0-.248-.76 8.463 8.463 0 0 0-.711-1.22 16.173 16.173 0 0 0-1.638-1.931 58.423 58.423 0 0 1-1.297-1.29 23.167 23.167 0 0 1-1.987-2.398 14.9 14.9 0 0 1-1.164-1.931 8.545 8.545 0 0 1-.676-1.861 4.929 4.929 0 0 1 .021-2.266 5.275 5.275 0 0 1 1.359-2.482 7.829 7.829 0 0 1 1.879-1.391 13.847 13.847 0 0 1 2.656-1.06c.158-.046.316-.09.474-.132a30.69 30.69 0 0 0 2.196-.6c.853-.269 1.676-.61 2.468-1.025a7.841 7.841 0 0 0 1.352-.913c.242-.207.457-.439.645-.694.093-.131.172-.27.237-.418a.866.866 0 0 0 .045-.139z"/><path fill="#1e2c3a" style="fill:var(--color2, #1e2c3a)" opacity=".992" d="M40.035 15.146c.286-.033.542.038.767.213.262.246.328.538.199.875a.791.791 0 0 1-.554.415c-.141.023-.283.03-.425.021a.857.857 0 0 1-.624-.338.755.755 0 0 1 .275-1.07.995.995 0 0 1 .363-.115z"/><path fill="#1e2c3a" style="fill:var(--color2, #1e2c3a)" opacity=".997" d="M44.274 15.146h.042c-.002 1.643 0 3.286.007 4.929l1.401-1.23a.607.607 0 0 0 .178-.227c.062-.165.015-.287-.143-.366a1.708 1.708 0 0 0-.509-.108v-.474h2.628v.474c-.394.043-.743.19-1.046.443-.337.284-.677.565-1.018.844.589.902 1.18 1.803 1.774 2.702a.959.959 0 0 0 .408.324c.05.019.101.032.153.038v.474h-2.761c-.001-.158.001-.316.007-.474a.835.835 0 0 0 .376-.101c.072-.069.087-.149.045-.241a1.057 1.057 0 0 0-.056-.105c-.374-.559-.747-1.119-1.119-1.68l-.321.272c-.01.444-.009.888.004 1.332a.748.748 0 0 0 .098.349.446.446 0 0 0 .241.143.803.803 0 0 0 .188.031v.474h-2.642v-.474a.87.87 0 0 0 .363-.122.381.381 0 0 0 .136-.247c.01-.046.017-.093.021-.139.011-1.859.014-3.718.007-5.577a.89.89 0 0 0-.07-.342.35.35 0 0 0-.241-.171.997.997 0 0 0-.272-.031v-.474a14.06 14.06 0 0 0 2.119-.244z"/><path fill="#1e2c3a" style="fill:var(--color2, #1e2c3a)" opacity=".993" d="M22.975 16.917a1.237 1.237 0 0 0-.749.404 3.33 3.33 0 0 0-.345.467 3.236 3.236 0 0 0-1.827-.247 2.38 2.38 0 0 0-1.199.502 1.56 1.56 0 0 0-.582 1.063c-.07.73.205 1.284.826 1.663a2.364 2.364 0 0 0-.568.443 1.03 1.03 0 0 0-.23.446.844.844 0 0 0 .275.826c.187.145.396.244.627.3l-.293.07c-.19.048-.371.117-.544.209a.926.926 0 0 0-.401.422.971.971 0 0 0 .181 1.018c.201.203.435.36.701.471.436.172.89.265 1.359.279a6.022 6.022 0 0 0 1.59-.125 2.981 2.981 0 0 0 1.039-.453c.47-.344.68-.807.631-1.391a1.25 1.25 0 0 0-.429-.875 2.143 2.143 0 0 0-.767-.397 5.138 5.138 0 0 0-.83-.098l-1.485-.056a2.291 2.291 0 0 1-.551-.091.374.374 0 0 1-.185-.157.327.327 0 0 1 .056-.342 1.02 1.02 0 0 1 .366-.251c.139.043.281.072.425.087a4.45 4.45 0 0 0 1.318-.07c.319-.066.612-.192.878-.376.285-.204.477-.475.575-.812.163-.731-.033-1.344-.589-1.841.098-.197.254-.266.467-.206l.293.098c.103.031.209.049.317.052.251-.001.407-.122.467-.363a.537.537 0 0 0-.282-.582.99.99 0 0 0-.537-.087zm-2.51 1.073c.356-.028.622.111.798.418.119.222.184.459.195.711.027.309-.008.612-.105.906-.072.204-.194.37-.366.498a.78.78 0 0 1-.523.112.755.755 0 0 1-.512-.31 1.549 1.549 0 0 1-.265-.816 2.277 2.277 0 0 1 .105-.913 1.06 1.06 0 0 1 .324-.464.795.795 0 0 1 .349-.143zm-.146 5.027c.177-.001.353 0 .53.003.315.01.619.071.913.181.168.066.313.165.436.296a.59.59 0 0 1 .063.641.92.92 0 0 1-.331.31 2.274 2.274 0 0 1-.83.244 5.35 5.35 0 0 1-1.081-.007 2.16 2.16 0 0 1-.788-.244.927.927 0 0 1-.296-.275c-.141-.28-.101-.53.122-.749.17-.14.363-.237.579-.293a3.61 3.61 0 0 1 .683-.108z"/><path fill="#1e2c3a" style="fill:var(--color2, #1e2c3a)" opacity=".995" d="M9.785 17.509c-.986.092-1.691.585-2.116 1.478a3.27 3.27 0 0 0-.261 1.339 3.05 3.05 0 0 0 .422 1.604c.433.696 1.06 1.095 1.879 1.196a2.533 2.533 0 0 0 1.757-.439 2.74 2.74 0 0 0 1.077-1.76 3.593 3.593 0 0 0-.126-1.722 2.546 2.546 0 0 0-1.328-1.481 2.85 2.85 0 0 0-1.304-.213zm.111.481a.637.637 0 0 1 .666.328c.093.189.151.389.174.6.04.296.063.594.07.892.014.451.009.902-.014 1.352a4.619 4.619 0 0 1-.126.906.903.903 0 0 1-.275.464.7.7 0 0 1-.62.091.67.67 0 0 1-.394-.401 2.381 2.381 0 0 1-.132-.565 9.117 9.117 0 0 1-.063-.934c-.009-.43-.002-.86.021-1.29.014-.285.053-.566.119-.844.038-.15.105-.285.202-.404a.643.643 0 0 1 .373-.195zM15.09 17.509h.07c-.001.402 0 .804.004 1.206.137-.304.327-.57.568-.798a1.367 1.367 0 0 1 1.304-.265c.486.194.701.553.645 1.077-.078.371-.305.583-.68.638a.756.756 0 0 1-.666-.206c-.119-.135-.159-.291-.119-.467l.056-.237a.193.193 0 0 0-.028-.174.221.221 0 0 0-.073-.038.362.362 0 0 0-.3.091 1.14 1.14 0 0 0-.234.31 2.985 2.985 0 0 0-.321 1.108c-.009.09-.016.181-.021.272-.005.641-.005 1.283 0 1.924a.81.81 0 0 0 .098.363.434.434 0 0 0 .324.178 4.4 4.4 0 0 0 .363.01v.467h-2.9v-.474a.788.788 0 0 0 .397-.15.515.515 0 0 0 .115-.289c.006-.053.011-.107.014-.16.005-1.078.005-2.157 0-3.235a.824.824 0 0 0-.077-.356.337.337 0 0 0-.22-.122 1.178 1.178 0 0 0-.265-.024v-.488a31.53 31.53 0 0 0 1.945-.16z"/><path fill="#1e2c3a" style="fill:var(--color2, #1e2c3a)" opacity=".994" d="M26.259 17.509a2.615 2.615 0 0 0-1.032.289 2.595 2.595 0 0 0-1.21 1.53 3.73 3.73 0 0 0-.098 1.527 2.78 2.78 0 0 0 .861 1.656 2.565 2.565 0 0 0 2.015.613c1.006-.096 1.691-.613 2.057-1.551a5.527 5.527 0 0 0-.471-.174l-.017.007a2.659 2.659 0 0 1-.607.805 1.487 1.487 0 0 1-.788.356 1.079 1.079 0 0 1-.746-.174c-.2-.17-.333-.383-.401-.638a3.566 3.566 0 0 1-.119-.718 9.748 9.748 0 0 1-.003-.802h3.2a3.423 3.423 0 0 0-.136-1.074 2.33 2.33 0 0 0-1.251-1.454 2.76 2.76 0 0 0-1.255-.199zm.097.474c.337-.031.57.108.701.418.065.181.107.366.125.558.026.269.039.538.038.809h-1.527c.001-.361.032-.718.094-1.074.027-.158.081-.307.16-.446a.592.592 0 0 1 .408-.265z"/><path fill="#1e2c3a" style="fill:var(--color2, #1e2c3a)" opacity=".996" d="M31.474 17.509h.07c-.001.397 0 .795.003 1.192.245-.364.555-.658.931-.882a1.787 1.787 0 0 1 1.457-.132c.222.092.398.24.526.443.093.157.162.324.206.502.211-.289.465-.534.76-.735a1.824 1.824 0 0 1 1.596-.209c.291.126.494.336.61.631.104.277.166.562.188.858.009.104.016.209.021.314l.007 2.363c-.002.145.023.284.077.418.048.08.117.135.206.164.079.031.16.051.244.059v.474h-2.642v-.474a.772.772 0 0 0 .376-.122.345.345 0 0 0 .115-.199c.019-.085.031-.171.035-.258.005-.864.005-1.729 0-2.593 0-.202-.031-.4-.091-.593a.435.435 0 0 0-.453-.279.709.709 0 0 0-.471.164 1.241 1.241 0 0 0-.324.491c-.099.287-.15.582-.153.885-.005.634-.005 1.269 0 1.903.003.109.019.216.049.321a.354.354 0 0 0 .129.178.75.75 0 0 0 .349.101v.474h-2.649v-.474a.745.745 0 0 0 .37-.115.443.443 0 0 0 .15-.303c.006-.039.011-.079.014-.119.005-.904.005-1.808 0-2.712a1.82 1.82 0 0 0-.084-.502.438.438 0 0 0-.46-.293.74.74 0 0 0-.62.321 1.693 1.693 0 0 0-.265.607c-.038.17-.061.342-.07.516-.005.688-.005 1.376 0 2.064a.755.755 0 0 0 .098.356c.068.074.15.124.247.15a.803.803 0 0 0 .188.031v.474h-2.649v-.474a.87.87 0 0 0 .363-.122.344.344 0 0 0 .101-.129c.041-.115.062-.233.063-.356a345.83 345.83 0 0 0 0-3.221.862.862 0 0 0-.07-.328.346.346 0 0 0-.247-.157 1 1 0 0 0-.244-.024v-.488a31.53 31.53 0 0 0 1.945-.16z"/><path fill="#1e2c3a" style="fill:var(--color2, #1e2c3a)" opacity=".995" d="M41.025 17.509h.077c-.003 1.508 0 3.017.01 4.525.009.1.039.193.091.279.096.093.211.15.345.171.025.007.051.01.077.01v.474h-2.67v-.474a.788.788 0 0 0 .397-.15.515.515 0 0 0 .115-.289c.006-.053.011-.107.014-.16.005-1.076.005-2.152 0-3.228a.826.826 0 0 0-.077-.349.35.35 0 0 0-.234-.136 1.058 1.058 0 0 0-.251-.024v-.488c.705-.03 1.406-.084 2.105-.16z"/><path fill="#1e2c3a" style="fill:var(--color2, #1e2c3a)" opacity=".994" d="M50.583 17.509a3.823 3.823 0 0 0-.718.115 2.115 2.115 0 0 0-.844.439 1.02 1.02 0 0 0-.331.596c-.057.356.067.627.373.812.184.085.377.116.579.091a.77.77 0 0 0 .596-.366.754.754 0 0 0 .021-.62 8.431 8.431 0 0 0-.209-.342.09.09 0 0 1-.014-.098.361.361 0 0 1 .115-.087c.197-.081.401-.109.614-.084.148.01.287.049.418.119.142.09.236.216.282.38.044.15.069.304.077.46.009.321.013.641.01.962a5.892 5.892 0 0 0-.376.031 6.538 6.538 0 0 0-1.471.314 2.576 2.576 0 0 0-.767.418 1.428 1.428 0 0 0-.429.589c-.131.375-.124.747.021 1.115.239.468.621.727 1.147.777.443.027.857-.07 1.241-.293.267-.153.512-.335.736-.547.045.122.1.238.167.349.136.219.33.357.582.415.449.077.853-.023 1.213-.3a.629.629 0 0 0 .199-.241.345.345 0 0 0 .014-.153c-.029-.085-.089-.126-.178-.122a9.635 9.635 0 0 0-.286.098c-.17.018-.255-.06-.254-.234 0-.967-.005-1.934-.014-2.9-.065-.883-.529-1.421-1.391-1.614a4.592 4.592 0 0 0-1.122-.08zm.927 2.817h.042c.016.276.018.553.004.83a2.04 2.04 0 0 1-.146.641.715.715 0 0 1-.711.446c-.392-.001-.625-.194-.697-.579a.983.983 0 0 1 .408-.952c.245-.161.512-.27.802-.328l.3-.059z"/></symbol><symbol id="icon-phone" viewBox="0 0 32 32"><path fill="#fe0000" style="fill:var(--color1, #fe0000)" opacity=".697" d="M13.52.4C6.984 1.682 2.744 5.522.8 11.92c-1.033 4.378-.393 8.484 1.92 12.32 3.75 5.342 8.897 7.662 15.44 6.96 6.564-1.23 10.804-5.044 12.72-11.44 1.033-4.378.393-8.484-1.92-12.32C25.207 2.123 20.06-.223 13.52.4zm1.12.48c8.14.027 13.394 3.921 15.76 11.68 1.183 7.634-1.617 13.261-8.4 16.88-6.819 2.608-12.712 1.248-17.68-4.08-4.587-6.347-4.587-12.693 0-19.04C7.068 3.173 10.508 1.36 14.64.88z"/><path fill="#fe0000" style="fill:var(--color1, #fe0000)" opacity=".865" d="M18.32 7.76c3.579-.392 5.552 1.182 5.92 4.72a4.184 4.184 0 0 1-.64 2.56c-.442-.115-.816-.382-1.12-.8 1.028-2.409.335-4.115-2.08-5.12a4.026 4.026 0 0 0-2.64.4 7.46 7.46 0 0 1-.88-.96 3.23 3.23 0 0 1 1.44-.8z"/><path fill="#fe0000" style="fill:var(--color1, #fe0000)" opacity=".941" d="M9.04 7.92a4.753 4.753 0 0 1 1.68.16c.538 1.21 1.098 2.41 1.68 3.6a6.4 6.4 0 0 0-1.52 1.84.399.399 0 0 0 0 .48 208.269 208.269 0 0 0 6.64 7.12c.837-.351 1.557-.911 2.16-1.68a24.729 24.729 0 0 1 3.76 2.8 11.112 11.112 0 0 1-.8 1.6 15.69 15.69 0 0 1-4.48 1.44C13.101 22.888 9.448 19.128 7.2 14a6.764 6.764 0 0 1-.56-1.76 12.23 12.23 0 0 1 2.4-4.32z"/><path fill="#fe0000" style="fill:var(--color1, #fe0000)" opacity=".827" d="M16.88 10.16c3.65-.323 5.277 1.33 4.88 4.96a4.3 4.3 0 0 1-.56.96 2.848 2.848 0 0 1-.8-.8c.822-2.038.182-3.398-1.92-4.08a2.969 2.969 0 0 0-1.84.4 5.048 5.048 0 0 1-.72-.8c.33-.217.65-.43.96-.64z"/></symbol><symbol id="icon-email" viewBox="0 0 32 32"><path fill="#010101" style="fill:var(--color1, #010101)" d="M14.939-.016c-1.074.076-2.13.261-3.167.555a.367.367 0 0 1-.229.065.367.367 0 0 1-.229.065.693.693 0 0 0-.229.065.48.48 0 0 1-.294.098 12.55 12.55 0 0 0-1.763.718c-.015.046-.048.068-.098.065a.497.497 0 0 0-.229.098c-.015.046-.048.068-.098.065a1.164 1.164 0 0 0-.327.163c-.015.046-.048.068-.098.065-.223.095-.43.215-.62.359-.015.046-.048.068-.098.065a.82.82 0 0 0-.261.163c-.015.046-.048.068-.098.065-.015.046-.048.068-.098.065a.89.89 0 0 0-.229.163c-.015.046-.048.068-.098.065a.232.232 0 0 0-.131.098c-.025.058-.068.09-.131.098s-.106.04-.131.098a.247.247 0 0 1-.163.131c-.121.071-.23.159-.327.261a.358.358 0 0 1-.196.163.496.496 0 0 1-.229.196.098.098 0 0 0-.065.065c-.089.122-.198.22-.327.294a1.13 1.13 0 0 0-.229.229.588.588 0 0 1-.163.163 3.966 3.966 0 0 0-.425.425.155.155 0 0 1-.098.131.829.829 0 0 0-.196.196c.002.05-.019.082-.065.098a.098.098 0 0 0-.065.065.155.155 0 0 1-.098.131.098.098 0 0 0-.065.065c.002.05-.019.082-.065.098a.52.52 0 0 0-.196.229c.002.05-.019.082-.065.098-.058.025-.09.068-.098.131s-.04.106-.098.131c.002.05-.019.082-.065.098a.154.154 0 0 0-.098.131c.002.05-.019.082-.065.098a.228.228 0 0 0-.098.131c.002.05-.019.082-.065.098.002.05-.019.082-.065.098a.804.804 0 0 0-.163.261c.002.05-.019.082-.065.098a2.939 2.939 0 0 0-.359.62c.002.05-.019.082-.065.098a1.138 1.138 0 0 0-.163.327c.002.05-.019.082-.065.098a11.45 11.45 0 0 0-.849 1.992c.012.072-.009.126-.065.163v.033c.012.072-.009.126-.065.163a1.109 1.109 0 0 0-.065.261.367.367 0 0 1-.065.229.367.367 0 0 1-.065.229.155.155 0 0 0-.033.131.367.367 0 0 1-.065.229 16.279 16.279 0 0 0-.457 2.808v2.025a16.332 16.332 0 0 0 1.959 6.727c.051.01.072.043.065.098.057.124.122.244.196.359.051.01.072.043.065.098l.033.065c.064.017.096.061.098.131.035.081.078.157.131.229.064.017.096.061.098.131-.006.032.005.054.033.065.064.017.096.061.098.131.41.623.867 1.211 1.371 1.763.065 0 .098.033.098.098.272.294.555.577.849.849a.244.244 0 0 1 .163.131c.054.076.12.142.196.196.05-.002.082.019.098.065a.212.212 0 0 0 .098.098c.062.008.106.04.131.098.074.091.161.167.261.229.05-.002.082.019.098.065.162.146.336.277.522.392.062.008.106.04.131.098.05-.002.082.019.098.065.05-.002.082.019.098.065s.048.068.098.065c.05-.002.082.019.098.065.05-.002.082.019.098.065.05-.002.082.019.098.065.05-.002.082.019.098.065.046.045.1.078.163.098.05-.002.082.019.098.065.011.027.033.038.065.033.05-.002.082.019.098.065.011.027.033.038.065.033.05-.002.082.019.098.065.055.049.12.082.196.098.05-.002.082.019.098.065.94.53 1.931.943 2.971 1.241a.367.367 0 0 1 .229.065.367.367 0 0 1 .229.065c1.038.29 2.094.475 3.167.555h2.025c3.084-.221 5.882-1.228 8.392-3.02 3.982-3.005 6.191-7.005 6.629-12v-2.024a16.277 16.277 0 0 0-.457-2.808.36.36 0 0 1-.065-.229.15.15 0 0 0-.033-.131.36.36 0 0 1-.065-.229.36.36 0 0 1-.065-.229 3.334 3.334 0 0 0-.098-.359c-.056-.037-.078-.091-.065-.163a13.008 13.008 0 0 0-1.241-2.743c-.046-.015-.068-.048-.065-.098.006-.032-.005-.054-.033-.065-.046-.015-.068-.048-.065-.098.006-.032-.005-.054-.033-.065-.046-.015-.068-.048-.065-.098a.398.398 0 0 0-.098-.163c-.046-.015-.068-.048-.065-.098-.046-.015-.068-.048-.065-.098-.046-.015-.068-.048-.065-.098a.468.468 0 0 0-.131-.196c-.046-.015-.068-.048-.065-.098-.046-.015-.068-.048-.065-.098a.154.154 0 0 1-.098-.131 3.559 3.559 0 0 0-.392-.522c-.046-.015-.068-.048-.065-.098a.098.098 0 0 0-.065-.065c-.046-.015-.068-.048-.065-.098a.212.212 0 0 0-.098-.098.154.154 0 0 1-.098-.131.212.212 0 0 0-.098-.098c-.046-.015-.068-.048-.065-.098a.588.588 0 0 0-.163-.163.247.247 0 0 1-.131-.163 13.866 13.866 0 0 0-2.645-2.286c-.07-.002-.113-.034-.131-.098-.055.007-.087-.015-.098-.065-.055.007-.087-.015-.098-.065-.055.007-.087-.015-.098-.065l-.261-.163c-.055.007-.087-.015-.098-.065l-.065-.033c-.055.007-.087-.015-.098-.065l-.065-.033c-.055.007-.087-.015-.098-.065a16.275 16.275 0 0 0-7.02-2.122h-2.024zM6.906 10.139c6.041-.044 12.082-.044 18.122 0-.05-.002-.082.019-.098.065a.155.155 0 0 0-.131.098.155.155 0 0 0-.131.098 3.352 3.352 0 0 0-.62.457.155.155 0 0 0-.131.098.155.155 0 0 0-.131.098 3.352 3.352 0 0 0-.62.457.155.155 0 0 0-.131.098.155.155 0 0 0-.131.098 3.352 3.352 0 0 0-.62.457.155.155 0 0 0-.131.098.155.155 0 0 0-.131.098 3.352 3.352 0 0 0-.62.457.155.155 0 0 0-.131.098.155.155 0 0 0-.131.098 3.352 3.352 0 0 0-.62.457.155.155 0 0 0-.131.098.155.155 0 0 0-.131.098 3.352 3.352 0 0 0-.62.457.155.155 0 0 0-.131.098.155.155 0 0 0-.131.098 3.352 3.352 0 0 0-.62.457.155.155 0 0 0-.131.098.155.155 0 0 0-.131.098 3.352 3.352 0 0 0-.62.457.155.155 0 0 0-.131.098.155.155 0 0 0-.131.098 3.352 3.352 0 0 0-.62.457.155.155 0 0 0-.131.098.155.155 0 0 0-.131.098 3.352 3.352 0 0 0-.62.457.155.155 0 0 0-.131.098l-9.078-6.694zm18.155 1.045c.033 3.575.044 7.156.033 10.743H6.841c-.011-3.576 0-7.146.033-10.71.015.046.048.068.098.065.015.046.048.068.098.065.162.146.336.277.522.392.025.058.068.09.131.098.025.058.068.09.131.098.015.046.048.068.098.065.162.146.336.277.522.392.025.058.068.09.131.098.025.058.068.09.131.098.015.046.048.068.098.065.162.146.336.277.522.392.025.058.068.09.131.098.025.058.068.09.131.098.015.046.048.068.098.065.162.146.336.277.522.392.025.058.068.09.131.098.025.058.068.09.131.098.015.046.048.068.098.065.162.146.336.277.522.392.025.058.068.09.131.098.025.058.068.09.131.098.015.046.048.068.098.065.162.146.336.277.522.392.025.058.068.09.131.098.025.058.068.09.131.098.015.046.048.068.098.065.162.146.336.277.522.392.025.058.068.09.131.098.025.058.068.09.131.098.015.046.048.068.098.065.162.146.336.277.522.392.025.058.068.09.131.098.025.058.068.09.131.098.015.046.048.068.098.065.162.146.336.277.522.392.025.058.068.09.131.098.025.058.068.09.131.098.015.046.048.068.098.065.162.146.336.277.522.392.025.058.068.09.131.098.025.058.068.09.131.098.015.046.048.068.098.065.042.079.096.084.163.016 3.012-2.229 6.016-4.466 9.012-6.71z"/><path fill="#555" style="fill:var(--color2, #555)" d="M11.771.539a.367.367 0 0 1-.229.065.367.367 0 0 1 .229-.065z"/><path fill="#5e5e5e" style="fill:var(--color3, #5e5e5e)" d="M11.543.604a.367.367 0 0 1-.229.065.367.367 0 0 1 .229-.065z"/><path fill="#696969" style="fill:var(--color4, #696969)" d="M11.086.735a.48.48 0 0 1-.294.098.792.792 0 0 1 .294-.098z"/><path fill="gray" style="fill:var(--color5, #808080)" d="M9.029 1.551c-.015.046-.048.068-.098.065.015-.046.048-.068.098-.065z"/><path fill="#858585" style="fill:var(--color6, #858585)" d="M8.702 1.714c-.015.046-.048.068-.098.065.015-.046.048-.068.098-.065z"/><path fill="#838383" style="fill:var(--color7, #838383)" d="M8.278 1.943c-.015.046-.048.068-.098.065.015-.046.048-.068.098-.065zM23.984 2.106c.04.014.072.036.098.065-.055.007-.087-.015-.098-.065z"/><path fill="#7c7c7c" style="fill:var(--color8, #7c7c7c)" d="M24.147 2.204c.04.014.072.036.098.065-.055.007-.087-.015-.098-.065z"/><path fill="#7e7e7e" style="fill:var(--color9, #7e7e7e)" d="M24.31 2.302c.04.014.072.036.098.065-.055.007-.087-.015-.098-.065z"/><path fill="#7d7d7d" style="fill:var(--color10, #7d7d7d)" d="M7.559 2.367c-.015.046-.048.068-.098.065.015-.046.048-.068.098-.065z"/><path fill="#7a7a7a" style="fill:var(--color11, #7a7a7a)" d="M24.669 2.531c.04.014.072.036.098.065-.055.007-.087-.015-.098-.065z"/><path fill="#8c8c8c" style="fill:var(--color12, #8c8c8c)" d="M7.2 2.596c-.015.046-.048.068-.098.065.015-.046.048-.068.098-.065z"/><path fill="#757575" style="fill:var(--color13, #757575)" d="M24.767 2.596c.04.014.072.036.098.065-.055.007-.087-.015-.098-.065z"/><path fill="#878787" style="fill:var(--color14, #878787)" d="M7.102 2.661c-.015.046-.048.068-.098.065.015-.046.048-.068.098-.065z"/><path fill="#757575" style="fill:var(--color13, #757575)" d="M24.865 2.661c.04.014.072.036.098.065-.055.007-.087-.015-.098-.065z"/><path fill="#7f7f7f" style="fill:var(--color15, #7f7f7f)" d="M24.963 2.727c.056.017.1.05.131.098-.07-.002-.113-.034-.131-.098z"/><path fill="#767676" style="fill:var(--color16, #767676)" d="M6.776 2.89c-.015.046-.048.068-.098.065.015-.046.048-.068.098-.065z"/><path fill="#7a7a7a" style="fill:var(--color11, #7a7a7a)" d="M6.547 3.053a.154.154 0 0 1-.131.098.154.154 0 0 1 .131-.098z"/><path fill="#5b5b5b" style="fill:var(--color17, #5b5b5b)" d="M6.286 3.249a.247.247 0 0 1-.163.131.247.247 0 0 1 .163-.131z"/><path fill="#5f5f5f" style="fill:var(--color18, #5f5f5f)" d="M5.796 3.641a.358.358 0 0 1-.196.163.358.358 0 0 1 .196-.163z"/><path fill="#696969" style="fill:var(--color4, #696969)" d="M5.6 3.804A.496.496 0 0 1 5.371 4a.496.496 0 0 1 .229-.196z"/><path fill="#555" style="fill:var(--color2, #555)" d="M5.306 4.065c-.089.122-.198.22-.327.294.089-.122.198-.22.327-.294z"/><path fill="#9b9b9b" style="fill:var(--color19, #9b9b9b)" d="M4.751 4.588a.588.588 0 0 1-.163.163.21.21 0 0 1 .163-.163zM27.739 5.11c.068.035.112.09.131.163a.247.247 0 0 1-.131-.163z"/><path fill="#888" style="fill:var(--color20, #888)" d="M4.163 5.176a.155.155 0 0 1-.098.131.155.155 0 0 1 .098-.131z"/><path fill="#8c8c8c" style="fill:var(--color12, #8c8c8c)" d="M28.033 5.437c.046.015.068.048.065.098-.046-.015-.068-.048-.065-.098z"/><path fill="#9f9f9f" style="fill:var(--color21, #9f9f9f)" d="M3.869 5.502c.002.05-.019.082-.065.098-.002-.05.019-.082.065-.098z"/><path fill="#8a8a8a" style="fill:var(--color22, #8a8a8a)" d="M28.196 5.633c.058.025.09.068.098.131a.154.154 0 0 1-.098-.131z"/><path fill="#838383" style="fill:var(--color7, #838383)" d="M3.739 5.665a.155.155 0 0 1-.098.131.155.155 0 0 1 .098-.131z"/><path fill="#858585" style="fill:var(--color6, #858585)" d="M3.575 5.861c.002.05-.019.082-.065.098-.002-.05.019-.082.065-.098z"/><path fill="#a0a0a0" style="fill:var(--color23, #a0a0a0)" d="M28.392 5.861c.046.015.068.048.065.098-.046-.015-.068-.048-.065-.098z"/><path fill="#9b9b9b" style="fill:var(--color19, #9b9b9b)" d="M28.522 6.024c.046.015.068.048.065.098-.046-.015-.068-.048-.065-.098z"/><path fill="#9c9c9c" style="fill:var(--color24, #9c9c9c)" d="M3.314 6.188c.002.05-.019.082-.065.098-.002-.05.019-.082.065-.098z"/><path fill="#757575" style="fill:var(--color13, #757575)" d="M3.151 6.416a.155.155 0 0 1-.098.131.155.155 0 0 1 .098-.131z"/><path fill="#757575" style="fill:var(--color13, #757575)" d="M3.053 6.547c.002.05-.019.082-.065.098-.002-.05.019-.082.065-.098z"/><path fill="#7a7a7a" style="fill:var(--color11, #7a7a7a)" d="M28.98 6.645c.058.025.09.068.098.131a.154.154 0 0 1-.098-.131z"/><path fill="#797979" style="fill:var(--color25, #797979)" d="M2.89 6.776c.002.05-.019.082-.065.098-.002-.05.019-.082.065-.098z"/><path fill="#909090" style="fill:var(--color26, #909090)" d="M29.078 6.776c.046.015.068.048.065.098-.046-.015-.068-.048-.065-.098z"/><path fill="#7f7f7f" style="fill:var(--color15, #7f7f7f)" d="M29.143 6.873c.046.015.068.048.065.098-.046-.015-.068-.048-.065-.098z"/><path fill="#9d9d9d" style="fill:var(--color27, #9d9d9d)" d="M2.727 7.004c.002.05-.019.082-.065.098-.002-.05.019-.082.065-.098z"/><path fill="#a2a2a2" style="fill:var(--color28, #a2a2a2)" d="M2.661 7.102c.002.05-.019.082-.065.098-.002-.05.019-.082.065-.098z"/><path fill="#757575" style="fill:var(--color13, #757575)" d="M29.339 7.167c.046.015.068.048.065.098-.046-.015-.068-.048-.065-.098z"/><path fill="#7b7b7b" style="fill:var(--color29, #7b7b7b)" d="M29.404 7.265c.046.015.068.048.065.098-.046-.015-.068-.048-.065-.098z"/><path fill="#8e8e8e" style="fill:var(--color30, #8e8e8e)" d="M29.469 7.363c.046.015.068.048.065.098-.046-.015-.068-.048-.065-.098z"/><path fill="#939393" style="fill:var(--color31, #939393)" d="M2.433 7.461c.002.05-.019.082-.065.098-.002-.05.019-.082.065-.098z"/><path fill="#8f8f8f" style="fill:var(--color32, #8f8f8f)" d="M29.633 7.625c.046.015.068.048.065.098-.046-.015-.068-.048-.065-.098z"/><path fill="#949494" style="fill:var(--color33, #949494)" d="M29.731 7.788c.046.015.068.048.065.098-.046-.015-.068-.048-.065-.098z"/><path fill="#9f9f9f" style="fill:var(--color21, #9f9f9f)" d="M29.829 7.951c.046.015.068.048.065.098-.046-.015-.068-.048-.065-.098z"/><path fill="#9d9d9d" style="fill:var(--color27, #9d9d9d)" d="M2.008 8.18c.002.05-.019.082-.065.098-.002-.05.019-.082.065-.098z"/><path fill="#a3a3a3" style="fill:var(--color34, #a3a3a3)" d="M1.78 8.604c.002.05-.019.082-.065.098-.002-.05.019-.082.065-.098z"/><path fill="#989898" style="fill:var(--color35, #989898)" d="M25.029 10.139c-6.041-.044-12.082-.044-18.122 0a.11.11 0 0 1-.098-.049c6.095-.022 12.19-.022 18.286 0a.146.146 0 0 1-.065.049z"/><path fill="#7d7d7d" style="fill:var(--color10, #7d7d7d)" d="M24.931 10.204a.154.154 0 0 1-.131.098.154.154 0 0 1 .131-.098z"/><path fill="#7a7a7a" style="fill:var(--color11, #7a7a7a)" d="M24.8 10.302a.154.154 0 0 1-.131.098.154.154 0 0 1 .131-.098z"/><path fill="#7c7c7c" style="fill:var(--color8, #7c7c7c)" d="M.865 10.694c.012.072-.009.126-.065.163a.369.369 0 0 1 .065-.163z"/><path fill="#7d7d7d" style="fill:var(--color10, #7d7d7d)" d="M24.049 10.857a.154.154 0 0 1-.131.098.154.154 0 0 1 .131-.098z"/><path fill="#7e7e7e" style="fill:var(--color9, #7e7e7e)" d="M31.135 10.792a.362.362 0 0 1 .065.163c-.056-.037-.078-.091-.065-.163z"/><path fill="#7d7d7d" style="fill:var(--color10, #7d7d7d)" d="M.8 10.89c.012.072-.009.126-.065.163A.369.369 0 0 1 .8 10.89z"/><path fill="#7a7a7a" style="fill:var(--color11, #7a7a7a)" d="M23.918 10.955a.154.154 0 0 1-.131.098.154.154 0 0 1 .131-.098z"/><path fill="#e4e4e4" style="fill:var(--color36, #e4e4e4)" d="M6.873 11.216c-.033 3.565-.044 7.135-.033 10.71a447.35 447.35 0 0 1 0-10.743c.02.004.031.015.033.033z"/><path fill="#1a1a1a" style="fill:var(--color37, #1a1a1a)" d="M25.061 11.184c.002-.018.013-.029.033-.033.044 3.597.044 7.189 0 10.775.011-3.586 0-7.167-.033-10.743z"/><path fill="#a0a0a0" style="fill:var(--color23, #a0a0a0)" d="M6.873 11.216c.05-.002.082.019.098.065-.05.002-.082-.019-.098-.065z"/><path fill="#767676" style="fill:var(--color16, #767676)" d="M6.971 11.282c.05-.002.082.019.098.065-.05.002-.082-.019-.098-.065z"/><path fill="#656565" style="fill:var(--color38, #656565)" d="M.669 11.314a.367.367 0 0 1-.065.229.367.367 0 0 1 .065-.229z"/><path fill="#6a6a6a" style="fill:var(--color39, #6a6a6a)" d="M31.298 11.314a.36.36 0 0 1 .065.229.36.36 0 0 1-.065-.229z"/><path fill="#7d7d7d" style="fill:var(--color10, #7d7d7d)" d="M23.167 11.51a.154.154 0 0 1-.131.098.154.154 0 0 1 .131-.098z"/><path fill="#606060" style="fill:var(--color40, #606060)" d="M.604 11.543a.367.367 0 0 1-.065.229.367.367 0 0 1 .065-.229z"/><path fill="#7a7a7a" style="fill:var(--color11, #7a7a7a)" d="M23.037 11.608a.154.154 0 0 1-.131.098.154.154 0 0 1 .131-.098z"/><path fill="#787878" style="fill:var(--color41, #787878)" d="M7.592 11.739c.062.008.106.04.131.098a.155.155 0 0 1-.131-.098z"/><path fill="#696969" style="fill:var(--color4, #696969)" d="M31.363 11.543a.36.36 0 0 1 .065.229.36.36 0 0 1-.065-.229z"/><path fill="#7b7b7b" style="fill:var(--color29, #7b7b7b)" d="M7.722 11.837c.062.008.106.04.131.098a.155.155 0 0 1-.131-.098z"/><path fill="#767676" style="fill:var(--color16, #767676)" d="M7.853 11.935c.05-.002.082.019.098.065-.05.002-.082-.019-.098-.065z"/><path fill="#777" style="fill:var(--color42, #777)" d="M.506 11.902a.367.367 0 0 1-.065.229.367.367 0 0 1 .065-.229z"/><path fill="#7c7c7c" style="fill:var(--color8, #7c7c7c)" d="M31.461 11.902a.36.36 0 0 1 .065.229.36.36 0 0 1-.065-.229z"/><path fill="#7d7d7d" style="fill:var(--color10, #7d7d7d)" d="M22.286 12.163a.154.154 0 0 1-.131.098.154.154 0 0 1 .131-.098z"/><path fill="#797979" style="fill:var(--color25, #797979)" d="M22.155 12.261a.154.154 0 0 1-.131.098.154.154 0 0 1 .131-.098z"/><path fill="#787878" style="fill:var(--color41, #787878)" d="M8.473 12.392c.062.008.106.04.131.098a.155.155 0 0 1-.131-.098z"/><path fill="#7b7b7b" style="fill:var(--color29, #7b7b7b)" d="M8.604 12.49c.062.008.106.04.131.098a.155.155 0 0 1-.131-.098z"/><path fill="#767676" style="fill:var(--color16, #767676)" d="M8.735 12.588c.05-.002.082.019.098.065-.05.002-.082-.019-.098-.065z"/><path fill="#7d7d7d" style="fill:var(--color10, #7d7d7d)" d="M21.404 12.816a.154.154 0 0 1-.131.098.154.154 0 0 1 .131-.098z"/><path fill="#7a7a7a" style="fill:var(--color11, #7a7a7a)" d="M21.273 12.914a.154.154 0 0 1-.131.098.154.154 0 0 1 .131-.098z"/><path fill="#767676" style="fill:var(--color16, #767676)" d="M9.355 13.045c.062.008.106.04.131.098a.155.155 0 0 1-.131-.098z"/><path fill="#7b7b7b" style="fill:var(--color29, #7b7b7b)" d="M9.486 13.143c.062.008.106.04.131.098a.155.155 0 0 1-.131-.098z"/><path fill="#767676" style="fill:var(--color16, #767676)" d="M9.616 13.241c.05-.002.082.019.098.065-.05.002-.082-.019-.098-.065z"/><path fill="#7c7c7c" style="fill:var(--color8, #7c7c7c)" d="M20.522 13.469a.154.154 0 0 1-.131.098.154.154 0 0 1 .131-.098z"/><path fill="#7a7a7a" style="fill:var(--color11, #7a7a7a)" d="M20.392 13.567a.154.154 0 0 1-.131.098.154.154 0 0 1 .131-.098z"/><path fill="#787878" style="fill:var(--color41, #787878)" d="M10.237 13.698c.062.008.106.04.131.098a.155.155 0 0 1-.131-.098z"/><path fill="#7b7b7b" style="fill:var(--color29, #7b7b7b)" d="M10.367 13.796c.062.008.106.04.131.098a.155.155 0 0 1-.131-.098z"/><path fill="#757575" style="fill:var(--color13, #757575)" d="M10.498 13.894c.05-.002.082.019.098.065-.05.002-.082-.019-.098-.065z"/><path fill="#7d7d7d" style="fill:var(--color10, #7d7d7d)" d="M19.641 14.122a.154.154 0 0 1-.131.098.154.154 0 0 1 .131-.098z"/><path fill="#7a7a7a" style="fill:var(--color11, #7a7a7a)" d="M19.51 14.22a.154.154 0 0 1-.131.098.154.154 0 0 1 .131-.098z"/><path fill="#787878" style="fill:var(--color41, #787878)" d="M11.118 14.351c.062.008.106.04.131.098a.155.155 0 0 1-.131-.098z"/><path fill="#7b7b7b" style="fill:var(--color29, #7b7b7b)" d="M11.249 14.449c.062.008.106.04.131.098a.155.155 0 0 1-.131-.098z"/><path fill="#767676" style="fill:var(--color16, #767676)" d="M11.38 14.547c.05-.002.082.019.098.065-.05.002-.082-.019-.098-.065z"/><path fill="#7d7d7d" style="fill:var(--color10, #7d7d7d)" d="M18.759 14.775a.154.154 0 0 1-.131.098.154.154 0 0 1 .131-.098z"/><path fill="#7a7a7a" style="fill:var(--color11, #7a7a7a)" d="M18.629 14.873a.154.154 0 0 1-.131.098.154.154 0 0 1 .131-.098z"/><path fill="#787878" style="fill:var(--color41, #787878)" d="M12 15.004c.062.008.106.04.131.098a.155.155 0 0 1-.131-.098z"/><path fill="#7b7b7b" style="fill:var(--color29, #7b7b7b)" d="M12.131 15.102c.062.008.106.04.131.098a.155.155 0 0 1-.131-.098z"/><path fill="#767676" style="fill:var(--color16, #767676)" d="M12.261 15.2c.05-.002.082.019.098.065-.05.002-.082-.019-.098-.065z"/><path fill="#7d7d7d" style="fill:var(--color10, #7d7d7d)" d="M17.878 15.429a.154.154 0 0 1-.131.098.154.154 0 0 1 .131-.098z"/><path fill="#777" style="fill:var(--color42, #777)" d="M17.747 15.527a.154.154 0 0 1-.131.098.154.154 0 0 1 .131-.098z"/><path fill="#787878" style="fill:var(--color41, #787878)" d="M12.882 15.657c.062.008.106.04.131.098a.155.155 0 0 1-.131-.098z"/><path fill="#7b7b7b" style="fill:var(--color29, #7b7b7b)" d="M13.012 15.755c.062.008.106.04.131.098a.155.155 0 0 1-.131-.098z"/><path fill="#767676" style="fill:var(--color16, #767676)" d="M13.143 15.853c.05-.002.082.019.098.065-.05.002-.082-.019-.098-.065z"/><path fill="#7d7d7d" style="fill:var(--color10, #7d7d7d)" d="M16.996 16.082a.154.154 0 0 1-.131.098.154.154 0 0 1 .131-.098z"/><path fill="#7a7a7a" style="fill:var(--color11, #7a7a7a)" d="M16.865 16.18a.154.154 0 0 1-.131.098.154.154 0 0 1 .131-.098z"/><path fill="#777" style="fill:var(--color42, #777)" d="M13.763 16.31c.062.008.106.04.131.098a.155.155 0 0 1-.131-.098z"/><path fill="#7b7b7b" style="fill:var(--color29, #7b7b7b)" d="M13.894 16.408c.062.008.106.04.131.098a.155.155 0 0 1-.131-.098z"/><path fill="#767676" style="fill:var(--color16, #767676)" d="M14.024 16.506c.05-.002.082.019.098.065-.05.002-.082-.019-.098-.065z"/><path fill="#7c7c7c" style="fill:var(--color8, #7c7c7c)" d="M16.114 16.735a.154.154 0 0 1-.131.098.154.154 0 0 1 .131-.098z"/><path fill="#787878" style="fill:var(--color41, #787878)" d="M14.645 16.963c.062.008.106.04.131.098a.155.155 0 0 1-.131-.098z"/><path fill="#7d7d7d" style="fill:var(--color10, #7d7d7d)" d="M14.775 17.061c.062.008.106.04.131.098a.155.155 0 0 1-.131-.098z"/><path fill="#757575" style="fill:var(--color13, #757575)" d="M14.906 17.159c.05-.002.082.019.098.065-.05.002-.082-.019-.098-.065z"/><path fill="#787878" style="fill:var(--color41, #787878)" d="M15.527 17.616c.062.008.106.04.131.098a.155.155 0 0 1-.131-.098z"/><path fill="#7e7e7e" style="fill:var(--color9, #7e7e7e)" d="M15.657 17.714c.062.008.106.04.131.098a.155.155 0 0 1-.131-.098z"/><path fill="#767676" style="fill:var(--color16, #767676)" d="M15.788 17.812c.05-.002.082.019.098.065-.05.002-.082-.019-.098-.065z"/><path fill="#787878" style="fill:var(--color41, #787878)" d="M1.943 23.69c.051.01.072.043.065.098a.231.231 0 0 1-.065-.098z"/><path fill="#7f7f7f" style="fill:var(--color15, #7f7f7f)" d="M2.204 24.147c.051.01.072.043.065.098a.231.231 0 0 1-.065-.098z"/><path fill="#848484" style="fill:var(--color43, #848484)" d="M2.302 24.31c.064.017.096.061.098.131a.228.228 0 0 1-.098-.131z"/><path fill="#828282" style="fill:var(--color44, #828282)" d="M2.531 24.669c.064.017.096.061.098.131a.228.228 0 0 1-.098-.131z"/><path fill="#7b7b7b" style="fill:var(--color29, #7b7b7b)" d="M2.661 24.865c.064.017.096.061.098.131a.228.228 0 0 1-.098-.131z"/><path fill="#a9a9a9" style="fill:var(--color45, #a9a9a9)" d="M4.131 26.759c.065 0 .098.033.098.098a.212.212 0 0 1-.098-.098z"/><path fill="#929292" style="fill:var(--color46, #929292)" d="M5.078 27.706a.244.244 0 0 1 .163.131.244.244 0 0 1-.163-.131z"/><path fill="#8f8f8f" style="fill:var(--color32, #8f8f8f)" d="M5.437 28.033c.05-.002.082.019.098.065-.05.002-.082-.019-.098-.065z"/><path fill="#888" style="fill:var(--color20, #888)" d="M5.633 28.196c.062.008.106.04.131.098a.155.155 0 0 1-.131-.098z"/><path fill="#9b9b9b" style="fill:var(--color19, #9b9b9b)" d="M6.024 28.522c.05-.002.082.019.098.065-.05.002-.082-.019-.098-.065z"/><path fill="#7a7a7a" style="fill:var(--color11, #7a7a7a)" d="M6.645 28.98c.062.008.106.04.131.098a.155.155 0 0 1-.131-.098z"/><path fill="#969696" style="fill:var(--color47, #969696)" d="M6.776 29.078c.05-.002.082.019.098.065-.05.002-.082-.019-.098-.065z"/><path fill="#828282" style="fill:var(--color44, #828282)" d="M6.873 29.143c.05-.002.082.019.098.065-.05.002-.082-.019-.098-.065z"/><path fill="#787878" style="fill:var(--color41, #787878)" d="M7.069 29.273c.05-.002.082.019.098.065-.05.002-.082-.019-.098-.065z"/><path fill="#797979" style="fill:var(--color25, #797979)" d="M7.167 29.339c.05-.002.082.019.098.065-.05.002-.082-.019-.098-.065z"/><path fill="#7d7d7d" style="fill:var(--color10, #7d7d7d)" d="M7.265 29.404c.05-.002.082.019.098.065-.05.002-.082-.019-.098-.065z"/><path fill="#949494" style="fill:var(--color33, #949494)" d="M7.363 29.469c.05-.002.082.019.098.065-.05.002-.082-.019-.098-.065z"/><path fill="#939393" style="fill:var(--color31, #939393)" d="M7.625 29.633c.05-.002.082.019.098.065-.05.002-.082-.019-.098-.065z"/><path fill="#9c9c9c" style="fill:var(--color24, #9c9c9c)" d="M7.788 29.731c.05-.002.082.019.098.065-.05.002-.082-.019-.098-.065z"/><path fill="#a4a4a4" style="fill:var(--color48, #a4a4a4)" d="M7.951 29.829c.05-.002.082.019.098.065-.05.002-.082-.019-.098-.065z"/><path fill="#959595" style="fill:var(--color49, #959595)" d="M8.245 29.992c.05-.002.082.019.098.065-.05.002-.082-.019-.098-.065z"/><path fill="#717171" style="fill:var(--color50, #717171)" d="M11.314 31.298a.367.367 0 0 1 .229.065.367.367 0 0 1-.229-.065z"/><path fill="#6f6f6f" style="fill:var(--color51, #6f6f6f)" d="M11.543 31.363a.367.367 0 0 1 .229.065.367.367 0 0 1-.229-.065z"/></symbol><symbol id="icon-email-contacts" viewBox="0 0 32 32"><path fill="#fe0000" style="fill:var(--color1, #fe0000)" opacity=".697" d="M13.52.4C6.984 1.682 2.744 5.522.8 11.92c-1.033 4.378-.393 8.484 1.92 12.32 3.75 5.342 8.897 7.662 15.44 6.96 6.564-1.23 10.804-5.044 12.72-11.44 1.033-4.378.393-8.484-1.92-12.32C25.207 2.123 20.06-.223 13.52.4zm-9.76 24h22.88V7.28H3.76c2.93-4.12 6.957-6.253 12.08-6.4 7.943.583 12.85 4.743 14.72 12.48.779 6.681-1.648 11.828-7.28 15.44-7.164 3.442-13.483 2.295-18.96-3.44a4.855 4.855 0 0 1-.56-.96zm0-17.12V24.4C1.351 21.112.471 17.432 1.12 13.36c.404-2.258 1.284-4.285 2.64-6.08z"/><path fill="#fffbfa" style="fill:var(--color2, #fffbfa)" d="M3.76 7.28h22.88V24.4H3.76V7.28z"/><path fill="#fe0000" style="fill:var(--color3, #fe0000)" d="M5.68 8.56a378.61 378.61 0 0 1 19.04-.08 336.367 336.367 0 0 1-8.64 8.8c-.587.32-1.173.32-1.76 0a817.51 817.51 0 0 0-8.64-8.72z"/><path fill="#fe0000" style="fill:var(--color4, #fe0000)" d="M4.88 9.2a386.59 386.59 0 0 0 6.56 6.64 190.345 190.345 0 0 0-6.48 6.64c-.08-4.426-.107-8.853-.08-13.28zM25.36 9.2c.186 4.4.213 8.826.08 13.28a190.345 190.345 0 0 0-6.48-6.64 125.051 125.051 0 0 0 6.4-6.64z"/><path fill="#fe0000" style="fill:var(--color3, #fe0000)" d="M12.08 16.56a25.728 25.728 0 0 1 1.76 1.68c.901.73 1.808.73 2.72 0l1.68-1.68a190.345 190.345 0 0 0 6.48 6.64c-6.347.107-12.693.107-19.04 0a125.051 125.051 0 0 0 6.4-6.64z"/></symbol><symbol id="icon-facebook" viewBox="0 0 32 32"><path fill="#010002" style="fill:var(--color52, #010002)" opacity=".998" d="M14.731-.026h2.486c5.461.59 9.649 3.2 12.562 7.828a16.476 16.476 0 0 1 2.195 6.929v2.486c-.464 4.693-2.527 8.51-6.188 11.451-2.312 1.773-4.921 2.84-7.828 3.2V19.385c1.279.017 2.548 0 3.808-.053.048-.038.065-.09.053-.159.211-1.441.387-2.887.529-4.337a91.52 91.52 0 0 0-4.39-.053 41.539 41.539 0 0 1 .106-3.914c.198-.586.604-.921 1.217-1.005 1.083-.033 2.159-.068 3.226-.106.07-1.34.07-2.68 0-4.02a16.999 16.999 0 0 0-2.221-.159 13.503 13.503 0 0 0-2.063-.026.68.68 0 0 0-.264.079c-2.639.426-4.182 1.96-4.628 4.602a72.035 72.035 0 0 0-.079 4.602H9.391a48.155 48.155 0 0 0 0 4.496c1.26.053 2.53.07 3.808.053v12.377C7.7 30.643 3.742 27.558 1.325 22.506a17.186 17.186 0 0 1-1.349-5.289v-2.486c.59-5.461 3.2-9.649 7.828-12.562a16.476 16.476 0 0 1 6.929-2.195z"/><path fill="#868586" style="fill:var(--color53, #868586)" d="M20.284 5.58c-.777-.01-1.552.008-2.327.053a.691.691 0 0 1 .264-.079 13.504 13.504 0 0 1 2.063.026z"/><path fill="#fefefe" style="fill:var(--color54, #fefefe)" opacity=".999" d="M20.284 5.58c.752.005 1.492.058 2.221.159v3.967c-.838-.017-1.667 0-2.486.053-.212-.009-.424 0-.635.026a.178.178 0 0 0-.106.079c-.613.084-1.019.419-1.217 1.005a1.29 1.29 0 0 0-.132.529c-.026 1.146-.035 2.292-.026 3.438h4.443a91.302 91.302 0 0 1-.529 4.337c-1.302.087-2.606.14-3.914.159v12.536c-.237.029-.466.064-.688.106h-2.486a43.255 43.255 0 0 1-1.481-.212v-12.43c-1.278-.053-2.565-.07-3.861-.053v-4.443h3.861a72.803 72.803 0 0 1 .079-4.602c.447-2.642 1.989-4.175 4.628-4.602a32.84 32.84 0 0 1 2.327-.053z"/><path fill="#8b8a8b" style="fill:var(--color55, #8b8a8b)" d="M22.506 5.739c.07 1.34.07 2.68 0 4.02H20.02c.819-.053 1.648-.07 2.486-.053V5.739z"/><path fill="#2b2a2b" style="fill:var(--color56, #2b2a2b)" d="M20.02 9.759h2.486c-1.068.038-2.143.073-3.226.106a.171.171 0 0 1 .106-.079c.211-.026.422-.035.635-.026z"/><path fill="#3b3a3c" style="fill:var(--color57, #3b3a3c)" d="M18.063 10.869a41.539 41.539 0 0 0-.106 3.914c1.472-.018 2.936 0 4.39.053h-4.443c-.009-1.146 0-2.292.026-3.438.008-.192.052-.368.132-.529z"/><path fill="#9a999a" style="fill:var(--color58, #9a999a)" d="M9.388 14.836v4.443a70.77 70.77 0 0 1 3.861.053H9.388a48.155 48.155 0 0 1 0-4.496z"/><path fill="#acabac" style="fill:var(--color59, #acabac)" d="M21.818 19.174c.013.068-.005.121-.053.159h-3.861a75.025 75.025 0 0 0 3.914-.159z"/><path fill="#272628" style="fill:var(--color60, #272628)" d="M9.388 19.332h3.861v12.43h-.053V19.385c-1.279.017-2.548 0-3.808-.053z"/><path fill="#2b2a2c" style="fill:var(--color61, #2b2a2c)" d="M17.904 19.332h3.861c-1.26.053-2.53.07-3.808.053v12.483h-.053V19.332z"/></symbol><symbol id="icon-instagram" viewBox="0 0 32 32"><path style="fill:var(--color1, #000)" opacity=".982" d="M14.844 3.156c-.792.108-1.584.264-2.375.469-5.438 1.793-8.532 5.532-9.281 11.219-.279 4.395 1.21 8.051 4.469 10.969 3.52 2.825 7.479 3.679 11.875 2.563 3.901-1.213 6.682-3.682 8.344-7.406 1.474-3.844 1.265-7.594-.625-11.25-2.824-4.605-6.96-6.793-12.406-6.563zm-4.25 5.813c3.688-.01 7.375 0 11.063.031.64.372 1.025.924 1.156 1.656.031.833.042 1.666.031 2.5-1.334.01-2.667 0-4-.031-1.227-1.114-2.622-1.384-4.188-.813a2.94 2.94 0 0 0-1.188.813c-1.521.031-3.041.042-4.563.031-.01-.792 0-1.584.031-2.375a3.09 3.09 0 0 1 1.656-1.813zm5 3.812c1.975-.097 3.204.81 3.688 2.719.062 1.764-.771 2.91-2.5 3.438-1.55.2-2.706-.373-3.469-1.719-.583-1.552-.239-2.854 1.031-3.906.391-.253.807-.43 1.25-.531zm-6.563 1.25c1.188-.01 2.375 0 3.563.031a.233.233 0 0 1 .063.094c-.818 2.118-.297 3.816 1.563 5.094 2.158.968 3.918.499 5.281-1.406.658-1.229.689-2.469.094-3.719a11.115 11.115 0 0 1 1.625-.094c.524.001 1.044.022 1.563.063.073 2.25.083 4.5.031 6.75-.123.936-.634 1.551-1.531 1.844-3.438.042-6.875.042-10.313 0-1.041-.25-1.718-.885-2.031-1.906l-.031-3.344c.001-1.149.043-2.284.125-3.406z"/><path style="fill:var(--color1, #000)" opacity=".94" d="M18.719 9.719c.729-.01 1.459 0 2.188.031l.156.156c.042.729.042 1.458 0 2.188l-.156.156c-.683.1-1.37.121-2.063.063a.716.716 0 0 1-.281-.219 19.013 19.013 0 0 1 0-2.188.664.664 0 0 0 .156-.188z"/></symbol><symbol id="icon-youtube" viewBox="0 0 32 32"><path fill="#020202" style="fill:var(--color161, #020202)" d="M14.971-.016a16.131 16.131 0 0 0-3.069.522.367.367 0 0 1-.229.065.367.367 0 0 1-.229.065.367.367 0 0 1-.229.065 3.591 3.591 0 0 0-.522.163.328.328 0 0 1-.261.098c-.727.253-1.423.569-2.09.947-.015.046-.048.068-.098.065a.967.967 0 0 0-.359.196c-.015.046-.048.068-.098.065-.032-.006-.054.005-.065.033-.015.046-.048.068-.098.065a.398.398 0 0 0-.163.098c-.015.046-.048.068-.098.065a1.885 1.885 0 0 0-.392.261c-.015.046-.048.068-.098.065-.015.046-.048.068-.098.065a3.56 3.56 0 0 0-.653.49.247.247 0 0 1-.163.131.247.247 0 0 1-.163.131c-.022 0-.033.011-.033.033a.358.358 0 0 1-.196.163.669.669 0 0 1-.261.229c-.022 0-.033.011-.033.033a1.52 1.52 0 0 1-.392.359 9.355 9.355 0 0 0-.653.653.244.244 0 0 1-.131.163.588.588 0 0 0-.163.163.155.155 0 0 1-.098.131.098.098 0 0 0-.065.065.155.155 0 0 1-.098.131.212.212 0 0 0-.098.098c.002.05-.019.082-.065.098a.098.098 0 0 0-.065.065c.002.05-.019.082-.065.098a3.631 3.631 0 0 0-.392.522.155.155 0 0 1-.098.131c.002.05-.019.082-.065.098.002.05-.019.082-.065.098.002.05-.019.082-.065.098.002.05-.019.082-.065.098.002.05-.019.082-.065.098.002.05-.019.082-.065.098.002.05-.019.082-.065.098-.027.011-.038.033-.033.065.002.05-.019.082-.065.098.002.05-.019.082-.065.098-.027.011-.038.033-.033.065.002.05-.019.082-.065.098a.975.975 0 0 0-.196.359c.002.05-.019.082-.065.098a12.686 12.686 0 0 0-.947 2.09c.012.072-.009.126-.065.163a5.13 5.13 0 0 0-.196.62.367.367 0 0 1-.065.229.367.367 0 0 1-.065.229.367.367 0 0 1-.065.229 16.144 16.144 0 0 0-.522 3.069v2.024c.179 2.583.93 4.989 2.253 7.216.051.01.072.043.065.098a.6.6 0 0 0 .098.163c.051.01.072.043.065.098a15.173 15.173 0 0 0 2.645 3.167.244.244 0 0 1 .163.131c.044.065.098.12.163.163.05-.002.082.019.098.065a.212.212 0 0 0 .098.098c.062.008.106.04.131.098.074.091.161.167.261.229.05-.002.082.019.098.065.233.209.483.394.751.555.05-.002.082.019.098.065.05-.002.082.019.098.065.05-.002.082.019.098.065.05-.002.082.019.098.065.05-.002.082.019.098.065.05-.002.082.019.098.065.046.045.1.078.163.098.05-.002.082.019.098.065.854.53 1.758.966 2.71 1.306.072-.012.126.009.163.065.277.107.56.194.849.261a.367.367 0 0 1 .229.065c.035.03.078.041.131.033a.367.367 0 0 1 .229.065c.965.254 1.944.418 2.939.49H17c3.084-.221 5.882-1.228 8.392-3.02 3.963-3 6.162-6.989 6.596-11.967v-2.024a16.131 16.131 0 0 0-.522-3.069.36.36 0 0 1-.065-.229.36.36 0 0 1-.065-.229 6.305 6.305 0 0 0-.261-.849c-.056-.037-.078-.091-.065-.163a12.686 12.686 0 0 0-.947-2.09c-.046-.015-.068-.048-.065-.098a.967.967 0 0 0-.196-.359c-.046-.015-.068-.048-.065-.098.006-.032-.005-.054-.033-.065-.046-.015-.068-.048-.065-.098a.398.398 0 0 0-.098-.163c-.046-.015-.068-.048-.065-.098-.046-.015-.068-.048-.065-.098-.046-.015-.068-.048-.065-.098-.046-.015-.068-.048-.065-.098-.046-.015-.068-.048-.065-.098-.046-.015-.068-.048-.065-.098a4.904 4.904 0 0 0-.555-.751c-.046-.015-.068-.048-.065-.098a.098.098 0 0 0-.065-.065c-.046-.015-.068-.048-.065-.098a.212.212 0 0 0-.098-.098.154.154 0 0 1-.098-.131.098.098 0 0 0-.065-.065c-.046-.015-.068-.048-.065-.098a.848.848 0 0 0-.196-.196.154.154 0 0 1-.098-.131 14.792 14.792 0 0 0-3.2-2.678c-.055.007-.087-.015-.098-.065a.6.6 0 0 0-.163-.098c-.055.007-.087-.015-.098-.065l-.065-.033c-.055.007-.087-.015-.098-.065l-.131-.065c-.055.007-.087-.015-.098-.065a16.34 16.34 0 0 0-6.825-2.025h-2.024zm9.894 8.522a.362.362 0 0 0 .163.065l.522.229c.015.046.048.068.098.065.077.077.164.142.261.196.087.109.185.207.294.294l.294.392c.014.04.036.072.065.098.11.22.203.449.278.686.236 1.031.366 2.076.392 3.135a75.72 75.72 0 0 1 0 4.571 16.413 16.413 0 0 1-.392 3.2c-.086.259-.19.51-.31.751-.046.015-.068.048-.065.098a8.953 8.953 0 0 0-.098.131c-.046.015-.068.048-.065.098a.098.098 0 0 0-.065.065c-.131.109-.25.229-.359.359a.232.232 0 0 0-.131.098c-.05-.002-.082.019-.098.065-.05-.002-.082.019-.098.065a3.62 3.62 0 0 0-.424.196.927.927 0 0 0-.261.098 42.095 42.095 0 0 1-4.571.343c-3.168.072-6.335.061-9.502-.033a44.873 44.873 0 0 1-3.396-.261 3.491 3.491 0 0 1-.849-.278.231.231 0 0 0-.098-.065l-.065-.033a.231.231 0 0 0-.098-.065 2.37 2.37 0 0 1-.294-.229 1.13 1.13 0 0 0-.229-.229l-.261-.327c.002-.05-.019-.082-.065-.098a5.669 5.669 0 0 1-.539-1.959 18.445 18.445 0 0 1-.131-1.306 53.757 53.757 0 0 1 0-5.845c.047-.929.189-1.844.425-2.743.395-1.026 1.13-1.652 2.204-1.878a47.046 47.046 0 0 1 4.376-.294c2.841-.065 5.682-.065 8.522 0 1.531.031 3.055.146 4.571.343z"/><path fill="#606060" style="fill:var(--color40, #606060)" d="M11.902.506a.367.367 0 0 1-.229.065.367.367 0 0 1 .229-.065z"/><path fill="#535353" style="fill:var(--color162, #535353)" d="M11.673.571a.367.367 0 0 1-.229.065.367.367 0 0 1 .229-.065z"/><path fill="#676767" style="fill:var(--color163, #676767)" d="M11.445.637a.367.367 0 0 1-.229.065.367.367 0 0 1 .229-.065z"/><path fill="#636363" style="fill:var(--color85, #636363)" d="M10.694.865a.328.328 0 0 1-.261.098.95.95 0 0 1 .261-.098z"/><path fill="#858585" style="fill:var(--color6, #858585)" d="M8.343 1.91c-.015.046-.048.068-.098.065.015-.046.048-.068.098-.065z"/><path fill="#7b7b7b" style="fill:var(--color29, #7b7b7b)" d="M23.82 2.008c.04.014.072.036.098.065-.055.007-.087-.015-.098-.065z"/><path fill="#858585" style="fill:var(--color6, #858585)" d="M24.049 2.139c.04.014.072.036.098.065-.055.007-.087-.015-.098-.065z"/><path fill="#848484" style="fill:var(--color43, #848484)" d="M7.886 2.171c-.015.046-.048.068-.098.065.015-.046.048-.068.098-.065z"/><path fill="gray" style="fill:var(--color5, #808080)" d="M24.212 2.237c.04.014.072.036.098.065-.055.007-.087-.015-.098-.065zM7.722 2.269c-.015.046-.048.068-.098.065.015-.046.048-.068.098-.065z"/><path fill="#777" style="fill:var(--color42, #777)" d="M24.473 2.4c.04.014.072.036.098.065-.055.007-.087-.015-.098-.065z"/><path fill="gray" style="fill:var(--color5, #808080)" d="M7.461 2.433c-.015.046-.048.068-.098.065.015-.046.048-.068.098-.065z"/><path fill="#757575" style="fill:var(--color13, #757575)" d="M6.971 2.759c-.015.046-.048.068-.098.065.015-.046.048-.068.098-.065z"/><path fill="#838383" style="fill:var(--color7, #838383)" d="M6.873 2.825c-.015.046-.048.068-.098.065.015-.046.048-.068.098-.065z"/><path fill="#606060" style="fill:var(--color40, #606060)" d="M6.122 3.38a.247.247 0 0 1-.163.131.247.247 0 0 1 .163-.131z"/><path fill="#636363" style="fill:var(--color85, #636363)" d="M5.959 3.51a.247.247 0 0 1-.163.131.247.247 0 0 1 .163-.131z"/><path fill="#5e5e5e" style="fill:var(--color3, #5e5e5e)" d="M5.763 3.673a.358.358 0 0 1-.196.163.358.358 0 0 1 .196-.163z"/><path fill="#696969" style="fill:var(--color4, #696969)" d="M5.567 3.837a.669.669 0 0 1-.261.229.669.669 0 0 1 .261-.229z"/><path fill="#5a5a5a" style="fill:var(--color164, #5a5a5a)" d="M5.273 4.098a1.52 1.52 0 0 1-.392.359 1.52 1.52 0 0 1 .392-.359z"/><path fill="#979797" style="fill:var(--color165, #979797)" d="M27.771 5.143c.058.025.09.068.098.131a.154.154 0 0 1-.098-.131z"/><path fill="#8d8d8d" style="fill:var(--color166, #8d8d8d)" d="M4.229 5.11a.244.244 0 0 1-.131.163.244.244 0 0 1 .131-.163z"/><path fill="#919191" style="fill:var(--color105, #919191)" d="M3.935 5.437a.155.155 0 0 1-.098.131.155.155 0 0 1 .098-.131z"/><path fill="#a0a0a0" style="fill:var(--color23, #a0a0a0)" d="M28.065 5.469c.046.015.068.048.065.098-.046-.015-.068-.048-.065-.098z"/><path fill="gray" style="fill:var(--color5, #808080)" d="M3.771 5.633a.155.155 0 0 1-.098.131.155.155 0 0 1 .098-.131z"/><path fill="#888" style="fill:var(--color20, #888)" d="M28.196 5.633c.058.025.09.068.098.131a.154.154 0 0 1-.098-.131z"/><path fill="#9c9c9c" style="fill:var(--color24, #9c9c9c)" d="M3.575 5.861c.002.05-.019.082-.065.098-.002-.05.019-.082.065-.098z"/><path fill="#a0a0a0" style="fill:var(--color23, #a0a0a0)" d="M28.392 5.861c.046.015.068.048.065.098-.046-.015-.068-.048-.065-.098z"/><path fill="#9a9a9a" style="fill:var(--color145, #9a9a9a)" d="M3.445 6.024c.002.05-.019.082-.065.098-.002-.05.019-.082.065-.098z"/><path fill="#9c9c9c" style="fill:var(--color24, #9c9c9c)" d="M28.522 6.024c.046.015.068.048.065.098-.046-.015-.068-.048-.065-.098z"/><path fill="#7d7d7d" style="fill:var(--color10, #7d7d7d)" d="M2.988 6.645a.155.155 0 0 1-.098.131.155.155 0 0 1 .098-.131z"/><path fill="#959595" style="fill:var(--color49, #959595)" d="M2.89 6.776c.002.05-.019.082-.065.098-.002-.05.019-.082.065-.098z"/><path fill="#868686" style="fill:var(--color130, #868686)" d="M2.825 6.873c.002.05-.019.082-.065.098-.002-.05.019-.082.065-.098z"/><path fill="#878787" style="fill:var(--color14, #878787)" d="M29.143 6.873c.046.015.068.048.065.098-.046-.015-.068-.048-.065-.098z"/><path fill="#787878" style="fill:var(--color41, #787878)" d="M2.759 6.971c.002.05-.019.082-.065.098-.002-.05.019-.082.065-.098zM29.208 6.971c.046.015.068.048.065.098-.046-.015-.068-.048-.065-.098z"/><path fill="#7a7a7a" style="fill:var(--color11, #7a7a7a)" d="M2.694 7.069c.002.05-.019.082-.065.098-.002-.05.019-.082.065-.098z"/><path fill="#7c7c7c" style="fill:var(--color8, #7c7c7c)" d="M29.273 7.069c.046.015.068.048.065.098-.046-.015-.068-.048-.065-.098z"/><path fill="#7f7f7f" style="fill:var(--color15, #7f7f7f)" d="M2.629 7.167c.002.05-.019.082-.065.098-.002-.05.019-.082.065-.098z"/><path fill="gray" style="fill:var(--color5, #808080)" d="M29.339 7.167c.046.015.068.048.065.098-.046-.015-.068-.048-.065-.098z"/><path fill="#848484" style="fill:var(--color43, #848484)" d="M2.563 7.265c.002.05-.019.082-.065.098-.002-.05.019-.082.065-.098z"/><path fill="#868686" style="fill:var(--color130, #868686)" d="M29.404 7.265c.046.015.068.048.065.098-.046-.015-.068-.048-.065-.098z"/><path fill="#989898" style="fill:var(--color35, #989898)" d="M2.498 7.363c.002.05-.019.082-.065.098-.002-.05.019-.082.065-.098z"/><path fill="#999" style="fill:var(--color96, #999)" d="M29.469 7.363c.046.015.068.048.065.098-.046-.015-.068-.048-.065-.098z"/><path fill="#7f7f7f" style="fill:var(--color15, #7f7f7f)" d="M2.4 7.527c.002.05-.019.082-.065.098-.002-.05.019-.082.065-.098z"/><path fill="#999" style="fill:var(--color96, #999)" d="M2.335 7.625c.002.05-.019.082-.065.098-.002-.05.019-.082.065-.098z"/><path fill="#9d9d9d" style="fill:var(--color27, #9d9d9d)" d="M29.633 7.625c.046.015.068.048.065.098-.046-.015-.068-.048-.065-.098z"/><path fill="#a1a1a1" style="fill:var(--color167, #a1a1a1)" d="M2.237 7.788c.002.05-.019.082-.065.098-.002-.05.019-.082.065-.098z"/><path fill="#a4a4a4" style="fill:var(--color48, #a4a4a4)" d="M29.731 7.788c.046.015.068.048.065.098-.046-.015-.068-.048-.065-.098z"/><path fill="#a3a3a3" style="fill:var(--color34, #a3a3a3)" d="M1.976 8.245c.002.05-.019.082-.065.098-.002-.05.019-.082.065-.098z"/><path fill="#a5a5a5" style="fill:var(--color168, #a5a5a5)" d="M29.992 8.245c.046.015.068.048.065.098-.046-.015-.068-.048-.065-.098z"/><path fill="#757575" style="fill:var(--color13, #757575)" d="M24.865 8.506c.072-.012.126.009.163.065a.369.369 0 0 1-.163-.065z"/><path fill="#a1a1a1" style="fill:var(--color167, #a1a1a1)" d="M25.551 8.8c.05-.002.082.019.098.065-.05.002-.082-.019-.098-.065z"/><path fill="#a4a4a4" style="fill:var(--color48, #a4a4a4)" d="M25.91 9.061a.635.635 0 0 1 .294.294 1.858 1.858 0 0 1-.294-.294z"/><path fill="#7d7d7d" style="fill:var(--color10, #7d7d7d)" d="M26.498 9.747c.051.01.072.043.065.098a.231.231 0 0 1-.065-.098z"/><path fill="#757575" style="fill:var(--color13, #757575)" d="M.963 10.433c.012.072-.009.126-.065.163a.369.369 0 0 1 .065-.163z"/><path fill="#777" style="fill:var(--color42, #777)" d="M31.004 10.433a.362.362 0 0 1 .065.163c-.056-.037-.078-.091-.065-.163z"/><path fill="#6b6b6b" style="fill:var(--color169, #6b6b6b)" d="M.702 11.216a.367.367 0 0 1-.065.229.367.367 0 0 1 .065-.229z"/><path fill="#5c5c5c" style="fill:var(--color170, #5c5c5c)" d="M.637 11.445a.367.367 0 0 1-.065.229.367.367 0 0 1 .065-.229z"/><path fill="#606060" style="fill:var(--color40, #606060)" d="M31.331 11.445a.36.36 0 0 1 .065.229.36.36 0 0 1-.065-.229z"/><path fill="#6d6d6d" style="fill:var(--color171, #6d6d6d)" d="M.571 11.673a.367.367 0 0 1-.065.229.367.367 0 0 1 .065-.229z"/><path fill="#727272" style="fill:var(--color172, #727272)" d="M31.396 11.673a.36.36 0 0 1 .065.229.36.36 0 0 1-.065-.229z"/><path fill="#b2b2b2" style="fill:var(--color173, #b2b2b2)" d="M13.11 12.033a209.971 209.971 0 0 0 0 7.445c-.002.018-.013.029-.033.033a213.653 213.653 0 0 1 0-7.51c.02.004.031.015.033.033z"/><path fill="#040404" style="fill:var(--color174, #040404)" d="M13.11 12.033c2.367 1.222 4.729 2.452 7.086 3.69l.033.065a562.782 562.782 0 0 1-7.118 3.69 209.971 209.971 0 0 1 0-7.445z"/><path fill="#d8d8d8" style="fill:var(--color175, #d8d8d8)" d="M20.196 15.722c.063.007.074.029.033.065l-.033-.065z"/><path fill="#9f9f9f" style="fill:var(--color21, #9f9f9f)" d="M5.437 22.188c.046.015.068.048.065.098-.046-.015-.068-.048-.065-.098z"/><path fill="#9a9a9a" style="fill:var(--color145, #9a9a9a)" d="M26.531 22.188c.002.05-.019.082-.065.098-.002-.05.019-.082.065-.098z"/><path fill="#a2a2a2" style="fill:var(--color28, #a2a2a2)" d="M26.367 22.416c.002.05-.019.082-.065.098-.002-.05.019-.082.065-.098zM5.763 22.612c.087.065.163.142.229.229a.398.398 0 0 1-.229-.229z"/><path fill="#787878" style="fill:var(--color41, #787878)" d="M26.237 22.58a.952.952 0 0 1-.359.359c.109-.131.229-.25.359-.359z"/><path fill="gray" style="fill:var(--color5, #808080)" d="M25.747 23.037c-.015.046-.048.068-.098.065.015-.046.048-.068.098-.065z"/><path fill="#7b7b7b" style="fill:var(--color29, #7b7b7b)" d="M6.286 23.069c.04.014.072.036.098.065-.055.007-.087-.015-.098-.065z"/><path fill="#767676" style="fill:var(--color16, #767676)" d="M25.649 23.102c-.015.046-.048.068-.098.065.015-.046.048-.068.098-.065z"/><path fill="#818181" style="fill:var(--color176, #818181)" d="M6.449 23.167c.04.014.072.036.098.065-.055.007-.087-.015-.098-.065z"/><path fill="#5e5e5e" style="fill:var(--color3, #5e5e5e)" d="M25.127 23.363a.328.328 0 0 1-.261.098.95.95 0 0 1 .261-.098z"/><path fill="#818181" style="fill:var(--color176, #818181)" d="M2.237 24.212c.051.01.072.043.065.098a.231.231 0 0 1-.065-.098z"/><path fill="#7c7c7c" style="fill:var(--color8, #7c7c7c)" d="M2.4 24.473c.051.01.072.043.065.098a.231.231 0 0 1-.065-.098z"/><path fill="#9a9a9a" style="fill:var(--color145, #9a9a9a)" d="M5.11 27.739a.244.244 0 0 1 .163.131.244.244 0 0 1-.163-.131z"/><path fill="#8d8d8d" style="fill:var(--color166, #8d8d8d)" d="M5.437 28.033c.05-.002.082.019.098.065-.05.002-.082-.019-.098-.065z"/><path fill="#8c8c8c" style="fill:var(--color12, #8c8c8c)" d="M5.633 28.196c.062.008.106.04.131.098a.155.155 0 0 1-.131-.098z"/><path fill="#9c9c9c" style="fill:var(--color24, #9c9c9c)" d="M6.024 28.522c.05-.002.082.019.098.065-.05.002-.082-.019-.098-.065z"/><path fill="#8f8f8f" style="fill:var(--color32, #8f8f8f)" d="M6.873 29.143c.05-.002.082.019.098.065-.05.002-.082-.019-.098-.065z"/><path fill="#7b7b7b" style="fill:var(--color29, #7b7b7b)" d="M6.971 29.208c.05-.002.082.019.098.065-.05.002-.082-.019-.098-.065z"/><path fill="#858585" style="fill:var(--color6, #858585)" d="M7.069 29.273c.05-.002.082.019.098.065-.05.002-.082-.019-.098-.065z"/><path fill="#868686" style="fill:var(--color130, #868686)" d="M7.167 29.339c.05-.002.082.019.098.065-.05.002-.082-.019-.098-.065z"/><path fill="#878787" style="fill:var(--color14, #878787)" d="M7.265 29.404c.05-.002.082.019.098.065-.05.002-.082-.019-.098-.065z"/><path fill="#a0a0a0" style="fill:var(--color23, #a0a0a0)" d="M7.363 29.469c.05-.002.082.019.098.065-.05.002-.082-.019-.098-.065z"/><path fill="#9e9e9e" style="fill:var(--color80, #9e9e9e)" d="M7.625 29.633c.05-.002.082.019.098.065-.05.002-.082-.019-.098-.065z"/><path fill="#7a7a7a" style="fill:var(--color11, #7a7a7a)" d="M10.433 31.004c.072-.012.126.009.163.065a.369.369 0 0 1-.163-.065z"/><path fill="#636363" style="fill:var(--color85, #636363)" d="M11.445 31.331a.367.367 0 0 1 .229.065.367.367 0 0 1-.229-.065z"/><path fill="#626262" style="fill:var(--color177, #626262)" d="M11.804 31.429a.367.367 0 0 1 .229.065.367.367 0 0 1-.229-.065z"/></symbol><symbol id="icon-close" viewBox="0 0 32 32"><path d="M32 3.223 28.777 0 16 12.777 3.223 0 0 3.223 12.777 16 0 28.777 3.223 32 16 19.223 28.777 32 32 28.777 19.223 16 32 3.223z"/></symbol><symbol id="icon-person" viewBox="0 0 32 32"><path fill="#fe0000" style="fill:var(--color1, #fe0000)" opacity=".975" d="M14.32.56c3.324-.298 5.911.929 7.76 3.68 2.067 4.146 1.187 7.533-2.64 10.16-4.081 2-7.467 1.173-10.16-2.48-1.507-2.816-1.347-5.535.48-8.16 1.22-1.527 2.74-2.594 4.56-3.2z"/><path fill="#fe0000" style="fill:var(--color1, #fe0000)" opacity=".988" d="M5.84 16.4a22.684 22.684 0 0 1 7.84 1.04 16.12 16.12 0 0 0 2.32.24c3.137-.489 6.284-.916 9.44-1.28 3.371.278 5.105 2.118 5.2 5.52a82.112 82.112 0 0 0 0 9.04H1.52c-.027-2.934 0-5.867.08-8.8-.148-1.969.518-3.595 2-4.88a5.314 5.314 0 0 1 2.24-.88z"/></symbol><symbol id="icon-burger" viewBox="0 0 47 32"><path stroke-linejoin="round" stroke-linecap="round" stroke-width="4.364" d="M1.96 29.154h42.965M1.96 15.615h42.965M1.96 2.077h42.965"/></symbol><symbol id="icon-lupa" viewBox="0 0 32 32"><path d="m31.121 26.879-7.341-7.342a14.128 14.128 0 0 1-4.243 4.242l7.342 7.342a2.998 2.998 0 0 0 4.242 0 2.998 2.998 0 0 0 0-4.242zM24 12c0-6.627-5.373-12-12-12S0 5.373 0 12s5.373 12 12 12 12-5.373 12-12zm-12 9c-4.963 0-9-4.037-9-9s4.037-9 9-9 9 4.037 9 9-4.037 9-9 9z"/><path d="M5 12h2c0-2.757 2.243-5 5-5V5c-3.859 0-7 3.141-7 7z"/></symbol></defs></svg>