<svg aria-hidden="true" style="position: absolute; width: 0; height: 0; overflow: hidden;" version="1.1" xmlns="http://www.w3.org/2000/svg" xmlns:xlink="http://www.w3.org/1999/xlink">
<defs>
<symbol id="icon-logo" viewBox="0 0 55 32">
<path fill="#fe0000" style="fill: var(--color1, #fe0000)" opacity="0.997" d="M14.114 0.868c0.513 0.683 0.835 1.45 0.966 2.301 0.118 0.876-0.040 1.699-0.474 2.468-0.473 0.784-1.066 1.466-1.781 2.046-0.828 0.657-1.736 1.185-2.726 1.583-0.484 0.197-0.976 0.369-1.478 0.516-0.399 0.111-0.798 0.218-1.199 0.321-0.957 0.261-1.874 0.619-2.754 1.074-0.666 0.35-1.277 0.778-1.834 1.283-0.488 0.451-0.892 0.966-1.21 1.544-0.242 0.446-0.403 0.92-0.481 1.422-0.009 0.074-0.016 0.149-0.021 0.223-0.149-0.396-0.261-0.802-0.335-1.22-0.135-0.724-0.158-1.451-0.070-2.182 0.202-1.47 0.889-2.652 2.060-3.545 0.304-0.227 0.625-0.429 0.962-0.607 1.188-0.61 2.396-1.175 3.625-1.694 0.842-0.354 1.683-0.71 2.524-1.067 0.648-0.276 1.282-0.581 1.903-0.913 0.465-0.252 0.899-0.547 1.304-0.885 0.323-0.274 0.591-0.591 0.805-0.952 0.302-0.543 0.373-1.115 0.213-1.715z"></path>
<path fill="#fe0000" style="fill: var(--color1, #fe0000)" opacity="0.996" d="M15.271 9.067c0.015 0.037 0.026 0.077 0.031 0.119 0.080 0.647-0.029 1.261-0.328 1.841-0.215 0.407-0.488 0.77-0.819 1.091-0.504 0.463-1.048 0.872-1.631 1.227-0.605 0.365-1.232 0.69-1.882 0.976-0.702 0.302-1.407 0.599-2.112 0.892-0.478 0.204-0.943 0.434-1.394 0.69-0.47 0.27-0.894 0.601-1.272 0.993-0.531 0.585-0.884 1.266-1.060 2.043-0.285 1.148-0.213 2.273 0.216 3.374 0.213 0.536 0.476 1.045 0.788 1.527 0.167 0.257 0.339 0.51 0.516 0.76 0.334 0.453 0.671 0.904 1.011 1.352 0.496 0.662 0.94 1.359 1.332 2.091 0.338 0.634 0.605 1.296 0.802 1.987 0.123 0.437 0.192 0.882 0.206 1.335 0 0.071-0.004 0.142-0.014 0.213-0.051-0.264-0.134-0.517-0.248-0.76-0.204-0.428-0.441-0.835-0.711-1.22-0.494-0.685-1.040-1.328-1.638-1.931-0.439-0.423-0.871-0.853-1.297-1.29-0.718-0.757-1.38-1.556-1.987-2.398-0.435-0.612-0.824-1.256-1.164-1.931-0.297-0.594-0.523-1.214-0.676-1.861-0.169-0.757-0.162-1.512 0.021-2.266 0.229-0.955 0.682-1.782 1.359-2.482 0.557-0.558 1.184-1.022 1.879-1.391 0.848-0.445 1.734-0.798 2.656-1.060 0.158-0.046 0.316-0.090 0.474-0.132 0.74-0.173 1.472-0.373 2.196-0.6 0.853-0.269 1.676-0.61 2.468-1.025 0.483-0.258 0.934-0.562 1.352-0.913 0.242-0.207 0.457-0.439 0.645-0.694 0.093-0.131 0.172-0.27 0.237-0.418 0.019-0.045 0.034-0.092 0.045-0.139z"></path>
<path fill="#1e2c3a" style="fill: var(--color2, #1e2c3a)" opacity="0.992" d="M40.035 15.146c0.286-0.033 0.542 0.038 0.767 0.213 0.262 0.246 0.328 0.538 0.199 0.875-0.12 0.223-0.305 0.361-0.554 0.415-0.141 0.023-0.283 0.030-0.425 0.021-0.258-0.023-0.466-0.136-0.624-0.338-0.099-0.158-0.137-0.33-0.112-0.516 0.042-0.246 0.171-0.431 0.387-0.554 0.114-0.062 0.235-0.1 0.363-0.115z"></path>
<path fill="#1e2c3a" style="fill: var(--color2, #1e2c3a)" opacity="0.997" d="M44.274 15.146c0.014 0 0.028 0 0.042 0-0.002 1.643 0 3.286 0.007 4.929 0.467-0.41 0.934-0.82 1.401-1.23 0.078-0.062 0.137-0.137 0.178-0.227 0.062-0.165 0.015-0.287-0.143-0.366-0.164-0.062-0.334-0.098-0.509-0.108 0-0.158 0-0.316 0-0.474 0.876 0 1.752 0 2.628 0 0 0.158 0 0.316 0 0.474-0.394 0.043-0.743 0.19-1.046 0.443-0.337 0.284-0.677 0.565-1.018 0.844 0.589 0.902 1.18 1.803 1.774 2.702 0.107 0.146 0.242 0.254 0.408 0.324 0.050 0.019 0.101 0.032 0.153 0.038 0 0.158 0 0.316 0 0.474-0.92 0-1.841 0-2.761 0-0.001-0.158 0.001-0.316 0.007-0.474 0.134-0.004 0.259-0.038 0.376-0.101 0.072-0.069 0.087-0.149 0.045-0.241-0.017-0.036-0.035-0.071-0.056-0.105-0.374-0.559-0.747-1.119-1.119-1.68-0.107 0.091-0.214 0.181-0.321 0.272-0.010 0.444-0.009 0.888 0.004 1.332 0.004 0.125 0.037 0.241 0.098 0.349 0.064 0.073 0.145 0.121 0.241 0.143 0.062 0.018 0.124 0.028 0.188 0.031 0 0.158 0 0.316 0 0.474-0.881 0-1.762 0-2.642 0 0-0.158 0-0.316 0-0.474 0.13-0.014 0.251-0.054 0.363-0.122 0.077-0.065 0.122-0.147 0.136-0.247 0.010-0.046 0.017-0.093 0.021-0.139 0.011-1.859 0.014-3.718 0.007-5.577-0.001-0.119-0.024-0.233-0.070-0.342-0.054-0.092-0.135-0.149-0.241-0.171-0.089-0.023-0.18-0.033-0.272-0.031 0-0.158 0-0.316 0-0.474 0.714-0.028 1.42-0.109 2.119-0.244z"></path>
<path fill="#1e2c3a" style="fill: var(--color2, #1e2c3a)" opacity="0.993" d="M22.975 16.917c-0.298 0.046-0.547 0.181-0.749 0.404-0.129 0.146-0.244 0.302-0.345 0.467-0.584-0.259-1.193-0.342-1.827-0.247-0.448 0.057-0.848 0.224-1.199 0.502-0.337 0.275-0.531 0.63-0.582 1.063-0.070 0.73 0.205 1.284 0.826 1.663-0.211 0.118-0.401 0.266-0.568 0.443-0.113 0.129-0.19 0.278-0.23 0.446-0.061 0.328 0.031 0.603 0.275 0.826 0.187 0.145 0.396 0.244 0.627 0.3-0.097 0.023-0.195 0.046-0.293 0.070-0.19 0.048-0.371 0.117-0.544 0.209-0.179 0.098-0.313 0.238-0.401 0.422-0.135 0.375-0.075 0.714 0.181 1.018 0.201 0.203 0.435 0.36 0.701 0.471 0.436 0.172 0.89 0.265 1.359 0.279 0.536 0.029 1.065-0.013 1.59-0.125 0.376-0.085 0.723-0.236 1.039-0.453 0.47-0.344 0.68-0.807 0.631-1.391-0.025-0.351-0.168-0.642-0.429-0.875-0.228-0.184-0.483-0.316-0.767-0.397-0.274-0.055-0.55-0.088-0.83-0.098-0.495-0.019-0.99-0.038-1.485-0.056-0.187-0.008-0.371-0.038-0.551-0.091-0.079-0.032-0.141-0.084-0.185-0.157-0.047-0.125-0.028-0.238 0.056-0.342 0.103-0.11 0.225-0.194 0.366-0.251 0.139 0.043 0.281 0.072 0.425 0.087 0.443 0.042 0.882 0.019 1.318-0.070 0.319-0.066 0.612-0.192 0.878-0.376 0.285-0.204 0.477-0.475 0.575-0.812 0.163-0.731-0.033-1.344-0.589-1.841 0.098-0.197 0.254-0.266 0.467-0.206 0.098 0.033 0.195 0.065 0.293 0.098 0.103 0.031 0.209 0.049 0.317 0.052 0.251-0.001 0.407-0.122 0.467-0.363 0.035-0.258-0.059-0.453-0.282-0.582-0.17-0.079-0.349-0.108-0.537-0.087zM20.465 17.99c0.356-0.028 0.622 0.111 0.798 0.418 0.119 0.222 0.184 0.459 0.195 0.711 0.027 0.309-0.008 0.612-0.105 0.906-0.072 0.204-0.194 0.37-0.366 0.498-0.161 0.099-0.335 0.136-0.523 0.112-0.214-0.033-0.385-0.137-0.512-0.31-0.165-0.246-0.253-0.518-0.265-0.816-0.027-0.312 0.008-0.616 0.105-0.913 0.066-0.184 0.174-0.339 0.324-0.464 0.105-0.076 0.221-0.123 0.349-0.143zM20.319 23.017c0.177-0.001 0.353 0 0.53 0.003 0.315 0.010 0.619 0.071 0.913 0.181 0.168 0.066 0.313 0.165 0.436 0.296 0.148 0.201 0.169 0.414 0.063 0.641-0.084 0.131-0.195 0.234-0.331 0.31-0.261 0.134-0.537 0.216-0.83 0.244-0.36 0.034-0.721 0.032-1.081-0.007-0.279-0.031-0.541-0.112-0.788-0.244-0.119-0.070-0.218-0.162-0.296-0.275-0.141-0.28-0.101-0.53 0.122-0.749 0.17-0.14 0.363-0.237 0.579-0.293 0.225-0.058 0.453-0.094 0.683-0.108z"></path>
<path fill="#1e2c3a" style="fill: var(--color2, #1e2c3a)" opacity="0.995" d="M9.785 17.509c-0.986 0.092-1.691 0.585-2.116 1.478-0.181 0.427-0.268 0.874-0.261 1.339-0.007 0.574 0.133 1.109 0.422 1.604 0.433 0.696 1.060 1.095 1.879 1.196 0.642 0.070 1.227-0.077 1.757-0.439 0.587-0.444 0.946-1.031 1.077-1.76 0.098-0.584 0.056-1.158-0.126-1.722-0.242-0.674-0.685-1.168-1.328-1.481-0.417-0.173-0.852-0.244-1.304-0.213zM9.896 17.99c0.294-0.033 0.516 0.077 0.666 0.328 0.093 0.189 0.151 0.389 0.174 0.6 0.040 0.296 0.063 0.594 0.070 0.892 0.014 0.451 0.009 0.902-0.014 1.352-0.012 0.306-0.054 0.608-0.126 0.906-0.045 0.183-0.136 0.338-0.275 0.464-0.191 0.128-0.398 0.158-0.62 0.091-0.19-0.076-0.321-0.209-0.394-0.401-0.067-0.183-0.111-0.371-0.132-0.565-0.037-0.31-0.058-0.622-0.063-0.934-0.009-0.43-0.002-0.86 0.021-1.29 0.014-0.285 0.053-0.566 0.119-0.844 0.038-0.15 0.105-0.285 0.202-0.404 0.103-0.107 0.227-0.172 0.373-0.195z"></path>
<path fill="#1e2c3a" style="fill: var(--color2, #1e2c3a)" opacity="0.995" d="M15.090 17.509c0.023 0 0.046 0 0.070 0-0.001 0.402 0 0.804 0.004 1.206 0.137-0.304 0.327-0.57 0.568-0.798 0.387-0.314 0.822-0.402 1.304-0.265 0.486 0.194 0.701 0.553 0.645 1.077-0.078 0.371-0.305 0.583-0.68 0.638-0.257 0.039-0.479-0.029-0.666-0.206-0.119-0.135-0.159-0.291-0.119-0.467 0.019-0.079 0.037-0.158 0.056-0.237 0.019-0.063 0.009-0.121-0.028-0.174-0.022-0.017-0.046-0.030-0.073-0.038-0.114-0.015-0.214 0.015-0.3 0.091-0.096 0.090-0.174 0.194-0.234 0.31-0.179 0.348-0.286 0.718-0.321 1.108-0.009 0.090-0.016 0.181-0.021 0.272-0.005 0.641-0.005 1.283 0 1.924 0.004 0.129 0.037 0.249 0.098 0.363 0.081 0.107 0.189 0.167 0.324 0.178 0.121 0.008 0.242 0.012 0.363 0.010 0 0.156 0 0.311 0 0.467-0.967 0-1.933 0-2.9 0 0-0.158 0-0.316 0-0.474 0.147-0.014 0.279-0.064 0.397-0.15 0.068-0.084 0.106-0.18 0.115-0.289 0.006-0.053 0.011-0.107 0.014-0.16 0.005-1.078 0.005-2.157 0-3.235 0.001-0.125-0.025-0.243-0.077-0.356-0.057-0.069-0.13-0.109-0.22-0.122-0.087-0.018-0.176-0.026-0.265-0.024 0-0.163 0-0.325 0-0.488 0.651-0.033 1.299-0.087 1.945-0.16z"></path>
<path fill="#1e2c3a" style="fill: var(--color2, #1e2c3a)" opacity="0.994" d="M26.259 17.509c-0.363 0.025-0.707 0.121-1.032 0.289-0.602 0.352-1.005 0.862-1.21 1.53-0.138 0.502-0.171 1.011-0.098 1.527 0.097 0.653 0.384 1.205 0.861 1.656 0.581 0.492 1.252 0.696 2.015 0.613 1.006-0.096 1.691-0.613 2.057-1.551-0.154-0.065-0.311-0.123-0.471-0.174-0.006 0.002-0.012 0.005-0.017 0.007-0.151 0.307-0.353 0.575-0.607 0.805-0.226 0.196-0.489 0.315-0.788 0.356-0.271 0.033-0.52-0.025-0.746-0.174-0.2-0.17-0.333-0.383-0.401-0.638-0.064-0.235-0.104-0.475-0.119-0.718-0.012-0.267-0.013-0.534-0.003-0.802 1.067 0 2.133 0 3.2 0 0.012-0.365-0.034-0.723-0.136-1.074-0.209-0.665-0.626-1.15-1.251-1.454-0.402-0.164-0.821-0.23-1.255-0.199zM26.356 17.983c0.337-0.031 0.57 0.108 0.701 0.418 0.065 0.181 0.107 0.366 0.125 0.558 0.026 0.269 0.039 0.538 0.038 0.809-0.509 0-1.018 0-1.527 0 0.001-0.361 0.032-0.718 0.094-1.074 0.027-0.158 0.081-0.307 0.16-0.446 0.098-0.147 0.234-0.235 0.408-0.265z"></path>
<path fill="#1e2c3a" style="fill: var(--color2, #1e2c3a)" opacity="0.996" d="M31.474 17.509c0.023 0 0.047 0 0.070 0-0.001 0.397 0 0.795 0.003 1.192 0.245-0.364 0.555-0.658 0.931-0.882 0.467-0.252 0.953-0.296 1.457-0.132 0.222 0.092 0.398 0.24 0.526 0.443 0.093 0.157 0.162 0.324 0.206 0.502 0.211-0.289 0.465-0.534 0.76-0.735 0.5-0.317 1.032-0.387 1.596-0.209 0.291 0.126 0.494 0.336 0.61 0.631 0.104 0.277 0.166 0.562 0.188 0.858 0.009 0.104 0.016 0.209 0.021 0.314 0.002 0.788 0.005 1.576 0.007 2.363-0.002 0.145 0.023 0.284 0.077 0.418 0.048 0.080 0.117 0.135 0.206 0.164 0.079 0.031 0.16 0.051 0.244 0.059 0 0.158 0 0.316 0 0.474-0.881 0-1.762 0-2.642 0 0-0.158 0-0.316 0-0.474 0.136-0.008 0.262-0.049 0.376-0.122 0.061-0.053 0.099-0.119 0.115-0.199 0.019-0.085 0.031-0.171 0.035-0.258 0.005-0.864 0.005-1.729 0-2.593-0-0.202-0.031-0.4-0.091-0.593-0.087-0.196-0.238-0.289-0.453-0.279-0.177-0.002-0.334 0.052-0.471 0.164-0.147 0.137-0.255 0.301-0.324 0.491-0.099 0.287-0.15 0.582-0.153 0.885-0.005 0.634-0.005 1.269 0 1.903 0.003 0.109 0.019 0.216 0.049 0.321 0.024 0.073 0.067 0.132 0.129 0.178 0.108 0.062 0.224 0.096 0.349 0.101 0 0.158 0 0.316 0 0.474-0.883 0-1.766 0-2.649 0 0-0.158 0-0.316 0-0.474 0.134-0.006 0.257-0.044 0.37-0.115 0.090-0.081 0.14-0.182 0.15-0.303 0.006-0.039 0.011-0.079 0.014-0.119 0.005-0.904 0.005-1.808 0-2.712-0.005-0.171-0.032-0.339-0.084-0.502-0.084-0.204-0.237-0.302-0.46-0.293-0.261 0.004-0.468 0.111-0.62 0.321-0.128 0.184-0.216 0.386-0.265 0.607-0.038 0.17-0.061 0.342-0.070 0.516-0.005 0.688-0.005 1.376 0 2.064 0.003 0.127 0.036 0.245 0.098 0.356 0.068 0.074 0.15 0.124 0.247 0.15 0.062 0.018 0.124 0.028 0.188 0.031 0 0.158 0 0.316 0 0.474-0.883 0-1.766 0-2.649 0 0-0.158 0-0.316 0-0.474 0.13-0.014 0.251-0.054 0.363-0.122 0.044-0.035 0.078-0.078 0.101-0.129 0.041-0.115 0.062-0.233 0.063-0.356 0.005-1.074 0.005-2.147 0-3.221-0.002-0.114-0.025-0.223-0.070-0.328-0.058-0.088-0.141-0.141-0.247-0.157-0.080-0.018-0.162-0.026-0.244-0.024 0-0.163 0-0.325 0-0.488 0.651-0.033 1.299-0.087 1.945-0.16z"></path>
<path fill="#1e2c3a" style="fill: var(--color2, #1e2c3a)" opacity="0.995" d="M41.025 17.509c0.026 0 0.051 0 0.077 0-0.003 1.508 0 3.017 0.010 4.525 0.009 0.1 0.039 0.193 0.091 0.279 0.096 0.093 0.211 0.15 0.345 0.171 0.025 0.007 0.051 0.010 0.077 0.010 0 0.158 0 0.316 0 0.474-0.89 0-1.78 0-2.67 0 0-0.158 0-0.316 0-0.474 0.147-0.014 0.279-0.064 0.397-0.15 0.068-0.084 0.106-0.18 0.115-0.289 0.006-0.053 0.011-0.107 0.014-0.16 0.005-1.076 0.005-2.152 0-3.228-0-0.122-0.026-0.238-0.077-0.349-0.059-0.076-0.137-0.122-0.234-0.136-0.083-0.018-0.166-0.026-0.251-0.024 0-0.163 0-0.325 0-0.488 0.705-0.030 1.406-0.084 2.105-0.16z"></path>
<path fill="#1e2c3a" style="fill: var(--color2, #1e2c3a)" opacity="0.994" d="M50.583 17.509c-0.242 0.015-0.481 0.054-0.718 0.115-0.316 0.083-0.597 0.229-0.844 0.439-0.178 0.16-0.289 0.359-0.331 0.596-0.057 0.356 0.067 0.627 0.373 0.812 0.184 0.085 0.377 0.116 0.579 0.091 0.258-0.027 0.457-0.149 0.596-0.366 0.096-0.204 0.103-0.411 0.021-0.62-0.067-0.116-0.137-0.23-0.209-0.342-0.024-0.030-0.029-0.063-0.014-0.098 0.033-0.037 0.071-0.066 0.115-0.087 0.197-0.081 0.401-0.109 0.614-0.084 0.148 0.010 0.287 0.049 0.418 0.119 0.142 0.090 0.236 0.216 0.282 0.38 0.044 0.15 0.069 0.304 0.077 0.46 0.009 0.321 0.013 0.641 0.010 0.962-0.126 0.006-0.251 0.017-0.376 0.031-0.503 0.048-0.993 0.153-1.471 0.314-0.281 0.096-0.536 0.236-0.767 0.418-0.194 0.159-0.337 0.356-0.429 0.589-0.131 0.375-0.124 0.747 0.021 1.115 0.239 0.468 0.621 0.727 1.147 0.777 0.443 0.027 0.857-0.070 1.241-0.293 0.267-0.153 0.512-0.335 0.736-0.547 0.045 0.122 0.1 0.238 0.167 0.349 0.136 0.219 0.33 0.357 0.582 0.415 0.449 0.077 0.853-0.023 1.213-0.3 0.087-0.064 0.153-0.144 0.199-0.241 0.016-0.050 0.021-0.101 0.014-0.153-0.029-0.085-0.089-0.126-0.178-0.122-0.096 0.031-0.191 0.064-0.286 0.098-0.17 0.018-0.255-0.060-0.254-0.234-0-0.967-0.005-1.934-0.014-2.9-0.065-0.883-0.529-1.421-1.391-1.614-0.371-0.073-0.745-0.099-1.122-0.080zM51.51 20.326c0.014 0 0.028 0 0.042 0 0.016 0.276 0.018 0.553 0.004 0.83-0.014 0.222-0.063 0.436-0.146 0.641-0.14 0.302-0.377 0.451-0.711 0.446-0.392-0.001-0.625-0.194-0.697-0.579-0.044-0.396 0.092-0.714 0.408-0.952 0.245-0.161 0.512-0.27 0.802-0.328 0.101-0.020 0.201-0.040 0.3-0.059z"></path>
</symbol>
<symbol id="icon-phone" viewBox="0 0 32 32">
<path fill="#fe0000" style="fill: var(--color1, #fe0000)" opacity="0.697" d="M13.52 0.4c-6.536 1.282-10.776 5.122-12.72 11.52-1.033 4.378-0.393 8.484 1.92 12.32 3.75 5.342 8.897 7.662 15.44 6.96 6.564-1.23 10.804-5.044 12.72-11.44 1.033-4.378 0.393-8.484-1.92-12.32-3.753-5.317-8.9-7.663-15.44-7.040zM14.64 0.88c8.14 0.027 13.394 3.921 15.76 11.68 1.183 7.634-1.617 13.261-8.4 16.88-6.819 2.608-12.712 1.248-17.68-4.080-4.587-6.347-4.587-12.693 0-19.040 2.748-3.147 6.188-4.96 10.32-5.44z"></path>
<path fill="#fe0000" style="fill: var(--color1, #fe0000)" opacity="0.865" d="M18.32 7.76c3.579-0.392 5.552 1.182 5.92 4.72 0.062 0.927-0.152 1.78-0.64 2.56-0.442-0.115-0.816-0.382-1.12-0.8 1.028-2.409 0.335-4.115-2.080-5.12-0.931-0.166-1.811-0.033-2.64 0.4-0.323-0.296-0.616-0.616-0.88-0.96 0.419-0.396 0.899-0.662 1.44-0.8z"></path>
<path fill="#fe0000" style="fill: var(--color1, #fe0000)" opacity="0.941" d="M9.040 7.92c0.577-0.046 1.137 0.007 1.68 0.16 0.538 1.21 1.098 2.41 1.68 3.6-0.616 0.51-1.122 1.124-1.52 1.84-0.107 0.16-0.107 0.32 0 0.48 2.155 2.422 4.368 4.795 6.64 7.12 0.837-0.351 1.557-0.911 2.16-1.68 1.353 0.822 2.606 1.756 3.76 2.8-0.224 0.556-0.491 1.089-0.8 1.6-1.436 0.71-2.929 1.19-4.48 1.44-5.059-2.392-8.712-6.152-10.96-11.28-0.267-0.561-0.454-1.148-0.56-1.76 0.517-1.623 1.317-3.063 2.4-4.32z"></path>
<path fill="#fe0000" style="fill: var(--color1, #fe0000)" opacity="0.827" d="M16.88 10.16c3.65-0.323 5.277 1.33 4.88 4.96-0.146 0.346-0.333 0.666-0.56 0.96-0.32-0.213-0.587-0.48-0.8-0.8 0.822-2.038 0.182-3.398-1.92-4.080-0.653-0.067-1.266 0.066-1.84 0.4-0.27-0.243-0.51-0.509-0.72-0.8 0.33-0.217 0.65-0.43 0.96-0.64z"></path>
</symbol>
<symbol id="icon-email" viewBox="0 0 32 32">
<path fill="#010101" style="fill: var(--color1, #010101)" d="M14.939-0.016c-1.074 0.076-2.13 0.261-3.167 0.555-0.066 0.046-0.142 0.068-0.229 0.065-0.066 0.046-0.142 0.068-0.229 0.065-0.081 0.009-0.157 0.030-0.229 0.065-0.084 0.064-0.182 0.097-0.294 0.098-0.606 0.195-1.194 0.434-1.763 0.718-0.015 0.046-0.048 0.068-0.098 0.065-0.087 0.014-0.163 0.047-0.229 0.098-0.015 0.046-0.048 0.068-0.098 0.065-0.119 0.038-0.228 0.092-0.327 0.163-0.015 0.046-0.048 0.068-0.098 0.065-0.223 0.095-0.43 0.215-0.62 0.359-0.015 0.046-0.048 0.068-0.098 0.065-0.098 0.038-0.185 0.093-0.261 0.163-0.015 0.046-0.048 0.068-0.098 0.065-0.015 0.046-0.048 0.068-0.098 0.065-0.086 0.043-0.162 0.097-0.229 0.163-0.015 0.046-0.048 0.068-0.098 0.065-0.056 0.017-0.1 0.050-0.131 0.098-0.025 0.058-0.068 0.090-0.131 0.098s-0.106 0.040-0.131 0.098c-0.035 0.068-0.090 0.112-0.163 0.131-0.121 0.071-0.23 0.159-0.327 0.261-0.046 0.079-0.111 0.133-0.196 0.163-0.057 0.090-0.133 0.155-0.229 0.196-0.033 0.011-0.054 0.033-0.065 0.065-0.089 0.122-0.198 0.22-0.327 0.294-0.087 0.065-0.163 0.141-0.229 0.229-0.044 0.065-0.098 0.12-0.163 0.163-0.152 0.131-0.294 0.272-0.425 0.425-0.008 0.062-0.040 0.106-0.098 0.131-0.076 0.054-0.142 0.12-0.196 0.196 0.002 0.050-0.019 0.082-0.065 0.098-0.033 0.011-0.054 0.033-0.065 0.065-0.008 0.062-0.040 0.106-0.098 0.131-0.033 0.011-0.054 0.033-0.065 0.065 0.002 0.050-0.019 0.082-0.065 0.098-0.088 0.057-0.153 0.133-0.196 0.229 0.002 0.050-0.019 0.082-0.065 0.098-0.058 0.025-0.090 0.068-0.098 0.131s-0.040 0.106-0.098 0.131c0.002 0.050-0.019 0.082-0.065 0.098-0.058 0.025-0.090 0.068-0.098 0.131 0.002 0.050-0.019 0.082-0.065 0.098-0.048 0.031-0.081 0.074-0.098 0.131 0.002 0.050-0.019 0.082-0.065 0.098 0.002 0.050-0.019 0.082-0.065 0.098-0.071 0.076-0.125 0.163-0.163 0.261 0.002 0.050-0.019 0.082-0.065 0.098-0.144 0.191-0.264 0.397-0.359 0.62 0.002 0.050-0.019 0.082-0.065 0.098-0.071 0.098-0.125 0.207-0.163 0.327 0.002 0.050-0.019 0.082-0.065 0.098-0.345 0.635-0.628 1.299-0.849 1.992 0.012 0.072-0.009 0.126-0.065 0.163 0 0.011 0 0.022 0 0.033 0.012 0.072-0.009 0.126-0.065 0.163-0.032 0.084-0.054 0.171-0.065 0.261 0.003 0.087-0.019 0.163-0.065 0.229 0.003 0.087-0.019 0.163-0.065 0.229-0.030 0.035-0.041 0.078-0.033 0.131 0.003 0.087-0.019 0.163-0.065 0.229-0.234 0.923-0.387 1.859-0.457 2.808 0 0.675 0 1.35 0 2.025 0.166 2.383 0.819 4.625 1.959 6.727 0.051 0.010 0.072 0.043 0.065 0.098 0.057 0.124 0.122 0.244 0.196 0.359 0.051 0.010 0.072 0.043 0.065 0.098 0.011 0.022 0.022 0.044 0.033 0.065 0.064 0.017 0.096 0.061 0.098 0.131 0.035 0.081 0.078 0.157 0.131 0.229 0.064 0.017 0.096 0.061 0.098 0.131-0.006 0.032 0.005 0.054 0.033 0.065 0.064 0.017 0.096 0.061 0.098 0.131 0.41 0.623 0.867 1.211 1.371 1.763 0.065 0 0.098 0.033 0.098 0.098 0.272 0.294 0.555 0.577 0.849 0.849 0.073 0.019 0.128 0.062 0.163 0.131 0.054 0.076 0.12 0.142 0.196 0.196 0.050-0.002 0.082 0.019 0.098 0.065 0.022 0.044 0.054 0.076 0.098 0.098 0.062 0.008 0.106 0.040 0.131 0.098 0.074 0.091 0.161 0.167 0.261 0.229 0.050-0.002 0.082 0.019 0.098 0.065 0.162 0.146 0.336 0.277 0.522 0.392 0.062 0.008 0.106 0.040 0.131 0.098 0.050-0.002 0.082 0.019 0.098 0.065 0.050-0.002 0.082 0.019 0.098 0.065s0.048 0.068 0.098 0.065c0.050-0.002 0.082 0.019 0.098 0.065 0.050-0.002 0.082 0.019 0.098 0.065 0.050-0.002 0.082 0.019 0.098 0.065 0.050-0.002 0.082 0.019 0.098 0.065 0.046 0.045 0.1 0.078 0.163 0.098 0.050-0.002 0.082 0.019 0.098 0.065 0.011 0.027 0.033 0.038 0.065 0.033 0.050-0.002 0.082 0.019 0.098 0.065 0.011 0.027 0.033 0.038 0.065 0.033 0.050-0.002 0.082 0.019 0.098 0.065 0.055 0.049 0.12 0.082 0.196 0.098 0.050-0.002 0.082 0.019 0.098 0.065 0.94 0.53 1.931 0.943 2.971 1.241 0.087-0.003 0.163 0.019 0.229 0.065 0.087-0.003 0.163 0.019 0.229 0.065 1.038 0.29 2.094 0.475 3.167 0.555 0.675 0 1.35 0 2.025 0 3.084-0.221 5.882-1.228 8.392-3.020 3.982-3.005 6.191-7.005 6.629-12 0-0.675 0-1.35 0-2.024-0.070-0.946-0.222-1.882-0.457-2.808-0.047-0.066-0.068-0.142-0.065-0.229 0.009-0.052-0.002-0.096-0.033-0.131-0.047-0.066-0.068-0.142-0.065-0.229-0.047-0.066-0.068-0.142-0.065-0.229-0.026-0.122-0.059-0.242-0.098-0.359-0.056-0.037-0.078-0.091-0.065-0.163-0.308-0.964-0.722-1.878-1.241-2.743-0.046-0.015-0.068-0.048-0.065-0.098 0.006-0.032-0.005-0.054-0.033-0.065-0.046-0.015-0.068-0.048-0.065-0.098 0.006-0.032-0.005-0.054-0.033-0.065-0.046-0.015-0.068-0.048-0.065-0.098-0.020-0.063-0.053-0.118-0.098-0.163-0.046-0.015-0.068-0.048-0.065-0.098-0.046-0.015-0.068-0.048-0.065-0.098-0.046-0.015-0.068-0.048-0.065-0.098-0.027-0.077-0.071-0.142-0.131-0.196-0.046-0.015-0.068-0.048-0.065-0.098-0.046-0.015-0.068-0.048-0.065-0.098-0.058-0.025-0.090-0.068-0.098-0.131-0.115-0.186-0.245-0.36-0.392-0.522-0.046-0.015-0.068-0.048-0.065-0.098-0.011-0.033-0.033-0.054-0.065-0.065-0.046-0.015-0.068-0.048-0.065-0.098-0.022-0.044-0.054-0.076-0.098-0.098-0.058-0.025-0.090-0.068-0.098-0.131-0.022-0.044-0.054-0.076-0.098-0.098-0.046-0.015-0.068-0.048-0.065-0.098-0.044-0.065-0.098-0.12-0.163-0.163-0.068-0.035-0.112-0.090-0.131-0.163-0.789-0.877-1.671-1.639-2.645-2.286-0.070-0.002-0.113-0.034-0.131-0.098-0.055 0.007-0.087-0.015-0.098-0.065-0.055 0.007-0.087-0.015-0.098-0.065-0.055 0.007-0.087-0.015-0.098-0.065-0.087-0.054-0.174-0.109-0.261-0.163-0.055 0.007-0.087-0.015-0.098-0.065-0.022-0.011-0.044-0.022-0.065-0.033-0.055 0.007-0.087-0.015-0.098-0.065-0.022-0.011-0.044-0.022-0.065-0.033-0.055 0.007-0.087-0.015-0.098-0.065-2.18-1.242-4.52-1.949-7.020-2.122-0.675 0-1.35 0-2.024 0zM6.906 10.139c6.041-0.044 12.082-0.044 18.122 0-0.050-0.002-0.082 0.019-0.098 0.065-0.062 0.008-0.106 0.040-0.131 0.098-0.062 0.008-0.106 0.040-0.131 0.098-0.225 0.129-0.431 0.281-0.62 0.457-0.062 0.008-0.106 0.040-0.131 0.098-0.062 0.008-0.106 0.040-0.131 0.098-0.225 0.129-0.431 0.281-0.62 0.457-0.062 0.008-0.106 0.040-0.131 0.098-0.062 0.008-0.106 0.040-0.131 0.098-0.225 0.129-0.431 0.281-0.62 0.457-0.062 0.008-0.106 0.040-0.131 0.098-0.062 0.008-0.106 0.040-0.131 0.098-0.225 0.129-0.431 0.281-0.62 0.457-0.062 0.008-0.106 0.040-0.131 0.098-0.062 0.008-0.106 0.040-0.131 0.098-0.225 0.129-0.431 0.281-0.62 0.457-0.062 0.008-0.106 0.040-0.131 0.098-0.062 0.008-0.106 0.040-0.131 0.098-0.225 0.129-0.431 0.281-0.62 0.457-0.062 0.008-0.106 0.040-0.131 0.098-0.062 0.008-0.106 0.040-0.131 0.098-0.225 0.129-0.431 0.281-0.62 0.457-0.062 0.008-0.106 0.040-0.131 0.098-0.062 0.008-0.106 0.040-0.131 0.098-0.225 0.129-0.431 0.281-0.62 0.457-0.062 0.008-0.106 0.040-0.131 0.098-0.062 0.008-0.106 0.040-0.131 0.098-0.225 0.129-0.431 0.281-0.62 0.457-0.062 0.008-0.106 0.040-0.131 0.098-0.062 0.008-0.106 0.040-0.131 0.098-0.225 0.129-0.431 0.281-0.62 0.457-0.062 0.008-0.106 0.040-0.131 0.098-3.025-2.23-6.051-4.462-9.078-6.694zM25.061 11.184c0.033 3.575 0.044 7.156 0.033 10.743-6.084 0-12.169 0-18.253 0-0.011-3.576 0-7.146 0.033-10.71 0.015 0.046 0.048 0.068 0.098 0.065 0.015 0.046 0.048 0.068 0.098 0.065 0.162 0.146 0.336 0.277 0.522 0.392 0.025 0.058 0.068 0.090 0.131 0.098 0.025 0.058 0.068 0.090 0.131 0.098 0.015 0.046 0.048 0.068 0.098 0.065 0.162 0.146 0.336 0.277 0.522 0.392 0.025 0.058 0.068 0.090 0.131 0.098 0.025 0.058 0.068 0.090 0.131 0.098 0.015 0.046 0.048 0.068 0.098 0.065 0.162 0.146 0.336 0.277 0.522 0.392 0.025 0.058 0.068 0.090 0.131 0.098 0.025 0.058 0.068 0.090 0.131 0.098 0.015 0.046 0.048 0.068 0.098 0.065 0.162 0.146 0.336 0.277 0.522 0.392 0.025 0.058 0.068 0.090 0.131 0.098 0.025 0.058 0.068 0.090 0.131 0.098 0.015 0.046 0.048 0.068 0.098 0.065 0.162 0.146 0.336 0.277 0.522 0.392 0.025 0.058 0.068 0.090 0.131 0.098 0.025 0.058 0.068 0.090 0.131 0.098 0.015 0.046 0.048 0.068 0.098 0.065 0.162 0.146 0.336 0.277 0.522 0.392 0.025 0.058 0.068 0.090 0.131 0.098 0.025 0.058 0.068 0.090 0.131 0.098 0.015 0.046 0.048 0.068 0.098 0.065 0.162 0.146 0.336 0.277 0.522 0.392 0.025 0.058 0.068 0.090 0.131 0.098 0.025 0.058 0.068 0.090 0.131 0.098 0.015 0.046 0.048 0.068 0.098 0.065 0.162 0.146 0.336 0.277 0.522 0.392 0.025 0.058 0.068 0.090 0.131 0.098 0.025 0.058 0.068 0.090 0.131 0.098 0.015 0.046 0.048 0.068 0.098 0.065 0.162 0.146 0.336 0.277 0.522 0.392 0.025 0.058 0.068 0.090 0.131 0.098 0.025 0.058 0.068 0.090 0.131 0.098 0.015 0.046 0.048 0.068 0.098 0.065 0.162 0.146 0.336 0.277 0.522 0.392 0.025 0.058 0.068 0.090 0.131 0.098 0.025 0.058 0.068 0.090 0.131 0.098 0.015 0.046 0.048 0.068 0.098 0.065 0.042 0.079 0.096 0.084 0.163 0.016 3.012-2.229 6.016-4.466 9.012-6.71z"></path>
<path fill="#555" style="fill: var(--color2, #555)" d="M11.771 0.539c-0.066 0.046-0.142 0.068-0.229 0.065 0.066-0.046 0.142-0.068 0.229-0.065z"></path>
<path fill="#5e5e5e" style="fill: var(--color3, #5e5e5e)" d="M11.543 0.604c-0.066 0.046-0.142 0.068-0.229 0.065 0.066-0.046 0.142-0.068 0.229-0.065z"></path>
<path fill="#696969" style="fill: var(--color4, #696969)" d="M11.086 0.735c-0.084 0.064-0.182 0.097-0.294 0.098 0.089-0.051 0.187-0.084 0.294-0.098z"></path>
<path fill="#808080" style="fill: var(--color5, #808080)" d="M9.029 1.551c-0.015 0.046-0.048 0.068-0.098 0.065 0.015-0.046 0.048-0.068 0.098-0.065z"></path>
<path fill="#858585" style="fill: var(--color6, #858585)" d="M8.702 1.714c-0.015 0.046-0.048 0.068-0.098 0.065 0.015-0.046 0.048-0.068 0.098-0.065z"></path>
<path fill="#838383" style="fill: var(--color7, #838383)" d="M8.278 1.943c-0.015 0.046-0.048 0.068-0.098 0.065 0.015-0.046 0.048-0.068 0.098-0.065z"></path>
<path fill="#838383" style="fill: var(--color7, #838383)" d="M23.984 2.106c0.040 0.014 0.072 0.036 0.098 0.065-0.055 0.007-0.087-0.015-0.098-0.065z"></path>
<path fill="#7c7c7c" style="fill: var(--color8, #7c7c7c)" d="M24.147 2.204c0.040 0.014 0.072 0.036 0.098 0.065-0.055 0.007-0.087-0.015-0.098-0.065z"></path>
<path fill="#7e7e7e" style="fill: var(--color9, #7e7e7e)" d="M24.31 2.302c0.040 0.014 0.072 0.036 0.098 0.065-0.055 0.007-0.087-0.015-0.098-0.065z"></path>
<path fill="#7d7d7d" style="fill: var(--color10, #7d7d7d)" d="M7.559 2.367c-0.015 0.046-0.048 0.068-0.098 0.065 0.015-0.046 0.048-0.068 0.098-0.065z"></path>
<path fill="#7a7a7a" style="fill: var(--color11, #7a7a7a)" d="M24.669 2.531c0.040 0.014 0.072 0.036 0.098 0.065-0.055 0.007-0.087-0.015-0.098-0.065z"></path>
<path fill="#8c8c8c" style="fill: var(--color12, #8c8c8c)" d="M7.2 2.596c-0.015 0.046-0.048 0.068-0.098 0.065 0.015-0.046 0.048-0.068 0.098-0.065z"></path>
<path fill="#757575" style="fill: var(--color13, #757575)" d="M24.767 2.596c0.040 0.014 0.072 0.036 0.098 0.065-0.055 0.007-0.087-0.015-0.098-0.065z"></path>
<path fill="#878787" style="fill: var(--color14, #878787)" d="M7.102 2.661c-0.015 0.046-0.048 0.068-0.098 0.065 0.015-0.046 0.048-0.068 0.098-0.065z"></path>
<path fill="#757575" style="fill: var(--color13, #757575)" d="M24.865 2.661c0.040 0.014 0.072 0.036 0.098 0.065-0.055 0.007-0.087-0.015-0.098-0.065z"></path>
<path fill="#7f7f7f" style="fill: var(--color15, #7f7f7f)" d="M24.963 2.727c0.056 0.017 0.1 0.050 0.131 0.098-0.070-0.002-0.113-0.034-0.131-0.098z"></path>
<path fill="#767676" style="fill: var(--color16, #767676)" d="M6.776 2.89c-0.015 0.046-0.048 0.068-0.098 0.065 0.015-0.046 0.048-0.068 0.098-0.065z"></path>
<path fill="#7a7a7a" style="fill: var(--color11, #7a7a7a)" d="M6.547 3.053c-0.025 0.058-0.068 0.090-0.131 0.098 0.025-0.058 0.068-0.090 0.131-0.098z"></path>
<path fill="#5b5b5b" style="fill: var(--color17, #5b5b5b)" d="M6.286 3.249c-0.035 0.068-0.090 0.112-0.163 0.131 0.035-0.068 0.090-0.112 0.163-0.131z"></path>
<path fill="#5f5f5f" style="fill: var(--color18, #5f5f5f)" d="M5.796 3.641c-0.046 0.079-0.111 0.133-0.196 0.163 0.046-0.079 0.111-0.133 0.196-0.163z"></path>
<path fill="#696969" style="fill: var(--color4, #696969)" d="M5.6 3.804c-0.057 0.090-0.133 0.155-0.229 0.196 0.057-0.090 0.133-0.155 0.229-0.196z"></path>
<path fill="#555" style="fill: var(--color2, #555)" d="M5.306 4.065c-0.089 0.122-0.198 0.22-0.327 0.294 0.089-0.122 0.198-0.22 0.327-0.294z"></path>
<path fill="#9b9b9b" style="fill: var(--color19, #9b9b9b)" d="M4.751 4.588c-0.044 0.065-0.098 0.12-0.163 0.163 0.022-0.087 0.076-0.141 0.163-0.163z"></path>
<path fill="#9b9b9b" style="fill: var(--color19, #9b9b9b)" d="M27.739 5.11c0.068 0.035 0.112 0.090 0.131 0.163-0.068-0.035-0.112-0.090-0.131-0.163z"></path>
<path fill="#888" style="fill: var(--color20, #888)" d="M4.163 5.176c-0.008 0.062-0.040 0.106-0.098 0.131 0.008-0.062 0.040-0.106 0.098-0.131z"></path>
<path fill="#8c8c8c" style="fill: var(--color12, #8c8c8c)" d="M28.033 5.437c0.046 0.015 0.068 0.048 0.065 0.098-0.046-0.015-0.068-0.048-0.065-0.098z"></path>
<path fill="#9f9f9f" style="fill: var(--color21, #9f9f9f)" d="M3.869 5.502c0.002 0.050-0.019 0.082-0.065 0.098-0.002-0.050 0.019-0.082 0.065-0.098z"></path>
<path fill="#8a8a8a" style="fill: var(--color22, #8a8a8a)" d="M28.196 5.633c0.058 0.025 0.090 0.068 0.098 0.131-0.058-0.025-0.090-0.068-0.098-0.131z"></path>
<path fill="#838383" style="fill: var(--color7, #838383)" d="M3.739 5.665c-0.008 0.062-0.040 0.106-0.098 0.131 0.008-0.062 0.040-0.106 0.098-0.131z"></path>
<path fill="#858585" style="fill: var(--color6, #858585)" d="M3.575 5.861c0.002 0.050-0.019 0.082-0.065 0.098-0.002-0.050 0.019-0.082 0.065-0.098z"></path>
<path fill="#a0a0a0" style="fill: var(--color23, #a0a0a0)" d="M28.392 5.861c0.046 0.015 0.068 0.048 0.065 0.098-0.046-0.015-0.068-0.048-0.065-0.098z"></path>
<path fill="#9b9b9b" style="fill: var(--color19, #9b9b9b)" d="M28.522 6.024c0.046 0.015 0.068 0.048 0.065 0.098-0.046-0.015-0.068-0.048-0.065-0.098z"></path>
<path fill="#9c9c9c" style="fill: var(--color24, #9c9c9c)" d="M3.314 6.188c0.002 0.050-0.019 0.082-0.065 0.098-0.002-0.050 0.019-0.082 0.065-0.098z"></path>
<path fill="#757575" style="fill: var(--color13, #757575)" d="M3.151 6.416c-0.008 0.062-0.040 0.106-0.098 0.131 0.008-0.062 0.040-0.106 0.098-0.131z"></path>
<path fill="#757575" style="fill: var(--color13, #757575)" d="M3.053 6.547c0.002 0.050-0.019 0.082-0.065 0.098-0.002-0.050 0.019-0.082 0.065-0.098z"></path>
<path fill="#7a7a7a" style="fill: var(--color11, #7a7a7a)" d="M28.98 6.645c0.058 0.025 0.090 0.068 0.098 0.131-0.058-0.025-0.090-0.068-0.098-0.131z"></path>
<path fill="#797979" style="fill: var(--color25, #797979)" d="M2.89 6.776c0.002 0.050-0.019 0.082-0.065 0.098-0.002-0.050 0.019-0.082 0.065-0.098z"></path>
<path fill="#909090" style="fill: var(--color26, #909090)" d="M29.078 6.776c0.046 0.015 0.068 0.048 0.065 0.098-0.046-0.015-0.068-0.048-0.065-0.098z"></path>
<path fill="#7f7f7f" style="fill: var(--color15, #7f7f7f)" d="M29.143 6.873c0.046 0.015 0.068 0.048 0.065 0.098-0.046-0.015-0.068-0.048-0.065-0.098z"></path>
<path fill="#9d9d9d" style="fill: var(--color27, #9d9d9d)" d="M2.727 7.004c0.002 0.050-0.019 0.082-0.065 0.098-0.002-0.050 0.019-0.082 0.065-0.098z"></path>
<path fill="#a2a2a2" style="fill: var(--color28, #a2a2a2)" d="M2.661 7.102c0.002 0.050-0.019 0.082-0.065 0.098-0.002-0.050 0.019-0.082 0.065-0.098z"></path>
<path fill="#757575" style="fill: var(--color13, #757575)" d="M29.339 7.167c0.046 0.015 0.068 0.048 0.065 0.098-0.046-0.015-0.068-0.048-0.065-0.098z"></path>
<path fill="#7b7b7b" style="fill: var(--color29, #7b7b7b)" d="M29.404 7.265c0.046 0.015 0.068 0.048 0.065 0.098-0.046-0.015-0.068-0.048-0.065-0.098z"></path>
<path fill="#8e8e8e" style="fill: var(--color30, #8e8e8e)" d="M29.469 7.363c0.046 0.015 0.068 0.048 0.065 0.098-0.046-0.015-0.068-0.048-0.065-0.098z"></path>
<path fill="#939393" style="fill: var(--color31, #939393)" d="M2.433 7.461c0.002 0.050-0.019 0.082-0.065 0.098-0.002-0.050 0.019-0.082 0.065-0.098z"></path>
<path fill="#8f8f8f" style="fill: var(--color32, #8f8f8f)" d="M29.633 7.625c0.046 0.015 0.068 0.048 0.065 0.098-0.046-0.015-0.068-0.048-0.065-0.098z"></path>
<path fill="#949494" style="fill: var(--color33, #949494)" d="M29.731 7.788c0.046 0.015 0.068 0.048 0.065 0.098-0.046-0.015-0.068-0.048-0.065-0.098z"></path>
<path fill="#9f9f9f" style="fill: var(--color21, #9f9f9f)" d="M29.829 7.951c0.046 0.015 0.068 0.048 0.065 0.098-0.046-0.015-0.068-0.048-0.065-0.098z"></path>
<path fill="#9d9d9d" style="fill: var(--color27, #9d9d9d)" d="M2.008 8.18c0.002 0.050-0.019 0.082-0.065 0.098-0.002-0.050 0.019-0.082 0.065-0.098z"></path>
<path fill="#a3a3a3" style="fill: var(--color34, #a3a3a3)" d="M1.78 8.604c0.002 0.050-0.019 0.082-0.065 0.098-0.002-0.050 0.019-0.082 0.065-0.098z"></path>
<path fill="#989898" style="fill: var(--color35, #989898)" d="M25.029 10.139c-6.041-0.044-12.082-0.044-18.122 0-0.041 0.001-0.074-0.015-0.098-0.049 6.095-0.022 12.19-0.022 18.286 0-0.018 0.023-0.040 0.040-0.065 0.049z"></path>
<path fill="#7d7d7d" style="fill: var(--color10, #7d7d7d)" d="M24.931 10.204c-0.025 0.058-0.068 0.090-0.131 0.098 0.025-0.058 0.068-0.090 0.131-0.098z"></path>
<path fill="#7a7a7a" style="fill: var(--color11, #7a7a7a)" d="M24.8 10.302c-0.025 0.058-0.068 0.090-0.131 0.098 0.025-0.058 0.068-0.090 0.131-0.098z"></path>
<path fill="#7c7c7c" style="fill: var(--color8, #7c7c7c)" d="M0.865 10.694c0.012 0.072-0.009 0.126-0.065 0.163 0.010-0.062 0.031-0.117 0.065-0.163z"></path>
<path fill="#7d7d7d" style="fill: var(--color10, #7d7d7d)" d="M24.049 10.857c-0.025 0.058-0.068 0.090-0.131 0.098 0.025-0.058 0.068-0.090 0.131-0.098z"></path>
<path fill="#7e7e7e" style="fill: var(--color9, #7e7e7e)" d="M31.135 10.792c0.034 0.047 0.056 0.101 0.065 0.163-0.056-0.037-0.078-0.091-0.065-0.163z"></path>
<path fill="#7d7d7d" style="fill: var(--color10, #7d7d7d)" d="M0.8 10.89c0.012 0.072-0.009 0.126-0.065 0.163 0.010-0.062 0.031-0.117 0.065-0.163z"></path>
<path fill="#7a7a7a" style="fill: var(--color11, #7a7a7a)" d="M23.918 10.955c-0.025 0.058-0.068 0.090-0.131 0.098 0.025-0.058 0.068-0.090 0.131-0.098z"></path>
<path fill="#e4e4e4" style="fill: var(--color36, #e4e4e4)" d="M6.873 11.216c-0.033 3.565-0.044 7.135-0.033 10.71-0.043-3.576-0.043-7.156 0-10.743 0.020 0.004 0.031 0.015 0.033 0.033z"></path>
<path fill="#1a1a1a" style="fill: var(--color37, #1a1a1a)" d="M25.061 11.184c0.002-0.018 0.013-0.029 0.033-0.033 0.044 3.597 0.044 7.189 0 10.775 0.011-3.586-0-7.167-0.033-10.743z"></path>
<path fill="#a0a0a0" style="fill: var(--color23, #a0a0a0)" d="M6.873 11.216c0.050-0.002 0.082 0.019 0.098 0.065-0.050 0.002-0.082-0.019-0.098-0.065z"></path>
<path fill="#767676" style="fill: var(--color16, #767676)" d="M6.971 11.282c0.050-0.002 0.082 0.019 0.098 0.065-0.050 0.002-0.082-0.019-0.098-0.065z"></path>
<path fill="#656565" style="fill: var(--color38, #656565)" d="M0.669 11.314c0.003 0.087-0.019 0.163-0.065 0.229-0.003-0.087 0.019-0.163 0.065-0.229z"></path>
<path fill="#6a6a6a" style="fill: var(--color39, #6a6a6a)" d="M31.298 11.314c0.047 0.066 0.068 0.142 0.065 0.229-0.047-0.066-0.068-0.142-0.065-0.229z"></path>
<path fill="#7d7d7d" style="fill: var(--color10, #7d7d7d)" d="M23.167 11.51c-0.025 0.058-0.068 0.090-0.131 0.098 0.025-0.058 0.068-0.090 0.131-0.098z"></path>
<path fill="#606060" style="fill: var(--color40, #606060)" d="M0.604 11.543c0.003 0.087-0.019 0.163-0.065 0.229-0.003-0.087 0.019-0.163 0.065-0.229z"></path>
<path fill="#7a7a7a" style="fill: var(--color11, #7a7a7a)" d="M23.037 11.608c-0.025 0.058-0.068 0.090-0.131 0.098 0.025-0.058 0.068-0.090 0.131-0.098z"></path>
<path fill="#787878" style="fill: var(--color41, #787878)" d="M7.592 11.739c0.062 0.008 0.106 0.040 0.131 0.098-0.062-0.008-0.106-0.040-0.131-0.098z"></path>
<path fill="#696969" style="fill: var(--color4, #696969)" d="M31.363 11.543c0.047 0.066 0.068 0.142 0.065 0.229-0.047-0.066-0.068-0.142-0.065-0.229z"></path>
<path fill="#7b7b7b" style="fill: var(--color29, #7b7b7b)" d="M7.722 11.837c0.062 0.008 0.106 0.040 0.131 0.098-0.062-0.008-0.106-0.040-0.131-0.098z"></path>
<path fill="#767676" style="fill: var(--color16, #767676)" d="M7.853 11.935c0.050-0.002 0.082 0.019 0.098 0.065-0.050 0.002-0.082-0.019-0.098-0.065z"></path>
<path fill="#777" style="fill: var(--color42, #777)" d="M0.506 11.902c0.003 0.087-0.019 0.163-0.065 0.229-0.003-0.087 0.019-0.163 0.065-0.229z"></path>
<path fill="#7c7c7c" style="fill: var(--color8, #7c7c7c)" d="M31.461 11.902c0.047 0.066 0.068 0.142 0.065 0.229-0.047-0.066-0.068-0.142-0.065-0.229z"></path>
<path fill="#7d7d7d" style="fill: var(--color10, #7d7d7d)" d="M22.286 12.163c-0.025 0.058-0.068 0.090-0.131 0.098 0.025-0.058 0.068-0.090 0.131-0.098z"></path>
<path fill="#797979" style="fill: var(--color25, #797979)" d="M22.155 12.261c-0.025 0.058-0.068 0.090-0.131 0.098 0.025-0.058 0.068-0.090 0.131-0.098z"></path>
<path fill="#787878" style="fill: var(--color41, #787878)" d="M8.473 12.392c0.062 0.008 0.106 0.040 0.131 0.098-0.062-0.008-0.106-0.040-0.131-0.098z"></path>
<path fill="#7b7b7b" style="fill: var(--color29, #7b7b7b)" d="M8.604 12.49c0.062 0.008 0.106 0.040 0.131 0.098-0.062-0.008-0.106-0.040-0.131-0.098z"></path>
<path fill="#767676" style="fill: var(--color16, #767676)" d="M8.735 12.588c0.050-0.002 0.082 0.019 0.098 0.065-0.050 0.002-0.082-0.019-0.098-0.065z"></path>
<path fill="#7d7d7d" style="fill: var(--color10, #7d7d7d)" d="M21.404 12.816c-0.025 0.058-0.068 0.090-0.131 0.098 0.025-0.058 0.068-0.090 0.131-0.098z"></path>
<path fill="#7a7a7a" style="fill: var(--color11, #7a7a7a)" d="M21.273 12.914c-0.025 0.058-0.068 0.090-0.131 0.098 0.025-0.058 0.068-0.090 0.131-0.098z"></path>
<path fill="#767676" style="fill: var(--color16, #767676)" d="M9.355 13.045c0.062 0.008 0.106 0.040 0.131 0.098-0.062-0.008-0.106-0.040-0.131-0.098z"></path>
<path fill="#7b7b7b" style="fill: var(--color29, #7b7b7b)" d="M9.486 13.143c0.062 0.008 0.106 0.040 0.131 0.098-0.062-0.008-0.106-0.040-0.131-0.098z"></path>
<path fill="#767676" style="fill: var(--color16, #767676)" d="M9.616 13.241c0.050-0.002 0.082 0.019 0.098 0.065-0.050 0.002-0.082-0.019-0.098-0.065z"></path>
<path fill="#7c7c7c" style="fill: var(--color8, #7c7c7c)" d="M20.522 13.469c-0.025 0.058-0.068 0.090-0.131 0.098 0.025-0.058 0.068-0.090 0.131-0.098z"></path>
<path fill="#7a7a7a" style="fill: var(--color11, #7a7a7a)" d="M20.392 13.567c-0.025 0.058-0.068 0.090-0.131 0.098 0.025-0.058 0.068-0.090 0.131-0.098z"></path>
<path fill="#787878" style="fill: var(--color41, #787878)" d="M10.237 13.698c0.062 0.008 0.106 0.040 0.131 0.098-0.062-0.008-0.106-0.040-0.131-0.098z"></path>
<path fill="#7b7b7b" style="fill: var(--color29, #7b7b7b)" d="M10.367 13.796c0.062 0.008 0.106 0.040 0.131 0.098-0.062-0.008-0.106-0.040-0.131-0.098z"></path>
<path fill="#757575" style="fill: var(--color13, #757575)" d="M10.498 13.894c0.050-0.002 0.082 0.019 0.098 0.065-0.050 0.002-0.082-0.019-0.098-0.065z"></path>
<path fill="#7d7d7d" style="fill: var(--color10, #7d7d7d)" d="M19.641 14.122c-0.025 0.058-0.068 0.090-0.131 0.098 0.025-0.058 0.068-0.090 0.131-0.098z"></path>
<path fill="#7a7a7a" style="fill: var(--color11, #7a7a7a)" d="M19.51 14.22c-0.025 0.058-0.068 0.090-0.131 0.098 0.025-0.058 0.068-0.090 0.131-0.098z"></path>
<path fill="#787878" style="fill: var(--color41, #787878)" d="M11.118 14.351c0.062 0.008 0.106 0.040 0.131 0.098-0.062-0.008-0.106-0.040-0.131-0.098z"></path>
<path fill="#7b7b7b" style="fill: var(--color29, #7b7b7b)" d="M11.249 14.449c0.062 0.008 0.106 0.040 0.131 0.098-0.062-0.008-0.106-0.040-0.131-0.098z"></path>
<path fill="#767676" style="fill: var(--color16, #767676)" d="M11.38 14.547c0.050-0.002 0.082 0.019 0.098 0.065-0.050 0.002-0.082-0.019-0.098-0.065z"></path>
<path fill="#7d7d7d" style="fill: var(--color10, #7d7d7d)" d="M18.759 14.775c-0.025 0.058-0.068 0.090-0.131 0.098 0.025-0.058 0.068-0.090 0.131-0.098z"></path>
<path fill="#7a7a7a" style="fill: var(--color11, #7a7a7a)" d="M18.629 14.873c-0.025 0.058-0.068 0.090-0.131 0.098 0.025-0.058 0.068-0.090 0.131-0.098z"></path>
<path fill="#787878" style="fill: var(--color41, #787878)" d="M12 15.004c0.062 0.008 0.106 0.040 0.131 0.098-0.062-0.008-0.106-0.040-0.131-0.098z"></path>
<path fill="#7b7b7b" style="fill: var(--color29, #7b7b7b)" d="M12.131 15.102c0.062 0.008 0.106 0.040 0.131 0.098-0.062-0.008-0.106-0.040-0.131-0.098z"></path>
<path fill="#767676" style="fill: var(--color16, #767676)" d="M12.261 15.2c0.050-0.002 0.082 0.019 0.098 0.065-0.050 0.002-0.082-0.019-0.098-0.065z"></path>
<path fill="#7d7d7d" style="fill: var(--color10, #7d7d7d)" d="M17.878 15.429c-0.025 0.058-0.068 0.090-0.131 0.098 0.025-0.058 0.068-0.090 0.131-0.098z"></path>
<path fill="#777" style="fill: var(--color42, #777)" d="M17.747 15.527c-0.025 0.058-0.068 0.090-0.131 0.098 0.025-0.058 0.068-0.090 0.131-0.098z"></path>
<path fill="#787878" style="fill: var(--color41, #787878)" d="M12.882 15.657c0.062 0.008 0.106 0.040 0.131 0.098-0.062-0.008-0.106-0.040-0.131-0.098z"></path>
<path fill="#7b7b7b" style="fill: var(--color29, #7b7b7b)" d="M13.012 15.755c0.062 0.008 0.106 0.040 0.131 0.098-0.062-0.008-0.106-0.040-0.131-0.098z"></path>
<path fill="#767676" style="fill: var(--color16, #767676)" d="M13.143 15.853c0.050-0.002 0.082 0.019 0.098 0.065-0.050 0.002-0.082-0.019-0.098-0.065z"></path>
<path fill="#7d7d7d" style="fill: var(--color10, #7d7d7d)" d="M16.996 16.082c-0.025 0.058-0.068 0.090-0.131 0.098 0.025-0.058 0.068-0.090 0.131-0.098z"></path>
<path fill="#7a7a7a" style="fill: var(--color11, #7a7a7a)" d="M16.865 16.18c-0.025 0.058-0.068 0.090-0.131 0.098 0.025-0.058 0.068-0.090 0.131-0.098z"></path>
<path fill="#777" style="fill: var(--color42, #777)" d="M13.763 16.31c0.062 0.008 0.106 0.040 0.131 0.098-0.062-0.008-0.106-0.040-0.131-0.098z"></path>
<path fill="#7b7b7b" style="fill: var(--color29, #7b7b7b)" d="M13.894 16.408c0.062 0.008 0.106 0.040 0.131 0.098-0.062-0.008-0.106-0.040-0.131-0.098z"></path>
<path fill="#767676" style="fill: var(--color16, #767676)" d="M14.024 16.506c0.050-0.002 0.082 0.019 0.098 0.065-0.050 0.002-0.082-0.019-0.098-0.065z"></path>
<path fill="#7c7c7c" style="fill: var(--color8, #7c7c7c)" d="M16.114 16.735c-0.025 0.058-0.068 0.090-0.131 0.098 0.025-0.058 0.068-0.090 0.131-0.098z"></path>
<path fill="#787878" style="fill: var(--color41, #787878)" d="M14.645 16.963c0.062 0.008 0.106 0.040 0.131 0.098-0.062-0.008-0.106-0.040-0.131-0.098z"></path>
<path fill="#7d7d7d" style="fill: var(--color10, #7d7d7d)" d="M14.775 17.061c0.062 0.008 0.106 0.040 0.131 0.098-0.062-0.008-0.106-0.040-0.131-0.098z"></path>
<path fill="#757575" style="fill: var(--color13, #757575)" d="M14.906 17.159c0.050-0.002 0.082 0.019 0.098 0.065-0.050 0.002-0.082-0.019-0.098-0.065z"></path>
<path fill="#787878" style="fill: var(--color41, #787878)" d="M15.527 17.616c0.062 0.008 0.106 0.040 0.131 0.098-0.062-0.008-0.106-0.040-0.131-0.098z"></path>
<path fill="#7e7e7e" style="fill: var(--color9, #7e7e7e)" d="M15.657 17.714c0.062 0.008 0.106 0.040 0.131 0.098-0.062-0.008-0.106-0.040-0.131-0.098z"></path>
<path fill="#767676" style="fill: var(--color16, #767676)" d="M15.788 17.812c0.050-0.002 0.082 0.019 0.098 0.065-0.050 0.002-0.082-0.019-0.098-0.065z"></path>
<path fill="#787878" style="fill: var(--color41, #787878)" d="M1.943 23.69c0.051 0.010 0.072 0.043 0.065 0.098-0.029-0.026-0.051-0.058-0.065-0.098z"></path>
<path fill="#7f7f7f" style="fill: var(--color15, #7f7f7f)" d="M2.204 24.147c0.051 0.010 0.072 0.043 0.065 0.098-0.029-0.026-0.051-0.058-0.065-0.098z"></path>
<path fill="#848484" style="fill: var(--color43, #848484)" d="M2.302 24.31c0.064 0.017 0.096 0.061 0.098 0.131-0.048-0.031-0.081-0.074-0.098-0.131z"></path>
<path fill="#828282" style="fill: var(--color44, #828282)" d="M2.531 24.669c0.064 0.017 0.096 0.061 0.098 0.131-0.048-0.031-0.081-0.074-0.098-0.131z"></path>
<path fill="#7b7b7b" style="fill: var(--color29, #7b7b7b)" d="M2.661 24.865c0.064 0.017 0.096 0.061 0.098 0.131-0.048-0.031-0.081-0.074-0.098-0.131z"></path>
<path fill="#a9a9a9" style="fill: var(--color45, #a9a9a9)" d="M4.131 26.759c0.065 0 0.098 0.033 0.098 0.098-0.044-0.022-0.076-0.054-0.098-0.098z"></path>
<path fill="#929292" style="fill: var(--color46, #929292)" d="M5.078 27.706c0.073 0.019 0.128 0.062 0.163 0.131-0.073-0.019-0.128-0.062-0.163-0.131z"></path>
<path fill="#8f8f8f" style="fill: var(--color32, #8f8f8f)" d="M5.437 28.033c0.050-0.002 0.082 0.019 0.098 0.065-0.050 0.002-0.082-0.019-0.098-0.065z"></path>
<path fill="#888" style="fill: var(--color20, #888)" d="M5.633 28.196c0.062 0.008 0.106 0.040 0.131 0.098-0.062-0.008-0.106-0.040-0.131-0.098z"></path>
<path fill="#9b9b9b" style="fill: var(--color19, #9b9b9b)" d="M6.024 28.522c0.050-0.002 0.082 0.019 0.098 0.065-0.050 0.002-0.082-0.019-0.098-0.065z"></path>
<path fill="#7a7a7a" style="fill: var(--color11, #7a7a7a)" d="M6.645 28.98c0.062 0.008 0.106 0.040 0.131 0.098-0.062-0.008-0.106-0.040-0.131-0.098z"></path>
<path fill="#969696" style="fill: var(--color47, #969696)" d="M6.776 29.078c0.050-0.002 0.082 0.019 0.098 0.065-0.050 0.002-0.082-0.019-0.098-0.065z"></path>
<path fill="#828282" style="fill: var(--color44, #828282)" d="M6.873 29.143c0.050-0.002 0.082 0.019 0.098 0.065-0.050 0.002-0.082-0.019-0.098-0.065z"></path>
<path fill="#787878" style="fill: var(--color41, #787878)" d="M7.069 29.273c0.050-0.002 0.082 0.019 0.098 0.065-0.050 0.002-0.082-0.019-0.098-0.065z"></path>
<path fill="#797979" style="fill: var(--color25, #797979)" d="M7.167 29.339c0.050-0.002 0.082 0.019 0.098 0.065-0.050 0.002-0.082-0.019-0.098-0.065z"></path>
<path fill="#7d7d7d" style="fill: var(--color10, #7d7d7d)" d="M7.265 29.404c0.050-0.002 0.082 0.019 0.098 0.065-0.050 0.002-0.082-0.019-0.098-0.065z"></path>
<path fill="#949494" style="fill: var(--color33, #949494)" d="M7.363 29.469c0.050-0.002 0.082 0.019 0.098 0.065-0.050 0.002-0.082-0.019-0.098-0.065z"></path>
<path fill="#939393" style="fill: var(--color31, #939393)" d="M7.625 29.633c0.050-0.002 0.082 0.019 0.098 0.065-0.050 0.002-0.082-0.019-0.098-0.065z"></path>
<path fill="#9c9c9c" style="fill: var(--color24, #9c9c9c)" d="M7.788 29.731c0.050-0.002 0.082 0.019 0.098 0.065-0.050 0.002-0.082-0.019-0.098-0.065z"></path>
<path fill="#a4a4a4" style="fill: var(--color48, #a4a4a4)" d="M7.951 29.829c0.050-0.002 0.082 0.019 0.098 0.065-0.050 0.002-0.082-0.019-0.098-0.065z"></path>
<path fill="#959595" style="fill: var(--color49, #959595)" d="M8.245 29.992c0.050-0.002 0.082 0.019 0.098 0.065-0.050 0.002-0.082-0.019-0.098-0.065z"></path>
<path fill="#717171" style="fill: var(--color50, #717171)" d="M11.314 31.298c0.087-0.003 0.163 0.019 0.229 0.065-0.087 0.003-0.163-0.019-0.229-0.065z"></path>
<path fill="#6f6f6f" style="fill: var(--color51, #6f6f6f)" d="M11.543 31.363c0.087-0.003 0.163 0.019 0.229 0.065-0.087 0.003-0.163-0.019-0.229-0.065z"></path>
</symbol>
<symbol id="icon-email-contacts" viewBox="0 0 32 32">
<path fill="#fe0000" style="fill: var(--color1, #fe0000)" opacity="0.697" d="M13.52 0.4c-6.536 1.282-10.776 5.122-12.72 11.52-1.033 4.378-0.393 8.484 1.92 12.32 3.75 5.342 8.897 7.662 15.44 6.96 6.564-1.23 10.804-5.044 12.72-11.44 1.033-4.378 0.393-8.484-1.92-12.32-3.753-5.317-8.9-7.663-15.44-7.040zM3.76 24.4c7.627 0 15.253 0 22.88 0 0-5.707 0-11.413 0-17.12-7.627 0-15.253 0-22.88 0 2.93-4.12 6.957-6.253 12.080-6.4 7.943 0.583 12.85 4.743 14.72 12.48 0.779 6.681-1.648 11.828-7.28 15.44-7.164 3.442-13.483 2.295-18.96-3.44-0.227-0.305-0.414-0.625-0.56-0.96zM3.76 7.28c0 5.707 0 11.413 0 17.12-2.409-3.288-3.289-6.968-2.64-11.040 0.404-2.258 1.284-4.285 2.64-6.080z"></path>
<path fill="#fffbfa" style="fill: var(--color2, #fffbfa)" d="M3.76 7.28c7.627 0 15.253 0 22.88 0 0 5.707 0 11.413 0 17.12-7.627 0-15.253 0-22.88 0 0-5.707 0-11.413 0-17.12z"></path>
<path fill="#fe0000" style="fill: var(--color3, #fe0000)" d="M5.68 8.56c6.32-0.186 12.666-0.213 19.040-0.080-2.822 2.982-5.702 5.915-8.64 8.8-0.587 0.32-1.173 0.32-1.76 0-2.864-2.934-5.744-5.841-8.64-8.72z"></path>
<path fill="#fe0000" style="fill: var(--color4, #fe0000)" d="M4.88 9.2c2.15 2.23 4.337 4.443 6.56 6.64-2.218 2.165-4.378 4.378-6.48 6.64-0.080-4.426-0.107-8.853-0.080-13.28z"></path>
<path fill="#fe0000" style="fill: var(--color4, #fe0000)" d="M25.36 9.2c0.186 4.4 0.213 8.826 0.080 13.28-2.102-2.262-4.262-4.475-6.48-6.64 2.224-2.144 4.357-4.357 6.4-6.64z"></path>
<path fill="#fe0000" style="fill: var(--color3, #fe0000)" d="M12.080 16.56c0.608 0.527 1.194 1.087 1.76 1.68 0.901 0.73 1.808 0.73 2.72 0 0.56-0.56 1.12-1.12 1.68-1.68 2.102 2.262 4.262 4.475 6.48 6.64-6.347 0.107-12.693 0.107-19.040 0 2.224-2.144 4.357-4.357 6.4-6.64z"></path>
</symbol>
<symbol id="icon-facebook" viewBox="0 0 32 32">
<path fill="#010002" style="fill: var(--color52, #010002)" opacity="0.998" d="M14.731-0.026c0.829 0 1.657 0 2.486 0 5.461 0.59 9.649 3.2 12.562 7.828 1.249 2.152 1.981 4.461 2.195 6.929 0 0.829 0 1.657 0 2.486-0.464 4.693-2.527 8.51-6.188 11.451-2.312 1.773-4.921 2.84-7.828 3.2 0-4.161 0-8.322 0-12.483 1.279 0.017 2.548-0 3.808-0.053 0.048-0.038 0.065-0.090 0.053-0.159 0.211-1.441 0.387-2.887 0.529-4.337-1.454-0.053-2.918-0.070-4.39-0.053-0.026-1.307 0.009-2.612 0.106-3.914 0.198-0.586 0.604-0.921 1.217-1.005 1.083-0.033 2.159-0.068 3.226-0.106 0.070-1.34 0.070-2.68 0-4.020-0.729-0.101-1.47-0.154-2.221-0.159-0.678-0.061-1.366-0.070-2.063-0.026-0.1 0.010-0.188 0.037-0.264 0.079-2.639 0.426-4.182 1.96-4.628 4.602-0.075 1.532-0.102 3.066-0.079 4.602-1.287 0-2.574 0-3.861 0-0.070 1.499-0.070 2.997 0 4.496 1.26 0.053 2.53 0.070 3.808 0.053 0 4.126 0 8.251 0 12.377-5.499-1.119-9.457-4.204-11.874-9.256-0.733-1.698-1.183-3.461-1.349-5.289 0-0.829 0-1.657 0-2.486 0.59-5.461 3.2-9.649 7.828-12.562 2.152-1.249 4.461-1.981 6.929-2.195z"></path>
<path fill="#868586" style="fill: var(--color53, #868586)" d="M20.284 5.58c-0.777-0.010-1.552 0.008-2.327 0.053 0.077-0.042 0.165-0.069 0.264-0.079 0.697-0.044 1.384-0.035 2.063 0.026z"></path>
<path fill="#fefefe" style="fill: var(--color54, #fefefe)" opacity="0.999" d="M20.284 5.58c0.752 0.005 1.492 0.058 2.221 0.159 0 1.322 0 2.645 0 3.967-0.838-0.017-1.667 0-2.486 0.053-0.212-0.009-0.424 0-0.635 0.026-0.048 0.015-0.084 0.041-0.106 0.079-0.613 0.084-1.019 0.419-1.217 1.005-0.080 0.16-0.124 0.337-0.132 0.529-0.026 1.146-0.035 2.292-0.026 3.438 1.481 0 2.962 0 4.443 0-0.142 1.451-0.318 2.896-0.529 4.337-1.302 0.087-2.606 0.14-3.914 0.159 0 4.178 0 8.357 0 12.536-0.237 0.029-0.466 0.064-0.688 0.106-0.829 0-1.657 0-2.486 0-0.488-0.061-0.982-0.132-1.481-0.212 0-4.143 0-8.287 0-12.43-1.278-0.053-2.565-0.070-3.861-0.053 0-1.481 0-2.962 0-4.443 1.287 0 2.574 0 3.861 0-0.022-1.535 0.004-3.069 0.079-4.602 0.447-2.642 1.989-4.175 4.628-4.602 0.775-0.045 1.551-0.063 2.327-0.053z"></path>
<path fill="#8b8a8b" style="fill: var(--color55, #8b8a8b)" d="M22.506 5.739c0.070 1.34 0.070 2.68 0 4.020-0.829 0-1.657 0-2.486 0 0.819-0.053 1.648-0.070 2.486-0.053 0-1.322 0-2.645 0-3.967z"></path>
<path fill="#2b2a2b" style="fill: var(--color56, #2b2a2b)" d="M20.020 9.759c0.829 0 1.657 0 2.486 0-1.068 0.038-2.143 0.073-3.226 0.106 0.022-0.038 0.057-0.065 0.106-0.079 0.211-0.026 0.422-0.035 0.635-0.026z"></path>
<path fill="#3b3a3c" style="fill: var(--color57, #3b3a3c)" d="M18.063 10.869c-0.097 1.302-0.132 2.607-0.106 3.914 1.472-0.018 2.936 0 4.39 0.053-1.481 0-2.962 0-4.443 0-0.009-1.146 0-2.292 0.026-3.438 0.008-0.192 0.052-0.368 0.132-0.529z"></path>
<path fill="#9a999a" style="fill: var(--color58, #9a999a)" d="M9.388 14.836c0 1.481 0 2.962 0 4.443 1.296-0.017 2.583 0 3.861 0.053-1.287 0-2.574 0-3.861 0-0.070-1.499-0.070-2.997 0-4.496z"></path>
<path fill="#acabac" style="fill: var(--color59, #acabac)" d="M21.818 19.174c0.013 0.068-0.005 0.121-0.053 0.159-1.287 0-2.574 0-3.861 0 1.308-0.019 2.612-0.072 3.914-0.159z"></path>
<path fill="#272628" style="fill: var(--color60, #272628)" d="M9.388 19.332c1.287 0 2.574 0 3.861 0 0 4.143 0 8.287 0 12.43-0.018 0-0.035 0-0.053 0 0-4.126 0-8.251 0-12.377-1.279 0.017-2.548-0-3.808-0.053z"></path>
<path fill="#2b2a2c" style="fill: var(--color61, #2b2a2c)" d="M17.904 19.332c1.287 0 2.574 0 3.861 0-1.26 0.053-2.53 0.070-3.808 0.053 0 4.161 0 8.322 0 12.483-0.018 0-0.035 0-0.053 0 0-4.178 0-8.357 0-12.536z"></path>
</symbol>
<symbol id="icon-instagram" viewBox="0 0 32 32">
<path fill="#000" style="fill: var(--color1, #000)" opacity="0.982" d="M14.844 3.156c-0.792 0.108-1.584 0.264-2.375 0.469-5.438 1.793-8.532 5.532-9.281 11.219-0.279 4.395 1.21 8.051 4.469 10.969 3.52 2.825 7.479 3.679 11.875 2.563 3.901-1.213 6.682-3.682 8.344-7.406 1.474-3.844 1.265-7.594-0.625-11.25-2.824-4.605-6.96-6.793-12.406-6.563zM10.594 8.969c3.688-0.010 7.375 0 11.063 0.031 0.64 0.372 1.025 0.924 1.156 1.656 0.031 0.833 0.042 1.666 0.031 2.5-1.334 0.010-2.667 0-4-0.031-1.227-1.114-2.622-1.384-4.188-0.813-0.464 0.173-0.86 0.444-1.188 0.813-1.521 0.031-3.041 0.042-4.563 0.031-0.010-0.792 0-1.584 0.031-2.375 0.301-0.832 0.853-1.437 1.656-1.813zM15.594 12.781c1.975-0.097 3.204 0.81 3.688 2.719 0.062 1.764-0.771 2.91-2.5 3.438-1.55 0.2-2.706-0.373-3.469-1.719-0.583-1.552-0.239-2.854 1.031-3.906 0.391-0.253 0.807-0.43 1.25-0.531zM9.031 14.031c1.188-0.010 2.375 0 3.563 0.031 0.029 0.026 0.049 0.057 0.063 0.094-0.818 2.118-0.297 3.816 1.563 5.094 2.158 0.968 3.918 0.499 5.281-1.406 0.658-1.229 0.689-2.469 0.094-3.719 0.536-0.071 1.077-0.102 1.625-0.094 0.524 0.001 1.044 0.022 1.563 0.063 0.073 2.25 0.083 4.5 0.031 6.75-0.123 0.936-0.634 1.551-1.531 1.844-3.438 0.042-6.875 0.042-10.313 0-1.041-0.25-1.718-0.885-2.031-1.906-0.010-1.115-0.021-2.229-0.031-3.344 0.001-1.149 0.043-2.284 0.125-3.406z"></path>
<path fill="#000" style="fill: var(--color1, #000)" opacity="0.94" d="M18.719 9.719c0.729-0.010 1.459 0 2.188 0.031 0.052 0.052 0.104 0.104 0.156 0.156 0.042 0.729 0.042 1.458 0 2.188-0.052 0.052-0.104 0.104-0.156 0.156-0.683 0.1-1.37 0.121-2.063 0.063-0.112-0.049-0.205-0.122-0.281-0.219-0.042-0.729-0.042-1.458 0-2.188 0.065-0.055 0.117-0.117 0.156-0.188z"></path>
</symbol>
<symbol id="icon-youtube" viewBox="0 0 32 32">
<path fill="#020202" style="fill: var(--color161, #020202)" d="M14.971-0.016c-1.039 0.075-2.063 0.249-3.069 0.522-0.066 0.046-0.142 0.068-0.229 0.065-0.066 0.046-0.142 0.068-0.229 0.065-0.066 0.046-0.142 0.068-0.229 0.065-0.179 0.041-0.353 0.096-0.522 0.163-0.069 0.070-0.156 0.103-0.261 0.098-0.727 0.253-1.423 0.569-2.090 0.947-0.015 0.046-0.048 0.068-0.098 0.065-0.136 0.041-0.255 0.106-0.359 0.196-0.015 0.046-0.048 0.068-0.098 0.065-0.032-0.006-0.054 0.005-0.065 0.033-0.015 0.046-0.048 0.068-0.098 0.065-0.063 0.020-0.118 0.053-0.163 0.098-0.015 0.046-0.048 0.068-0.098 0.065-0.142 0.071-0.273 0.158-0.392 0.261-0.015 0.046-0.048 0.068-0.098 0.065-0.015 0.046-0.048 0.068-0.098 0.065-0.237 0.139-0.455 0.302-0.653 0.49-0.035 0.068-0.090 0.112-0.163 0.131-0.035 0.068-0.090 0.112-0.163 0.131-0.022 0-0.033 0.011-0.033 0.033-0.046 0.079-0.111 0.133-0.196 0.163-0.068 0.1-0.155 0.177-0.261 0.229-0.022 0-0.033 0.011-0.033 0.033-0.111 0.144-0.241 0.263-0.392 0.359-0.229 0.207-0.446 0.425-0.653 0.653-0.019 0.073-0.062 0.128-0.131 0.163-0.065 0.044-0.12 0.098-0.163 0.163-0.008 0.062-0.040 0.106-0.098 0.131-0.033 0.011-0.054 0.033-0.065 0.065-0.008 0.062-0.040 0.106-0.098 0.131-0.044 0.022-0.076 0.054-0.098 0.098 0.002 0.050-0.019 0.082-0.065 0.098-0.033 0.011-0.054 0.033-0.065 0.065 0.002 0.050-0.019 0.082-0.065 0.098-0.146 0.162-0.277 0.336-0.392 0.522-0.008 0.062-0.040 0.106-0.098 0.131 0.002 0.050-0.019 0.082-0.065 0.098 0.002 0.050-0.019 0.082-0.065 0.098 0.002 0.050-0.019 0.082-0.065 0.098 0.002 0.050-0.019 0.082-0.065 0.098 0.002 0.050-0.019 0.082-0.065 0.098 0.002 0.050-0.019 0.082-0.065 0.098 0.002 0.050-0.019 0.082-0.065 0.098-0.027 0.011-0.038 0.033-0.033 0.065 0.002 0.050-0.019 0.082-0.065 0.098 0.002 0.050-0.019 0.082-0.065 0.098-0.027 0.011-0.038 0.033-0.033 0.065 0.002 0.050-0.019 0.082-0.065 0.098-0.090 0.104-0.155 0.224-0.196 0.359 0.002 0.050-0.019 0.082-0.065 0.098-0.378 0.667-0.694 1.363-0.947 2.090 0.012 0.072-0.009 0.126-0.065 0.163-0.078 0.202-0.144 0.409-0.196 0.62 0.003 0.087-0.019 0.163-0.065 0.229 0.003 0.087-0.019 0.163-0.065 0.229 0.003 0.087-0.019 0.163-0.065 0.229-0.273 1.007-0.447 2.030-0.522 3.069 0 0.675 0 1.35 0 2.024 0.179 2.583 0.93 4.989 2.253 7.216 0.051 0.010 0.072 0.043 0.065 0.098 0.024 0.060 0.057 0.114 0.098 0.163 0.051 0.010 0.072 0.043 0.065 0.098 0.734 1.172 1.616 2.228 2.645 3.167 0.073 0.019 0.128 0.062 0.163 0.131 0.044 0.065 0.098 0.12 0.163 0.163 0.050-0.002 0.082 0.019 0.098 0.065 0.022 0.044 0.054 0.076 0.098 0.098 0.062 0.008 0.106 0.040 0.131 0.098 0.074 0.091 0.161 0.167 0.261 0.229 0.050-0.002 0.082 0.019 0.098 0.065 0.233 0.209 0.483 0.394 0.751 0.555 0.050-0.002 0.082 0.019 0.098 0.065 0.050-0.002 0.082 0.019 0.098 0.065 0.050-0.002 0.082 0.019 0.098 0.065 0.050-0.002 0.082 0.019 0.098 0.065 0.050-0.002 0.082 0.019 0.098 0.065 0.050-0.002 0.082 0.019 0.098 0.065 0.046 0.045 0.1 0.078 0.163 0.098 0.050-0.002 0.082 0.019 0.098 0.065 0.854 0.53 1.758 0.966 2.71 1.306 0.072-0.012 0.126 0.009 0.163 0.065 0.277 0.107 0.56 0.194 0.849 0.261 0.087-0.003 0.163 0.019 0.229 0.065 0.035 0.030 0.078 0.041 0.131 0.033 0.087-0.003 0.163 0.019 0.229 0.065 0.965 0.254 1.944 0.418 2.939 0.49 0.675 0 1.35 0 2.024 0 3.084-0.221 5.882-1.228 8.392-3.020 3.963-3 6.162-6.989 6.596-11.967 0-0.675 0-1.35 0-2.024-0.075-1.039-0.249-2.063-0.522-3.069-0.047-0.066-0.068-0.142-0.065-0.229-0.047-0.066-0.068-0.142-0.065-0.229-0.067-0.289-0.154-0.572-0.261-0.849-0.056-0.037-0.078-0.091-0.065-0.163-0.253-0.727-0.569-1.423-0.947-2.090-0.046-0.015-0.068-0.048-0.065-0.098-0.041-0.136-0.106-0.255-0.196-0.359-0.046-0.015-0.068-0.048-0.065-0.098 0.006-0.032-0.005-0.054-0.033-0.065-0.046-0.015-0.068-0.048-0.065-0.098-0.020-0.063-0.053-0.118-0.098-0.163-0.046-0.015-0.068-0.048-0.065-0.098-0.046-0.015-0.068-0.048-0.065-0.098-0.046-0.015-0.068-0.048-0.065-0.098-0.046-0.015-0.068-0.048-0.065-0.098-0.046-0.015-0.068-0.048-0.065-0.098-0.046-0.015-0.068-0.048-0.065-0.098-0.161-0.268-0.346-0.518-0.555-0.751-0.046-0.015-0.068-0.048-0.065-0.098-0.011-0.033-0.033-0.054-0.065-0.065-0.046-0.015-0.068-0.048-0.065-0.098-0.022-0.044-0.054-0.076-0.098-0.098-0.058-0.025-0.090-0.068-0.098-0.131-0.011-0.033-0.033-0.054-0.065-0.065-0.046-0.015-0.068-0.048-0.065-0.098-0.054-0.076-0.12-0.141-0.196-0.196-0.058-0.025-0.090-0.068-0.098-0.131-0.945-1.048-2.011-1.94-3.2-2.678-0.055 0.007-0.087-0.015-0.098-0.065-0.049-0.041-0.103-0.074-0.163-0.098-0.055 0.007-0.087-0.015-0.098-0.065-0.022-0.011-0.044-0.022-0.065-0.033-0.055 0.007-0.087-0.015-0.098-0.065-0.044-0.022-0.087-0.044-0.131-0.065-0.055 0.007-0.087-0.015-0.098-0.065-2.128-1.177-4.402-1.852-6.825-2.025-0.675 0-1.35 0-2.024 0zM24.865 8.506c0.047 0.034 0.101 0.056 0.163 0.065 0.174 0.076 0.348 0.152 0.522 0.229 0.015 0.046 0.048 0.068 0.098 0.065 0.077 0.077 0.164 0.142 0.261 0.196 0.087 0.109 0.185 0.207 0.294 0.294 0.098 0.131 0.196 0.261 0.294 0.392 0.014 0.040 0.036 0.072 0.065 0.098 0.11 0.22 0.203 0.449 0.278 0.686 0.236 1.031 0.366 2.076 0.392 3.135 0.046 1.526 0.046 3.050 0 4.571-0.026 1.080-0.156 2.146-0.392 3.2-0.086 0.259-0.19 0.51-0.31 0.751-0.046 0.015-0.068 0.048-0.065 0.098-0.032 0.042-0.065 0.086-0.098 0.131-0.046 0.015-0.068 0.048-0.065 0.098-0.033 0.011-0.054 0.033-0.065 0.065-0.131 0.109-0.25 0.229-0.359 0.359-0.056 0.017-0.1 0.050-0.131 0.098-0.050-0.002-0.082 0.019-0.098 0.065-0.050-0.002-0.082 0.019-0.098 0.065-0.146 0.056-0.287 0.122-0.424 0.196-0.095 0.021-0.182 0.053-0.261 0.098-1.517 0.197-3.041 0.312-4.571 0.343-3.168 0.072-6.335 0.061-9.502-0.033-1.135-0.044-2.267-0.131-3.396-0.261-0.296-0.057-0.579-0.149-0.849-0.278-0.026-0.029-0.058-0.051-0.098-0.065-0.022-0.011-0.044-0.022-0.065-0.033-0.026-0.029-0.058-0.051-0.098-0.065-0.103-0.068-0.201-0.144-0.294-0.229-0.065-0.087-0.141-0.163-0.229-0.229-0.087-0.11-0.175-0.219-0.261-0.327 0.002-0.050-0.019-0.082-0.065-0.098-0.297-0.617-0.476-1.27-0.539-1.959-0.059-0.434-0.103-0.869-0.131-1.306-0.106-1.948-0.106-3.897 0-5.845 0.047-0.929 0.189-1.844 0.425-2.743 0.395-1.026 1.13-1.652 2.204-1.878 1.454-0.166 2.912-0.264 4.376-0.294 2.841-0.065 5.682-0.065 8.522 0 1.531 0.031 3.055 0.146 4.571 0.343z"></path>
<path fill="#606060" style="fill: var(--color40, #606060)" d="M11.902 0.506c-0.066 0.046-0.142 0.068-0.229 0.065 0.066-0.046 0.142-0.068 0.229-0.065z"></path>
<path fill="#535353" style="fill: var(--color162, #535353)" d="M11.673 0.571c-0.066 0.046-0.142 0.068-0.229 0.065 0.066-0.046 0.142-0.068 0.229-0.065z"></path>
<path fill="#676767" style="fill: var(--color163, #676767)" d="M11.445 0.637c-0.066 0.046-0.142 0.068-0.229 0.065 0.066-0.046 0.142-0.068 0.229-0.065z"></path>
<path fill="#636363" style="fill: var(--color85, #636363)" d="M10.694 0.865c-0.069 0.070-0.156 0.103-0.261 0.098 0.080-0.045 0.167-0.077 0.261-0.098z"></path>
<path fill="#858585" style="fill: var(--color6, #858585)" d="M8.343 1.91c-0.015 0.046-0.048 0.068-0.098 0.065 0.015-0.046 0.048-0.068 0.098-0.065z"></path>
<path fill="#7b7b7b" style="fill: var(--color29, #7b7b7b)" d="M23.82 2.008c0.040 0.014 0.072 0.036 0.098 0.065-0.055 0.007-0.087-0.015-0.098-0.065z"></path>
<path fill="#858585" style="fill: var(--color6, #858585)" d="M24.049 2.139c0.040 0.014 0.072 0.036 0.098 0.065-0.055 0.007-0.087-0.015-0.098-0.065z"></path>
<path fill="#848484" style="fill: var(--color43, #848484)" d="M7.886 2.171c-0.015 0.046-0.048 0.068-0.098 0.065 0.015-0.046 0.048-0.068 0.098-0.065z"></path>
<path fill="#808080" style="fill: var(--color5, #808080)" d="M24.212 2.237c0.040 0.014 0.072 0.036 0.098 0.065-0.055 0.007-0.087-0.015-0.098-0.065z"></path>
<path fill="#808080" style="fill: var(--color5, #808080)" d="M7.722 2.269c-0.015 0.046-0.048 0.068-0.098 0.065 0.015-0.046 0.048-0.068 0.098-0.065z"></path>
<path fill="#777" style="fill: var(--color42, #777)" d="M24.473 2.4c0.040 0.014 0.072 0.036 0.098 0.065-0.055 0.007-0.087-0.015-0.098-0.065z"></path>
<path fill="#808080" style="fill: var(--color5, #808080)" d="M7.461 2.433c-0.015 0.046-0.048 0.068-0.098 0.065 0.015-0.046 0.048-0.068 0.098-0.065z"></path>
<path fill="#757575" style="fill: var(--color13, #757575)" d="M6.971 2.759c-0.015 0.046-0.048 0.068-0.098 0.065 0.015-0.046 0.048-0.068 0.098-0.065z"></path>
<path fill="#838383" style="fill: var(--color7, #838383)" d="M6.873 2.825c-0.015 0.046-0.048 0.068-0.098 0.065 0.015-0.046 0.048-0.068 0.098-0.065z"></path>
<path fill="#606060" style="fill: var(--color40, #606060)" d="M6.122 3.38c-0.035 0.068-0.090 0.112-0.163 0.131 0.035-0.068 0.090-0.112 0.163-0.131z"></path>
<path fill="#636363" style="fill: var(--color85, #636363)" d="M5.959 3.51c-0.035 0.068-0.090 0.112-0.163 0.131 0.035-0.068 0.090-0.112 0.163-0.131z"></path>
<path fill="#5e5e5e" style="fill: var(--color3, #5e5e5e)" d="M5.763 3.673c-0.046 0.079-0.111 0.133-0.196 0.163 0.046-0.079 0.111-0.133 0.196-0.163z"></path>
<path fill="#696969" style="fill: var(--color4, #696969)" d="M5.567 3.837c-0.068 0.1-0.155 0.177-0.261 0.229 0.068-0.1 0.155-0.177 0.261-0.229z"></path>
<path fill="#5a5a5a" style="fill: var(--color164, #5a5a5a)" d="M5.273 4.098c-0.111 0.144-0.241 0.263-0.392 0.359 0.111-0.144 0.241-0.263 0.392-0.359z"></path>
<path fill="#979797" style="fill: var(--color165, #979797)" d="M27.771 5.143c0.058 0.025 0.090 0.068 0.098 0.131-0.058-0.025-0.090-0.068-0.098-0.131z"></path>
<path fill="#8d8d8d" style="fill: var(--color166, #8d8d8d)" d="M4.229 5.11c-0.019 0.073-0.062 0.128-0.131 0.163 0.019-0.073 0.062-0.128 0.131-0.163z"></path>
<path fill="#919191" style="fill: var(--color105, #919191)" d="M3.935 5.437c-0.008 0.062-0.040 0.106-0.098 0.131 0.008-0.062 0.040-0.106 0.098-0.131z"></path>
<path fill="#a0a0a0" style="fill: var(--color23, #a0a0a0)" d="M28.065 5.469c0.046 0.015 0.068 0.048 0.065 0.098-0.046-0.015-0.068-0.048-0.065-0.098z"></path>
<path fill="#808080" style="fill: var(--color5, #808080)" d="M3.771 5.633c-0.008 0.062-0.040 0.106-0.098 0.131 0.008-0.062 0.040-0.106 0.098-0.131z"></path>
<path fill="#888" style="fill: var(--color20, #888)" d="M28.196 5.633c0.058 0.025 0.090 0.068 0.098 0.131-0.058-0.025-0.090-0.068-0.098-0.131z"></path>
<path fill="#9c9c9c" style="fill: var(--color24, #9c9c9c)" d="M3.575 5.861c0.002 0.050-0.019 0.082-0.065 0.098-0.002-0.050 0.019-0.082 0.065-0.098z"></path>
<path fill="#a0a0a0" style="fill: var(--color23, #a0a0a0)" d="M28.392 5.861c0.046 0.015 0.068 0.048 0.065 0.098-0.046-0.015-0.068-0.048-0.065-0.098z"></path>
<path fill="#9a9a9a" style="fill: var(--color145, #9a9a9a)" d="M3.445 6.024c0.002 0.050-0.019 0.082-0.065 0.098-0.002-0.050 0.019-0.082 0.065-0.098z"></path>
<path fill="#9c9c9c" style="fill: var(--color24, #9c9c9c)" d="M28.522 6.024c0.046 0.015 0.068 0.048 0.065 0.098-0.046-0.015-0.068-0.048-0.065-0.098z"></path>
<path fill="#7d7d7d" style="fill: var(--color10, #7d7d7d)" d="M2.988 6.645c-0.008 0.062-0.040 0.106-0.098 0.131 0.008-0.062 0.040-0.106 0.098-0.131z"></path>
<path fill="#959595" style="fill: var(--color49, #959595)" d="M2.89 6.776c0.002 0.050-0.019 0.082-0.065 0.098-0.002-0.050 0.019-0.082 0.065-0.098z"></path>
<path fill="#868686" style="fill: var(--color130, #868686)" d="M2.825 6.873c0.002 0.050-0.019 0.082-0.065 0.098-0.002-0.050 0.019-0.082 0.065-0.098z"></path>
<path fill="#878787" style="fill: var(--color14, #878787)" d="M29.143 6.873c0.046 0.015 0.068 0.048 0.065 0.098-0.046-0.015-0.068-0.048-0.065-0.098z"></path>
<path fill="#787878" style="fill: var(--color41, #787878)" d="M2.759 6.971c0.002 0.050-0.019 0.082-0.065 0.098-0.002-0.050 0.019-0.082 0.065-0.098z"></path>
<path fill="#787878" style="fill: var(--color41, #787878)" d="M29.208 6.971c0.046 0.015 0.068 0.048 0.065 0.098-0.046-0.015-0.068-0.048-0.065-0.098z"></path>
<path fill="#7a7a7a" style="fill: var(--color11, #7a7a7a)" d="M2.694 7.069c0.002 0.050-0.019 0.082-0.065 0.098-0.002-0.050 0.019-0.082 0.065-0.098z"></path>
<path fill="#7c7c7c" style="fill: var(--color8, #7c7c7c)" d="M29.273 7.069c0.046 0.015 0.068 0.048 0.065 0.098-0.046-0.015-0.068-0.048-0.065-0.098z"></path>
<path fill="#7f7f7f" style="fill: var(--color15, #7f7f7f)" d="M2.629 7.167c0.002 0.050-0.019 0.082-0.065 0.098-0.002-0.050 0.019-0.082 0.065-0.098z"></path>
<path fill="#808080" style="fill: var(--color5, #808080)" d="M29.339 7.167c0.046 0.015 0.068 0.048 0.065 0.098-0.046-0.015-0.068-0.048-0.065-0.098z"></path>
<path fill="#848484" style="fill: var(--color43, #848484)" d="M2.563 7.265c0.002 0.050-0.019 0.082-0.065 0.098-0.002-0.050 0.019-0.082 0.065-0.098z"></path>
<path fill="#868686" style="fill: var(--color130, #868686)" d="M29.404 7.265c0.046 0.015 0.068 0.048 0.065 0.098-0.046-0.015-0.068-0.048-0.065-0.098z"></path>
<path fill="#989898" style="fill: var(--color35, #989898)" d="M2.498 7.363c0.002 0.050-0.019 0.082-0.065 0.098-0.002-0.050 0.019-0.082 0.065-0.098z"></path>
<path fill="#999" style="fill: var(--color96, #999)" d="M29.469 7.363c0.046 0.015 0.068 0.048 0.065 0.098-0.046-0.015-0.068-0.048-0.065-0.098z"></path>
<path fill="#7f7f7f" style="fill: var(--color15, #7f7f7f)" d="M2.4 7.527c0.002 0.050-0.019 0.082-0.065 0.098-0.002-0.050 0.019-0.082 0.065-0.098z"></path>
<path fill="#999" style="fill: var(--color96, #999)" d="M2.335 7.625c0.002 0.050-0.019 0.082-0.065 0.098-0.002-0.050 0.019-0.082 0.065-0.098z"></path>
<path fill="#9d9d9d" style="fill: var(--color27, #9d9d9d)" d="M29.633 7.625c0.046 0.015 0.068 0.048 0.065 0.098-0.046-0.015-0.068-0.048-0.065-0.098z"></path>
<path fill="#a1a1a1" style="fill: var(--color167, #a1a1a1)" d="M2.237 7.788c0.002 0.050-0.019 0.082-0.065 0.098-0.002-0.050 0.019-0.082 0.065-0.098z"></path>
<path fill="#a4a4a4" style="fill: var(--color48, #a4a4a4)" d="M29.731 7.788c0.046 0.015 0.068 0.048 0.065 0.098-0.046-0.015-0.068-0.048-0.065-0.098z"></path>
<path fill="#a3a3a3" style="fill: var(--color34, #a3a3a3)" d="M1.976 8.245c0.002 0.050-0.019 0.082-0.065 0.098-0.002-0.050 0.019-0.082 0.065-0.098z"></path>
<path fill="#a5a5a5" style="fill: var(--color168, #a5a5a5)" d="M29.992 8.245c0.046 0.015 0.068 0.048 0.065 0.098-0.046-0.015-0.068-0.048-0.065-0.098z"></path>
<path fill="#757575" style="fill: var(--color13, #757575)" d="M24.865 8.506c0.072-0.012 0.126 0.009 0.163 0.065-0.062-0.010-0.117-0.031-0.163-0.065z"></path>
<path fill="#a1a1a1" style="fill: var(--color167, #a1a1a1)" d="M25.551 8.8c0.050-0.002 0.082 0.019 0.098 0.065-0.050 0.002-0.082-0.019-0.098-0.065z"></path>
<path fill="#a4a4a4" style="fill: var(--color48, #a4a4a4)" d="M25.91 9.061c0.131 0.065 0.229 0.163 0.294 0.294-0.109-0.087-0.207-0.185-0.294-0.294z"></path>
<path fill="#7d7d7d" style="fill: var(--color10, #7d7d7d)" d="M26.498 9.747c0.051 0.010 0.072 0.043 0.065 0.098-0.029-0.026-0.051-0.058-0.065-0.098z"></path>
<path fill="#757575" style="fill: var(--color13, #757575)" d="M0.963 10.433c0.012 0.072-0.009 0.126-0.065 0.163 0.010-0.062 0.031-0.117 0.065-0.163z"></path>
<path fill="#777" style="fill: var(--color42, #777)" d="M31.004 10.433c0.034 0.047 0.056 0.101 0.065 0.163-0.056-0.037-0.078-0.091-0.065-0.163z"></path>
<path fill="#6b6b6b" style="fill: var(--color169, #6b6b6b)" d="M0.702 11.216c0.003 0.087-0.019 0.163-0.065 0.229-0.003-0.087 0.019-0.163 0.065-0.229z"></path>
<path fill="#5c5c5c" style="fill: var(--color170, #5c5c5c)" d="M0.637 11.445c0.003 0.087-0.019 0.163-0.065 0.229-0.003-0.087 0.019-0.163 0.065-0.229z"></path>
<path fill="#606060" style="fill: var(--color40, #606060)" d="M31.331 11.445c0.047 0.066 0.068 0.142 0.065 0.229-0.047-0.066-0.068-0.142-0.065-0.229z"></path>
<path fill="#6d6d6d" style="fill: var(--color171, #6d6d6d)" d="M0.571 11.673c0.003 0.087-0.019 0.163-0.065 0.229-0.003-0.087 0.019-0.163 0.065-0.229z"></path>
<path fill="#727272" style="fill: var(--color172, #727272)" d="M31.396 11.673c0.047 0.066 0.068 0.142 0.065 0.229-0.047-0.066-0.068-0.142-0.065-0.229z"></path>
<path fill="#b2b2b2" style="fill: var(--color173, #b2b2b2)" d="M13.11 12.033c-0.044 2.482-0.044 4.963 0 7.445-0.002 0.018-0.013 0.029-0.033 0.033-0.044-2.503-0.044-5.007 0-7.51 0.020 0.004 0.031 0.015 0.033 0.033z"></path>
<path fill="#040404" style="fill: var(--color174, #040404)" d="M13.11 12.033c2.367 1.222 4.729 2.452 7.086 3.69 0.011 0.022 0.022 0.044 0.033 0.065-2.362 1.246-4.735 2.476-7.118 3.69-0.044-2.482-0.044-4.963 0-7.445z"></path>
<path fill="#d8d8d8" style="fill: var(--color175, #d8d8d8)" d="M20.196 15.722c0.063 0.007 0.074 0.029 0.033 0.065-0.011-0.022-0.022-0.044-0.033-0.065z"></path>
<path fill="#9f9f9f" style="fill: var(--color21, #9f9f9f)" d="M5.437 22.188c0.046 0.015 0.068 0.048 0.065 0.098-0.046-0.015-0.068-0.048-0.065-0.098z"></path>
<path fill="#9a9a9a" style="fill: var(--color145, #9a9a9a)" d="M26.531 22.188c0.002 0.050-0.019 0.082-0.065 0.098-0.002-0.050 0.019-0.082 0.065-0.098z"></path>
<path fill="#a2a2a2" style="fill: var(--color28, #a2a2a2)" d="M26.367 22.416c0.002 0.050-0.019 0.082-0.065 0.098-0.002-0.050 0.019-0.082 0.065-0.098z"></path>
<path fill="#a2a2a2" style="fill: var(--color28, #a2a2a2)" d="M5.763 22.612c0.087 0.065 0.163 0.142 0.229 0.229-0.109-0.044-0.185-0.12-0.229-0.229z"></path>
<path fill="#787878" style="fill: var(--color41, #787878)" d="M26.237 22.58c-0.087 0.152-0.207 0.272-0.359 0.359 0.109-0.131 0.229-0.25 0.359-0.359z"></path>
<path fill="#808080" style="fill: var(--color5, #808080)" d="M25.747 23.037c-0.015 0.046-0.048 0.068-0.098 0.065 0.015-0.046 0.048-0.068 0.098-0.065z"></path>
<path fill="#7b7b7b" style="fill: var(--color29, #7b7b7b)" d="M6.286 23.069c0.040 0.014 0.072 0.036 0.098 0.065-0.055 0.007-0.087-0.015-0.098-0.065z"></path>
<path fill="#767676" style="fill: var(--color16, #767676)" d="M25.649 23.102c-0.015 0.046-0.048 0.068-0.098 0.065 0.015-0.046 0.048-0.068 0.098-0.065z"></path>
<path fill="#818181" style="fill: var(--color176, #818181)" d="M6.449 23.167c0.040 0.014 0.072 0.036 0.098 0.065-0.055 0.007-0.087-0.015-0.098-0.065z"></path>
<path fill="#5e5e5e" style="fill: var(--color3, #5e5e5e)" d="M25.127 23.363c-0.069 0.070-0.156 0.103-0.261 0.098 0.080-0.045 0.167-0.077 0.261-0.098z"></path>
<path fill="#818181" style="fill: var(--color176, #818181)" d="M2.237 24.212c0.051 0.010 0.072 0.043 0.065 0.098-0.029-0.026-0.051-0.058-0.065-0.098z"></path>
<path fill="#7c7c7c" style="fill: var(--color8, #7c7c7c)" d="M2.4 24.473c0.051 0.010 0.072 0.043 0.065 0.098-0.029-0.026-0.051-0.058-0.065-0.098z"></path>
<path fill="#9a9a9a" style="fill: var(--color145, #9a9a9a)" d="M5.11 27.739c0.073 0.019 0.128 0.062 0.163 0.131-0.073-0.019-0.128-0.062-0.163-0.131z"></path>
<path fill="#8d8d8d" style="fill: var(--color166, #8d8d8d)" d="M5.437 28.033c0.050-0.002 0.082 0.019 0.098 0.065-0.050 0.002-0.082-0.019-0.098-0.065z"></path>
<path fill="#8c8c8c" style="fill: var(--color12, #8c8c8c)" d="M5.633 28.196c0.062 0.008 0.106 0.040 0.131 0.098-0.062-0.008-0.106-0.040-0.131-0.098z"></path>
<path fill="#9c9c9c" style="fill: var(--color24, #9c9c9c)" d="M6.024 28.522c0.050-0.002 0.082 0.019 0.098 0.065-0.050 0.002-0.082-0.019-0.098-0.065z"></path>
<path fill="#8f8f8f" style="fill: var(--color32, #8f8f8f)" d="M6.873 29.143c0.050-0.002 0.082 0.019 0.098 0.065-0.050 0.002-0.082-0.019-0.098-0.065z"></path>
<path fill="#7b7b7b" style="fill: var(--color29, #7b7b7b)" d="M6.971 29.208c0.050-0.002 0.082 0.019 0.098 0.065-0.050 0.002-0.082-0.019-0.098-0.065z"></path>
<path fill="#858585" style="fill: var(--color6, #858585)" d="M7.069 29.273c0.050-0.002 0.082 0.019 0.098 0.065-0.050 0.002-0.082-0.019-0.098-0.065z"></path>
<path fill="#868686" style="fill: var(--color130, #868686)" d="M7.167 29.339c0.050-0.002 0.082 0.019 0.098 0.065-0.050 0.002-0.082-0.019-0.098-0.065z"></path>
<path fill="#878787" style="fill: var(--color14, #878787)" d="M7.265 29.404c0.050-0.002 0.082 0.019 0.098 0.065-0.050 0.002-0.082-0.019-0.098-0.065z"></path>
<path fill="#a0a0a0" style="fill: var(--color23, #a0a0a0)" d="M7.363 29.469c0.050-0.002 0.082 0.019 0.098 0.065-0.050 0.002-0.082-0.019-0.098-0.065z"></path>
<path fill="#9e9e9e" style="fill: var(--color80, #9e9e9e)" d="M7.625 29.633c0.050-0.002 0.082 0.019 0.098 0.065-0.050 0.002-0.082-0.019-0.098-0.065z"></path>
<path fill="#7a7a7a" style="fill: var(--color11, #7a7a7a)" d="M10.433 31.004c0.072-0.012 0.126 0.009 0.163 0.065-0.062-0.010-0.117-0.031-0.163-0.065z"></path>
<path fill="#636363" style="fill: var(--color85, #636363)" d="M11.445 31.331c0.087-0.003 0.163 0.019 0.229 0.065-0.087 0.003-0.163-0.019-0.229-0.065z"></path>
<path fill="#626262" style="fill: var(--color177, #626262)" d="M11.804 31.429c0.087-0.003 0.163 0.019 0.229 0.065-0.087 0.003-0.163-0.019-0.229-0.065z"></path>
</symbol>
<symbol id="icon-close" viewBox="0 0 32 32">
<path d="M32 3.223l-3.223-3.223-12.777 12.777-12.777-12.777-3.223 3.223 12.777 12.777-12.777 12.777 3.223 3.223 12.777-12.777 12.777 12.777 3.223-3.223-12.777-12.777 12.777-12.777z"></path>
</symbol>
<symbol id="icon-person" viewBox="0 0 32 32">
<path fill="#fe0000" style="fill: var(--color1, #fe0000)" opacity="0.975" d="M14.32 0.56c3.324-0.298 5.911 0.929 7.76 3.68 2.067 4.146 1.187 7.533-2.64 10.16-4.081 2-7.467 1.173-10.16-2.48-1.507-2.816-1.347-5.535 0.48-8.16 1.22-1.527 2.74-2.594 4.56-3.2z"></path>
<path fill="#fe0000" style="fill: var(--color1, #fe0000)" opacity="0.988" d="M5.84 16.4c2.675-0.112 5.288 0.234 7.84 1.040 0.767 0.136 1.541 0.216 2.32 0.24 3.137-0.489 6.284-0.916 9.44-1.28 3.371 0.278 5.105 2.118 5.2 5.52-0.166 3.009-0.166 6.023 0 9.040-9.707 0-19.413 0-29.12 0-0.027-2.934 0-5.867 0.080-8.8-0.148-1.969 0.518-3.595 2-4.88 0.695-0.471 1.442-0.764 2.24-0.88z"></path>
</symbol>
<symbol id="icon-burger" viewBox="0 0 47 32">
<path stroke-linejoin="round" stroke-linecap="round" stroke-miterlimit="4" stroke-width="4.3636" d="M1.96 29.154h42.965M1.96 15.615h42.965M1.96 2.077h42.965"></path>
</symbol>
<symbol id="icon-lupa" viewBox="0 0 32 32">
<path d="M31.121 26.879l-7.341-7.342c-1.094 1.701-2.541 3.148-4.243 4.242l7.342 7.342c1.172 1.172 3.072 1.172 4.242 0 1.172-1.17 1.172-3.070 0-4.242z"></path>
<path d="M24 12c0-6.627-5.373-12-12-12s-12 5.373-12 12 5.373 12 12 12c6.627 0 12-5.373 12-12zM12 21c-4.963 0-9-4.037-9-9s4.037-9 9-9c4.963 0 9 4.037 9 9s-4.037 9-9 9z"></path>
<path d="M5 12h2c0-2.757 2.243-5 5-5v-2c-3.859 0-7 3.141-7 7z"></path>
</symbol>
</defs>
</svg>