<?xml version="1.0" encoding="UTF-8"?>
<!DOCTYPE svg PUBLIC "-//W3C//DTD SVG 1.1//EN" "http://www.w3.org/Graphics/SVG/1.1/DTD/svg11.dtd">
<svg xmlns="http://www.w3.org/2000/svg" version="1.1" width="200px" height="200px" style="shape-rendering:geometricPrecision; text-rendering:geometricPrecision; image-rendering:optimizeQuality; fill-rule:evenodd; clip-rule:evenodd" xmlns:xlink="http://www.w3.org/1999/xlink">
<g><path style="opacity:0.697" fill="#fe0000" d="M 84.5,2.5 C 125.378,-1.39562 157.545,13.271 181,46.5C 195.459,70.4728 199.459,96.1395 193,123.5C 181.024,163.476 154.524,187.31 113.5,195C 72.6042,199.386 40.4375,184.886 17,151.5C 2.5413,127.527 -1.4587,101.861 5,74.5C 17.1494,34.5115 43.6494,10.5115 84.5,2.5 Z M 91.5,5.5 C 142.376,5.67143 175.21,30.0048 190,78.5C 197.394,126.212 179.894,161.379 137.5,184C 94.8837,200.303 58.0503,191.803 27,158.5C -1.66667,118.833 -1.66667,79.1667 27,39.5C 44.1738,19.8311 65.6738,8.49778 91.5,5.5 Z"/></g>
<g><path style="opacity:0.865" fill="#fe0000" d="M 114.5,48.5 C 136.866,46.0527 149.2,55.886 151.5,78C 151.885,83.7939 150.552,89.1272 147.5,94C 144.735,93.2797 142.401,91.6131 140.5,89C 146.927,73.9464 142.594,63.2797 127.5,57C 121.68,55.9636 116.18,56.7969 111,59.5C 108.982,57.6499 107.149,55.6499 105.5,53.5C 108.119,51.0266 111.119,49.3599 114.5,48.5 Z"/></g>
<g><path style="opacity:0.941" fill="#fe0000" d="M 56.5,49.5 C 60.1064,49.2108 63.6064,49.5442 67,50.5C 70.3633,58.0602 73.8633,65.5602 77.5,73C 73.6521,76.1894 70.4854,80.0228 68,84.5C 67.3333,85.5 67.3333,86.5 68,87.5C 81.4664,102.635 95.2997,117.468 109.5,132C 114.731,129.808 119.231,126.308 123,121.5C 131.456,126.64 139.29,132.474 146.5,139C 145.097,142.473 143.43,145.806 141.5,149C 132.527,153.436 123.194,156.436 113.5,158C 81.884,143.05 59.0506,119.55 45,87.5C 43.3306,83.9919 42.164,80.3252 41.5,76.5C 44.7306,66.3589 49.7306,57.3589 56.5,49.5 Z"/></g>
<g><path style="opacity:0.827" fill="#fe0000" d="M 105.5,63.5 C 128.315,61.481 138.482,71.8144 136,94.5C 135.086,96.6641 133.919,98.6641 132.5,100.5C 130.5,99.1667 128.833,97.5 127.5,95.5C 132.638,82.7612 128.638,74.2612 115.5,70C 111.42,69.5793 107.587,70.4126 104,72.5C 102.315,70.9825 100.815,69.3159 99.5,67.5C 101.565,66.1433 103.565,64.81 105.5,63.5 Z"/></g>
</svg>
